<svg width="40" height="40" viewBox="0 0 40 40" fill="none" xmlns="http://www.w3.org/2000/svg">
<circle cx="20" cy="20" r="20" fill="#FF3E79"/>
<circle cx="19.9992" cy="20.0002" r="16.8" fill="white"/>
<path d="M26.408 30.4004H14.936C14.952 29.0084 15.288 27.7924 15.944 26.7524C16.6 25.7124 17.496 24.8084 18.632 24.0404C19.176 23.6404 19.744 23.2564 20.336 22.8884C20.928 22.5044 21.472 22.0964 21.968 21.6644C22.464 21.2324 22.872 20.7684 23.192 20.2724C23.512 19.7604 23.68 19.1764 23.696 18.5204C23.696 18.2164 23.656 17.8964 23.576 17.5604C23.512 17.2084 23.376 16.8884 23.168 16.6004C22.96 16.2964 22.672 16.0484 22.304 15.8564C21.936 15.6484 21.456 15.5444 20.864 15.5444C20.32 15.5444 19.864 15.6564 19.496 15.8804C19.144 16.0884 18.856 16.3844 18.632 16.7684C18.424 17.1364 18.264 17.5764 18.152 18.0884C18.056 18.6004 18 19.1524 17.984 19.7444H15.248C15.248 18.8164 15.368 17.9604 15.608 17.1764C15.864 16.3764 16.24 15.6884 16.736 15.1124C17.232 14.5364 17.832 14.0884 18.536 13.7684C19.256 13.4324 20.088 13.2644 21.032 13.2644C22.056 13.2644 22.912 13.4324 23.6 13.7684C24.288 14.1044 24.84 14.5284 25.256 15.0404C25.688 15.5524 25.992 16.1124 26.168 16.7204C26.344 17.3124 26.432 17.8804 26.432 18.4244C26.432 19.0964 26.328 19.7044 26.12 20.2484C25.912 20.7924 25.632 21.2964 25.28 21.7604C24.928 22.2084 24.528 22.6244 24.08 23.0084C23.632 23.3924 23.168 23.7524 22.688 24.0884C22.208 24.4244 21.728 24.7444 21.248 25.0484C20.768 25.3524 20.32 25.6564 19.904 25.9604C19.504 26.2644 19.152 26.5844 18.848 26.9204C18.544 27.2404 18.336 27.5844 18.224 27.9524H26.408V30.4004Z" fill="#FF3E79"/>
</svg>
