<svg width="40" height="40" viewBox="0 0 40 40" fill="none" xmlns="http://www.w3.org/2000/svg">
<circle cx="20" cy="20" r="20" fill="#FF3E79"/>
<circle cx="19.9992" cy="20.0002" r="16.8" fill="white"/>
<path d="M19.472 20.5604C19.92 20.5764 20.368 20.5444 20.816 20.4644C21.264 20.3844 21.664 20.2484 22.016 20.0564C22.368 19.8484 22.648 19.5684 22.856 19.2164C23.08 18.8644 23.192 18.4324 23.192 17.9204C23.192 17.2004 22.944 16.6244 22.448 16.1924C21.968 15.7604 21.344 15.5444 20.576 15.5444C20.096 15.5444 19.68 15.6404 19.328 15.8324C18.976 16.0244 18.68 16.2884 18.44 16.6244C18.216 16.9444 18.048 17.3124 17.936 17.7284C17.824 18.1284 17.776 18.5444 17.792 18.9764H15.056C15.088 18.1604 15.24 17.4084 15.512 16.7204C15.784 16.0164 16.152 15.4084 16.616 14.8964C17.096 14.3844 17.672 13.9844 18.344 13.6964C19.016 13.4084 19.776 13.2644 20.624 13.2644C21.28 13.2644 21.92 13.3604 22.544 13.5524C23.184 13.7444 23.752 14.0244 24.248 14.3924C24.76 14.7604 25.168 15.2324 25.472 15.8084C25.776 16.3684 25.928 17.0164 25.928 17.7524C25.928 18.6004 25.736 19.3444 25.352 19.9844C24.968 20.6084 24.368 21.0644 23.552 21.3524V21.4004C24.512 21.5924 25.256 22.0724 25.784 22.8404C26.328 23.5924 26.6 24.5124 26.6 25.6004C26.6 26.4004 26.44 27.1204 26.12 27.7604C25.8 28.3844 25.368 28.9204 24.824 29.3684C24.28 29.8004 23.648 30.1364 22.928 30.3764C22.208 30.6164 21.448 30.7364 20.648 30.7364C19.672 30.7364 18.816 30.6004 18.08 30.3284C17.36 30.0404 16.752 29.6404 16.256 29.1284C15.776 28.6164 15.408 28.0004 15.152 27.2804C14.896 26.5604 14.76 25.7604 14.744 24.8804H17.48C17.448 25.9044 17.696 26.7604 18.224 27.4484C18.768 28.1204 19.576 28.4564 20.648 28.4564C21.56 28.4564 22.32 28.2004 22.928 27.6884C23.552 27.1604 23.864 26.4164 23.864 25.4564C23.864 24.8004 23.736 24.2804 23.48 23.8964C23.224 23.5124 22.888 23.2244 22.472 23.0324C22.056 22.8244 21.584 22.6964 21.056 22.6484C20.544 22.6004 20.016 22.5844 19.472 22.6004V20.5604Z" fill="#FF3E79"/>
</svg>
