<svg width="181" height="57" viewBox="0 0 181 57" fill="none" xmlns="http://www.w3.org/2000/svg">
<g clip-path="url(#clip0_2528_3360)">
<path d="M167.366 0.00018525H13.6417C13.117 0.00018525 12.5987 0.00018525 12.0754 0.00303525C11.6374 0.00588525 11.2029 0.0141645 10.7606 0.0211327C9.79991 0.0323928 8.84144 0.116574 7.89356 0.272944C6.94702 0.432719 6.03012 0.73394 5.17389 1.16642C4.3187 1.60256 3.5373 2.16927 2.85801 2.84601C2.17517 3.52084 1.60596 4.30086 1.17228 5.15606C0.737406 6.00957 0.435863 6.92417 0.278065 7.86829C0.118767 8.81122 0.0330479 9.76503 0.0216758 10.7211C0.00839847 11.158 0.00699634 11.5964 0 12.0334V44.9712C0.00699634 45.4137 0.00839847 45.8423 0.0216758 46.2849C0.0330514 47.241 0.118771 48.1947 0.278065 49.1376C0.435427 50.0823 0.736988 50.9974 1.17228 51.8512C1.60576 52.7037 2.17505 53.4805 2.85801 54.1516C3.53472 54.8314 4.31663 55.3985 5.17389 55.8313C6.03012 56.2649 6.94691 56.5679 7.89356 56.7301C8.8416 56.8853 9.79997 56.9695 10.7606 56.9821C11.2029 56.9918 11.6374 56.9973 12.0754 56.9973C12.5987 57.0002 13.1171 57.0002 13.6417 57.0002H167.366C167.88 57.0002 168.403 57.0002 168.917 56.9973C169.353 56.9973 169.8 56.9918 170.236 56.9821C171.195 56.9701 172.151 56.8859 173.097 56.7301C174.047 56.5668 174.967 56.2638 175.828 55.8313C176.684 55.3982 177.465 54.8311 178.141 54.1516C178.823 53.4779 179.393 52.7016 179.832 51.8512C180.264 50.9968 180.563 50.0817 180.718 49.1376C180.877 48.1946 180.966 47.241 180.983 46.2849C180.989 45.8423 180.989 45.4137 180.989 44.9712C181 44.4535 181 43.9386 181 43.4125V13.5892C181 13.0673 181 12.5496 180.989 12.0334C180.989 11.5964 180.989 11.158 180.983 10.7211C180.966 9.76489 180.877 8.8113 180.718 7.86824C180.562 6.92466 180.264 6.01013 179.832 5.15601C178.949 3.44184 177.548 2.04652 175.828 1.16629C174.967 0.734869 174.047 0.433728 173.097 0.272816C172.152 0.115757 171.195 0.0315463 170.236 0.0209332C169.8 0.0139792 169.353 0.00562875 168.917 0.00285C168.403 0 167.88 0 167.366 0V0.00018525Z" fill="#A6A6A6"/>
<path d="M12.0824 55.7533C11.6465 55.7533 11.221 55.7478 10.7886 55.7381C9.8926 55.7264 8.99874 55.6488 8.1143 55.5056C7.2896 55.3642 6.49069 55.101 5.74392 54.7249C5.004 54.3519 4.32913 53.8627 3.74517 53.2762C3.15276 52.6967 2.65955 52.0244 2.28508 51.2862C1.90649 50.5432 1.64449 49.7468 1.50819 48.9247C1.361 48.0414 1.28136 47.1482 1.26997 46.2528C1.2609 45.9523 1.24902 44.9517 1.24902 44.9517V12.0334C1.24902 12.0334 1.26167 11.0481 1.27004 10.7587C1.28095 9.86473 1.36012 8.97293 1.50686 8.09096C1.64342 7.26663 1.90563 6.46791 2.28443 5.72247C2.65751 4.98477 3.14798 4.31205 3.73682 3.73039C4.32501 3.14321 5.00204 2.65156 5.74322 2.27337C6.48828 1.89843 7.28567 1.63714 8.1087 1.49826C8.99605 1.35371 9.89301 1.27556 10.7921 1.26447L12.0831 1.24707H168.91L170.216 1.26517C171.107 1.27571 171.996 1.35316 172.875 1.49686C173.707 1.63748 174.512 1.9006 175.266 2.27754C176.751 3.0397 177.959 4.2455 178.721 5.72594C179.094 6.46624 179.352 7.25844 179.487 8.07566C179.635 8.96486 179.718 9.86367 179.736 10.7649C179.74 11.1685 179.74 11.602 179.74 12.0334C179.751 12.5678 179.751 13.0764 179.751 13.5892V43.4125C179.751 43.9302 179.751 44.4354 179.74 44.9447C179.74 45.4081 179.74 45.8326 179.734 46.2695C179.717 47.1547 179.636 48.0375 179.49 48.9108C179.356 49.7388 179.095 50.5414 178.717 51.2905C178.34 52.0207 177.849 52.6871 177.264 53.2651C176.679 53.8548 176.003 54.3468 175.262 54.7222C174.51 55.1012 173.706 55.3653 172.875 55.5056C171.991 55.6495 171.097 55.7272 170.201 55.7381C169.782 55.7478 169.343 55.7533 168.917 55.7533L167.366 55.7562L12.0824 55.7533Z" fill="white"/>
<path d="M35.4417 28.9295C35.4571 27.7401 35.7743 26.5739 36.3638 25.5395C36.9533 24.505 37.7959 23.6358 38.8133 23.0128C38.167 22.0935 37.3144 21.3369 36.3231 20.8032C35.3318 20.2694 34.2293 19.9732 33.103 19.9382C30.7004 19.687 28.3712 21.37 27.1469 21.37C25.8989 21.37 24.0139 19.9631 21.9841 20.0047C20.6711 20.0469 19.3916 20.4272 18.27 21.1084C17.1485 21.7897 16.2233 22.7486 15.5845 23.8919C12.8174 28.6634 14.8814 35.6759 17.532 39.5328C18.8582 41.4214 20.4081 43.5311 22.4361 43.4563C24.4206 43.3743 25.1618 42.1959 27.5573 42.1959C29.9306 42.1959 30.6259 43.4563 32.6951 43.4087C34.8246 43.3743 36.1663 41.5117 37.4459 39.6052C38.3987 38.2595 39.1319 36.7722 39.6183 35.1983C38.3812 34.6772 37.3254 33.8048 36.5827 32.69C35.8399 31.5753 35.4431 30.2674 35.4417 28.9295Z" fill="black"/>
<path d="M31.5337 17.4014C32.6948 16.0131 33.2668 14.2288 33.1283 12.4272C31.3544 12.6128 29.7158 13.4572 28.539 14.7922C27.9637 15.4444 27.523 16.2031 27.2422 17.025C26.9615 17.8469 26.8461 18.7158 26.9027 19.5822C27.7899 19.5913 28.6677 19.3997 29.4699 19.022C30.272 18.6442 30.9777 18.0901 31.5337 17.4014Z" fill="black"/>
<path d="M51.0136 20.9495V13.6484H48.3281V12.4468H55.0194V13.6484H52.3395V20.9495H51.0136Z" fill="black"/>
<path d="M61.1858 19.2175C61.013 19.804 60.6388 20.3112 60.1284 20.6506C59.6181 20.99 59.0042 21.1398 58.3942 21.0739C57.9697 21.0851 57.5479 21.0041 57.158 20.8366C56.7681 20.6691 56.4195 20.4192 56.1364 20.104C55.8532 19.7889 55.6423 19.4162 55.5183 19.0117C55.3942 18.6073 55.3601 18.1808 55.4181 17.7619C55.3616 17.3417 55.3964 16.9143 55.5201 16.5086C55.6438 16.103 55.8537 15.7285 56.1353 15.4106C56.417 15.0928 56.7639 14.8389 57.1527 14.6661C57.5414 14.4934 57.9629 14.4059 58.3886 14.4095C60.1812 14.4095 61.2626 15.6293 61.2626 17.6443V18.0861H56.7133V18.1571C56.6934 18.3925 56.7231 18.6296 56.8006 18.8529C56.878 19.0763 57.0014 19.2811 57.163 19.4542C57.3245 19.6272 57.5206 19.7648 57.7386 19.858C57.9567 19.9512 58.1918 19.9979 58.4291 19.9953C58.7332 20.0317 59.0414 19.9771 59.3143 19.8386C59.5872 19.7001 59.8126 19.4839 59.9618 19.2174L61.1858 19.2175ZM56.7133 17.1496H59.9674C59.9835 16.9342 59.9541 16.7179 59.8812 16.5146C59.8083 16.3112 59.6934 16.1252 59.5441 15.9687C59.3947 15.8122 59.2142 15.6885 59.014 15.6056C58.8138 15.5227 58.5983 15.4824 58.3816 15.4873C58.1617 15.4846 57.9434 15.5257 57.7397 15.6083C57.536 15.6908 57.351 15.8132 57.1955 15.9681C57.04 16.123 56.9173 16.3074 56.8345 16.5103C56.7516 16.7132 56.7105 16.9306 56.7133 17.1496H56.7133ZM57.6243 13.4605L59.1095 11.4336H60.6004L58.9377 13.4605H57.6243Z" fill="black"/>
<path d="M63.0283 12.0278H64.2998V20.9494H63.0283V12.0278Z" fill="black"/>
<path d="M71.8352 19.2175C71.6625 19.804 71.2882 20.3112 70.7779 20.6506C70.2675 20.99 69.6536 21.1398 69.0436 21.0739C68.6191 21.0851 68.1973 21.0041 67.8074 20.8366C67.4176 20.6691 67.0689 20.4192 66.7858 20.104C66.5026 19.7889 66.2917 19.4162 66.1677 19.0117C66.0436 18.6073 66.0095 18.1808 66.0675 17.7619C66.011 17.3417 66.0458 16.9143 66.1695 16.5086C66.2933 16.103 66.5031 15.7285 66.7847 15.4106C67.0664 15.0928 67.4134 14.8389 67.8021 14.6661C68.1909 14.4934 68.6123 14.4059 69.038 14.4095C70.8306 14.4095 71.9121 15.6293 71.9121 17.6443V18.0861H67.3627V18.1571C67.3428 18.3925 67.3725 18.6296 67.4499 18.8529C67.5274 19.0763 67.6508 19.2811 67.8124 19.4542C67.9739 19.6272 68.17 19.7648 68.388 19.858C68.6061 19.9512 68.8412 19.9979 69.0785 19.9953C69.3826 20.0317 69.6907 19.9771 69.9637 19.8386C70.2366 19.7001 70.462 19.4839 70.6112 19.2174L71.8352 19.2175ZM67.3627 17.1496H70.6168C70.6328 16.9342 70.6034 16.7179 70.5305 16.5146C70.4576 16.3112 70.3428 16.1252 70.1935 15.9687C70.0441 15.8122 69.8635 15.6885 69.6633 15.6056C69.4631 15.5227 69.2477 15.4824 69.031 15.4873C68.8111 15.4846 68.5928 15.5257 68.3891 15.6083C68.1854 15.6908 68.0004 15.8132 67.8449 15.9681C67.6894 16.123 67.5667 16.3074 67.4838 16.5103C67.401 16.7132 67.3598 16.9306 67.3627 17.1496ZM68.2737 13.4605L69.7589 11.4336H71.2498L69.5871 13.4605H68.2737Z" fill="black"/>
<path d="M77.8371 16.6306C77.756 16.2978 77.558 16.005 77.2789 15.8051C76.9998 15.6052 76.658 15.5115 76.3155 15.5409C75.2509 15.5409 74.5998 16.3536 74.5998 17.7209C74.5998 19.1118 75.2565 19.9426 76.3155 19.9426C76.6547 19.9817 76.9965 19.8961 77.2767 19.7018C77.5569 19.5076 77.7562 19.2181 77.8371 18.8877H79.0736C78.9919 19.5375 78.6585 20.1297 78.1445 20.5381C77.6306 20.9465 76.9768 21.1388 76.3225 21.074C75.8918 21.0875 75.4632 21.0071 75.0669 20.8385C74.6705 20.6699 74.3159 20.417 74.028 20.0977C73.74 19.7783 73.5255 19.4001 73.3996 18.9896C73.2737 18.579 73.2393 18.1461 73.299 17.7209C73.2423 17.2989 73.2789 16.8697 73.406 16.4632C73.5331 16.0567 73.7478 15.6828 74.0351 15.3674C74.3223 15.0521 74.6752 14.8031 75.0691 14.6376C75.463 14.4722 75.8883 14.3944 76.3155 14.4096C76.9752 14.3491 77.6324 14.5473 78.1475 14.9621C78.6627 15.3769 78.9949 15.9755 79.0736 16.6306L77.8371 16.6306Z" fill="black"/>
<path d="M80.7618 12.0278H82.0221V15.5639H82.1227C82.2917 15.1944 82.571 14.8857 82.9225 14.68C83.2741 14.4743 83.6807 14.3816 84.0871 14.4144C84.3989 14.3975 84.7107 14.4494 85.0001 14.5663C85.2895 14.6832 85.5494 14.8623 85.7614 15.0908C85.9733 15.3193 86.132 15.5915 86.2261 15.8881C86.3202 16.1847 86.3474 16.4983 86.3059 16.8066V20.9494H85.033V17.119C85.033 16.0941 84.5537 15.575 83.6553 15.575C83.4368 15.5572 83.217 15.5871 83.0113 15.6627C82.8056 15.7383 82.6189 15.8577 82.4644 16.0127C82.3099 16.1676 82.1913 16.3543 82.1168 16.5597C82.0423 16.7651 82.0138 16.9843 82.0332 17.2018V20.9494H80.7617L80.7618 12.0278Z" fill="black"/>
<path d="M87.9043 19.136C87.9043 17.981 88.7678 17.3151 90.3005 17.2205L92.0456 17.1203V16.5664C92.0456 15.8887 91.5957 15.506 90.7267 15.506C90.0169 15.506 89.5251 15.7656 89.3839 16.2192H88.153C88.2829 15.1171 89.3239 14.4102 90.7853 14.4102C92.4005 14.4102 93.3108 15.211 93.3108 16.5664V20.9507H92.0875V20.0489H91.987C91.7828 20.3724 91.4961 20.6361 91.1561 20.8131C90.8161 20.9901 90.4351 21.074 90.0518 21.0564C89.7814 21.0844 89.508 21.0557 89.2494 20.972C88.9908 20.8884 88.7526 20.7517 88.5503 20.5708C88.3479 20.3898 88.1859 20.1687 88.0747 19.9216C87.9634 19.6745 87.9054 19.4069 87.9043 19.136ZM92.0456 18.5877V18.0513L90.4724 18.1515C89.5851 18.2106 89.1827 18.5112 89.1827 19.0769C89.1827 19.6544 89.6857 19.9905 90.3774 19.9905C90.5801 20.0109 90.7848 19.9905 90.9794 19.9305C91.174 19.8706 91.3545 19.7722 91.5101 19.6413C91.6657 19.5105 91.7934 19.3498 91.8854 19.1687C91.9774 18.9877 92.0319 18.7902 92.0456 18.5877L92.0456 18.5877Z" fill="black"/>
<path d="M95.3018 14.5332H96.5257V15.5171H96.6207C96.7578 15.1756 96.9999 14.8861 97.3124 14.6902C97.625 14.4943 97.9918 14.4021 98.3602 14.4268C98.5507 14.4242 98.7409 14.442 98.9275 14.4797V15.7294C98.6942 15.6797 98.4563 15.6541 98.2177 15.6529C98.008 15.6341 97.7967 15.6592 97.5973 15.7267C97.398 15.7941 97.215 15.9023 97.0601 16.0444C96.9052 16.1865 96.7819 16.3592 96.698 16.5516C96.6142 16.7439 96.5717 16.9516 96.5732 17.1613V20.95H95.3018L95.3018 14.5332Z" fill="black"/>
<path d="M100.097 21.5925H101.398C101.505 22.058 102.043 22.3586 102.901 22.3586C103.96 22.3586 104.588 21.8576 104.588 21.0094V19.7778H104.493C104.293 20.1226 104.002 20.4057 103.651 20.5959C103.3 20.7861 102.903 20.876 102.504 20.8556C100.86 20.8556 99.8428 19.5893 99.8428 17.6682C99.8428 15.7116 100.871 14.4271 102.517 14.4271C102.926 14.4129 103.331 14.511 103.688 14.7105C104.045 14.91 104.339 15.2034 104.54 15.5585H104.641V14.5336H105.859V21.0031C105.859 22.4705 104.705 23.4015 102.883 23.4015C101.274 23.4016 100.233 22.6828 100.097 21.5925ZM104.611 17.6619C104.611 16.3837 103.948 15.5648 102.865 15.5648C101.771 15.5648 101.156 16.3837 101.156 17.6619C101.156 18.9408 101.771 19.7598 102.865 19.7598C103.955 19.7598 104.611 18.9471 104.611 17.6619V17.6619Z" fill="black"/>
<path d="M113.333 19.2173C113.161 19.8037 112.786 20.311 112.276 20.6504C111.766 20.9897 111.152 21.1396 110.542 21.0737C110.117 21.0848 109.695 21.0039 109.305 20.8364C108.916 20.6689 108.567 20.4189 108.284 20.1038C108.001 19.7887 107.79 19.416 107.666 19.0115C107.542 18.6071 107.508 18.1806 107.566 17.7617C107.509 17.3414 107.544 16.914 107.668 16.5084C107.791 16.1027 108.001 15.7283 108.283 15.4104C108.564 15.0925 108.911 14.8386 109.3 14.6659C109.689 14.4932 110.11 14.4057 110.536 14.4093C112.329 14.4093 113.41 15.6291 113.41 17.644V18.0859H108.861V18.1568C108.841 18.3923 108.871 18.6293 108.948 18.8527C109.025 19.0761 109.149 19.2809 109.31 19.4539C109.472 19.627 109.668 19.7645 109.886 19.8577C110.104 19.9509 110.339 19.9977 110.577 19.9951C110.881 20.0315 111.189 19.9769 111.462 19.8384C111.735 19.6999 111.96 19.4836 112.109 19.2172L113.333 19.2173ZM108.861 17.1494H112.115C112.131 16.934 112.101 16.7177 112.029 16.5143C111.956 16.3109 111.841 16.125 111.692 15.9685C111.542 15.8119 111.362 15.6882 111.161 15.6053C110.961 15.5224 110.746 15.4822 110.529 15.4871C110.309 15.4844 110.091 15.5255 109.887 15.608C109.683 15.6906 109.498 15.813 109.343 15.9679C109.188 16.1228 109.065 16.3071 108.982 16.5101C108.899 16.713 108.858 16.9303 108.861 17.1494H108.861Z" fill="black"/>
<path d="M115.117 14.5332H116.341V15.5171H116.436C116.573 15.1756 116.815 14.8861 117.128 14.6902C117.44 14.4943 117.807 14.4021 118.176 14.4268C118.366 14.4242 118.556 14.442 118.743 14.4797V15.7294C118.51 15.6797 118.272 15.6541 118.033 15.6529C117.824 15.6341 117.612 15.6592 117.413 15.7266C117.213 15.7941 117.03 15.9023 116.876 16.0444C116.721 16.1864 116.597 16.3592 116.513 16.5516C116.43 16.7439 116.387 16.9516 116.389 17.1613V20.95H115.117V14.5332Z" fill="black"/>
<path d="M123.324 17.7383C123.324 15.7107 124.371 14.4262 125.998 14.4262C126.401 14.4078 126.801 14.5038 127.151 14.7032C127.5 14.9025 127.786 15.1969 127.974 15.552H128.069V12.0278H129.341V20.9494H128.122V19.9356H128.022C127.819 20.2883 127.523 20.579 127.167 20.7764C126.81 20.9737 126.406 21.0701 125.998 21.0551C124.36 21.0551 123.324 19.7707 123.324 17.7383ZM124.638 17.7383C124.638 19.0993 125.282 19.9182 126.359 19.9182C127.431 19.9182 128.093 19.0874 128.093 17.7438C128.093 16.4065 127.424 15.5639 126.359 15.5639C125.289 15.5639 124.638 16.3884 124.638 17.7383H124.638Z" fill="black"/>
<path d="M131.06 19.136C131.06 17.981 131.923 17.3151 133.456 17.2205L135.201 17.1203V16.5664C135.201 15.8887 134.751 15.506 133.882 15.506C133.172 15.506 132.68 15.7656 132.539 16.2192H131.308C131.438 15.1171 132.479 14.4102 133.941 14.4102C135.556 14.4102 136.467 15.211 136.467 16.5664V20.9507H135.243V20.0489H135.142C134.938 20.3724 134.651 20.6361 134.311 20.8131C133.971 20.9901 133.59 21.074 133.207 21.0564C132.937 21.0844 132.663 21.0557 132.405 20.972C132.146 20.8884 131.908 20.7517 131.706 20.5708C131.503 20.3898 131.341 20.1687 131.23 19.9216C131.119 19.6744 131.061 19.4068 131.06 19.136ZM135.201 18.5877V18.0513L133.628 18.1515C132.74 18.2106 132.338 18.5112 132.338 19.0769C132.338 19.6544 132.841 19.9905 133.533 19.9905C133.735 20.0109 133.94 19.9905 134.135 19.9305C134.329 19.8705 134.51 19.7722 134.665 19.6413C134.821 19.5104 134.949 19.3497 135.041 19.1687C135.133 18.9877 135.187 18.7901 135.201 18.5877V18.5877Z" fill="black"/>
<path d="M138.457 14.5335H139.681V15.5528H139.776C139.937 15.1867 140.209 14.8798 140.554 14.6749C140.898 14.47 141.299 14.3772 141.699 14.4096C142.012 14.3862 142.327 14.4332 142.62 14.5474C142.912 14.6615 143.175 14.8398 143.39 15.069C143.604 15.2982 143.763 15.5724 143.857 15.8714C143.95 16.1704 143.975 16.4865 143.929 16.7962V20.9501H142.657V17.1142C142.657 16.0831 142.207 15.5702 141.267 15.5702C141.054 15.5604 140.842 15.5964 140.644 15.676C140.446 15.7556 140.269 15.8767 140.122 16.0312C139.976 16.1856 139.865 16.3697 139.797 16.5708C139.729 16.7719 139.706 16.9853 139.728 17.1963V20.9502H138.457V14.5335Z" fill="black"/>
<path d="M148.251 14.4102C149.7 14.4102 150.647 15.0816 150.771 16.213H149.552C149.434 15.7419 148.972 15.4413 148.251 15.4413C147.541 15.4413 147.002 15.7767 147.002 16.2777C147.002 16.661 147.327 16.9025 148.026 17.0619L149.096 17.3089C150.321 17.5921 150.896 18.1167 150.896 19.0595C150.896 20.2674 149.765 21.0745 148.227 21.0745C146.694 21.0745 145.695 20.385 145.582 19.2481H146.855C146.965 19.5187 147.162 19.7447 147.416 19.8899C147.671 20.0352 147.966 20.0912 148.256 20.0489C149.049 20.0489 149.612 19.6955 149.612 19.1826C149.612 18.8 149.31 18.5522 148.664 18.3992L147.541 18.1396C146.316 17.8509 145.748 17.3033 145.748 16.3486C145.748 15.211 146.795 14.4102 148.251 14.4102Z" fill="black"/>
<path d="M50.3594 25.7461H53.0197V43.4424H50.3594V25.7461Z" fill="black"/>
<path d="M56.2246 32.2212L57.6777 25.7461H60.2626L58.5021 32.2212H56.2246Z" fill="black"/>
<path d="M70.3159 38.6595H63.5437L61.9173 43.4424H59.0488L65.4634 25.7461H68.4437L74.8583 43.4424H71.9409L70.3159 38.6595ZM64.2451 36.4524H69.6132L66.9669 28.6893H66.8928L64.2451 36.4524Z" fill="black"/>
<path d="M88.7097 36.9919C88.7097 41.0011 86.5552 43.577 83.3039 43.577C82.4803 43.6199 81.6612 43.4309 80.9404 43.0317C80.2196 42.6325 79.6262 42.0392 79.2282 41.3198H79.1667V47.71H76.5078V30.5397H79.0815V32.6856H79.1304C79.5467 31.9696 80.15 31.3793 80.8763 30.9777C81.6026 30.5761 82.4247 30.3781 83.2549 30.4047C86.5426 30.4048 88.7097 32.9931 88.7097 36.9919ZM85.9768 36.9919C85.9768 34.3792 84.6215 32.6619 82.5536 32.6619C80.522 32.6619 79.1556 34.4154 79.1556 36.9919C79.1556 39.5914 80.522 41.3323 82.5536 41.3323C84.6215 41.3323 85.9768 39.6276 85.9768 36.9919Z" fill="black"/>
<path d="M102.967 36.9919C102.967 41.0011 100.812 43.577 97.561 43.577C96.7374 43.6199 95.9183 43.4309 95.1975 43.0317C94.4767 42.6325 93.8833 42.0392 93.4853 41.3198H93.4238V47.71H90.7656V30.5397H93.3386V32.6856H93.3875C93.8038 31.9696 94.4072 31.3793 95.1335 30.9777C95.8598 30.5761 96.6818 30.3781 97.5121 30.4047C100.8 30.4048 102.967 32.9931 102.967 36.9919ZM100.234 36.9919C100.234 34.3792 98.8785 32.6619 96.8107 32.6619C94.7791 32.6619 93.4126 34.4154 93.4126 36.9919C93.4126 39.5914 94.7791 41.3323 96.8107 41.3323C98.8785 41.3323 100.234 39.6276 100.234 36.9919Z" fill="black"/>
<path d="M112.39 38.5121C112.587 40.2669 114.298 41.4191 116.637 41.4191C118.878 41.4191 120.491 40.2668 120.491 38.6846C120.491 37.311 119.518 36.4886 117.216 35.925L114.913 35.3719C111.651 34.587 110.136 33.0674 110.136 30.6015C110.136 27.5483 112.807 25.4512 116.601 25.4512C120.355 25.4512 122.929 27.5483 123.015 30.6015H120.331C120.171 28.8355 118.705 27.7696 116.563 27.7696C114.421 27.7696 112.956 28.8481 112.956 30.4178C112.956 31.6689 113.892 32.405 116.182 32.9686L118.139 33.4473C121.785 34.3059 123.299 35.765 123.299 38.3534C123.299 41.664 120.651 43.7375 116.44 43.7375C112.5 43.7375 109.84 41.7127 109.668 38.512L112.39 38.5121Z" fill="black"/>
<path d="M129.038 27.4873V30.5405H131.502V32.6376H129.038V39.7508C129.038 40.8557 129.532 41.3706 130.614 41.3706C130.907 41.3655 131.199 41.3451 131.489 41.3094V43.394C131.002 43.4846 130.507 43.5256 130.012 43.5164C127.39 43.5164 126.367 42.5353 126.367 40.0332V32.6376H124.483V30.5405H126.367V27.4873H129.038Z" fill="black"/>
<path d="M132.927 36.9926C132.927 32.9326 135.327 30.3818 139.07 30.3818C142.826 30.3818 145.215 32.9326 145.215 36.9926C145.215 41.0631 142.839 43.6027 139.07 43.6027C135.303 43.6027 132.927 41.0631 132.927 36.9926ZM142.506 36.9926C142.506 34.2073 141.225 32.5639 139.07 32.5639C136.916 32.5639 135.636 34.2199 135.636 36.9926C135.636 39.7884 136.916 41.4193 139.07 41.4193C141.225 41.4193 142.506 39.7883 142.506 36.9926H142.506Z" fill="black"/>
<path d="M147.407 30.5401H149.943V32.736H150.005C150.176 32.0502 150.58 31.4441 151.147 31.0196C151.715 30.5951 152.411 30.3781 153.12 30.4051C153.427 30.404 153.732 30.4372 154.031 30.5039V32.9809C153.645 32.8632 153.241 32.8091 152.837 32.8209C152.45 32.8053 152.065 32.8732 151.708 33.0198C151.35 33.1665 151.029 33.3885 150.766 33.6705C150.502 33.9526 150.304 34.2881 150.183 34.6539C150.062 35.0197 150.022 35.4072 150.066 35.7898V43.4423H147.407L147.407 30.5401Z" fill="black"/>
<path d="M166.289 39.6534C165.932 41.9954 163.642 43.6027 160.712 43.6027C156.943 43.6027 154.604 41.0881 154.604 37.0539C154.604 33.0064 156.956 30.3818 160.6 30.3818C164.184 30.3818 166.437 32.8338 166.437 36.7463V37.6537H157.289V37.8137C157.246 38.2885 157.306 38.7668 157.464 39.2169C157.621 39.667 157.873 40.0785 158.203 40.4241C158.532 40.7697 158.932 41.0416 159.375 41.2216C159.818 41.4015 160.295 41.4856 160.773 41.468C161.402 41.5267 162.032 41.3817 162.571 41.0548C163.11 40.7278 163.529 40.2363 163.765 39.6534L166.289 39.6534ZM157.301 35.8028H163.777C163.801 35.3758 163.736 34.9485 163.586 34.5477C163.437 34.1469 163.205 33.7813 162.907 33.4738C162.609 33.1662 162.25 32.9234 161.853 32.7606C161.456 32.5978 161.029 32.5185 160.6 32.5277C160.167 32.5251 159.738 32.608 159.337 32.7716C158.936 32.9351 158.572 33.1761 158.265 33.4806C157.959 33.7851 157.716 34.1471 157.55 34.5456C157.385 34.9442 157.3 35.3715 157.301 35.8028Z" fill="black"/>
</g>
<defs>
<clipPath id="clip0_2528_3360">
<rect width="181" height="57" fill="white"/>
</clipPath>
</defs>
</svg>
