<svg width="24" height="24" viewBox="0 0 24 24" fill="none" xmlns="http://www.w3.org/2000/svg">
<path d="M20.3923 7.7959C20.392 7.7959 20.3917 7.7959 20.3915 7.7959H0.343621C0.154068 7.7957 0.000200675 7.94823 1.96196e-07 8.13662C1.96196e-07 8.13687 1.96196e-07 8.13717 1.96196e-07 8.13742V17.7015C-0.000200282 17.8899 0.153266 18.0429 0.342819 18.0431C0.343069 18.0431 0.34337 18.0431 0.343621 18.0431H13.9762C14.1659 18.0431 14.3198 17.8901 14.3198 17.7015C14.3198 17.5129 14.1659 17.36 13.9762 17.36H0.687241V8.47894H20.0479V9.33293C20.0477 9.52133 20.2011 9.67425 20.3907 9.67445C20.3909 9.67445 20.3912 9.67445 20.3915 9.67445C20.581 9.67465 20.7349 9.52212 20.7351 9.33373C20.7351 9.33348 20.7351 9.33318 20.7351 9.33293V8.13742C20.7353 7.94902 20.5818 7.79615 20.3923 7.7959Z" fill="#54514C" fill-opacity="0.75"/>
<path d="M18.0612 6.21004L2.02292 2.6235C1.9339 2.60372 1.84063 2.61976 1.7635 2.66813C1.68646 2.7169 1.63198 2.79396 1.61194 2.88253L0.810021 6.46907C0.768822 6.65328 0.885702 6.8358 1.07104 6.87674C1.25639 6.91769 1.44003 6.80152 1.48122 6.61732L2.20816 3.36512L17.9104 6.87634C17.9353 6.88207 17.9607 6.88491 17.9862 6.88471C18.176 6.88436 18.3296 6.73119 18.3293 6.5426C18.3289 6.38314 18.2177 6.24516 18.0612 6.21004Z" fill="#54514C" fill-opacity="0.75"/>
<path d="M16.1138 4.23415L6.49083 0.249104C6.32358 0.179814 6.13087 0.250997 6.04978 0.412092L5.24786 2.00611C5.1573 2.17259 5.21964 2.38056 5.38719 2.47057C5.55469 2.56058 5.76394 2.49862 5.85451 2.33209C5.85807 2.32556 5.86143 2.31889 5.86453 2.31211V2.31291L6.52251 1.00422L15.8484 4.86613C16.024 4.93896 16.2258 4.85657 16.299 4.68202C16.3723 4.50758 16.2894 4.30703 16.1138 4.23415Z" fill="#54514C" fill-opacity="0.75"/>
<path d="M16.3568 9.38965H13.1744C12.9847 9.38965 12.8308 9.54257 12.8308 9.73117C12.8308 9.91976 12.9847 10.0727 13.1744 10.0727H16.3568C16.5466 10.0727 16.7005 9.91976 16.7005 9.73117C16.7005 9.54257 16.5466 9.38965 16.3568 9.38965Z" fill="#54514C" fill-opacity="0.75"/>
<path d="M9.96666 9.41309C8.01795 9.41309 6.43823 10.9831 6.43823 12.9199C6.44024 14.8559 8.01881 16.4248 9.96666 16.4268C11.9154 16.4268 13.4951 14.8567 13.4951 12.9199C13.4951 10.9831 11.9154 9.41309 9.96666 9.41309ZM9.96666 15.7892C8.37225 15.7892 7.07976 14.5046 7.07976 12.9199C7.08152 11.336 8.373 10.0524 9.96666 10.0507C11.5611 10.0507 12.8536 11.3353 12.8536 12.9199C12.8536 14.5046 11.5611 15.7892 9.96666 15.7892Z" fill="#54514C" fill-opacity="0.75"/>
<path d="M19.5895 10.5283C17.4644 10.5283 15.179 11.0272 15.179 12.1223V21.6865C15.179 22.7816 17.4644 23.2805 19.5895 23.2805C21.7146 23.2805 24 22.7816 24 21.6865V12.1223C24 11.0272 21.7146 10.5283 19.5895 10.5283ZM23.1981 21.6805C23.1376 21.9017 21.9351 22.4835 19.5895 22.4835C17.2439 22.4835 16.0414 21.9017 15.9809 21.6865V21.06C16.8341 21.4872 18.2435 21.6865 19.5895 21.6865C20.9355 21.6865 22.3453 21.4852 23.1981 21.0596V21.6805ZM23.1981 20.0865C23.1376 20.3076 21.9351 20.8895 19.5895 20.8895C17.2439 20.8895 16.0414 20.3076 15.9809 20.0924V19.466C16.8341 19.8932 18.2435 20.0924 19.5895 20.0924C20.9355 20.0924 22.3453 19.8912 23.1981 19.4656V20.0865ZM23.1981 18.4924C23.1376 18.7136 21.9351 19.2954 19.5895 19.2954C17.2439 19.2954 16.0414 18.7136 15.9809 18.4984V17.872C16.8341 18.2992 18.2435 18.4984 19.5895 18.4984C20.9355 18.4984 22.3453 18.2972 23.1981 17.8716V18.4924ZM23.1981 16.8984C23.1376 17.1196 21.9351 17.7014 19.5895 17.7014C17.2439 17.7014 16.0414 17.1196 15.9809 16.9044V16.278C16.8341 16.7051 18.2435 16.9044 19.5895 16.9044C20.9355 16.9044 22.3453 16.7032 23.1981 16.2776V16.8984ZM23.1981 15.3044C23.1376 15.5256 21.9351 16.1074 19.5895 16.1074C17.2439 16.1074 16.0414 15.5256 15.9809 15.3104V14.6839C16.8341 15.1091 18.2435 15.3104 19.5895 15.3104C20.9355 15.3104 22.3453 15.1091 23.1981 14.6835V15.3044ZM23.1981 13.7104C23.1376 13.9316 21.9351 14.5134 19.5895 14.5134C17.2439 14.5134 16.0414 13.9316 15.9809 13.7164V13.0899C16.8341 13.5151 18.2435 13.7164 19.5895 13.7164C20.9355 13.7164 22.3453 13.5151 23.1981 13.0895V13.7104ZM19.5895 12.9193C17.2475 12.9193 16.0454 12.3391 15.9809 12.1295V12.1271C16.0454 11.9052 17.2475 11.3253 19.5895 11.3253C21.915 11.3253 23.1179 11.8968 23.1981 12.1223C23.1179 12.3479 21.915 12.9193 19.5895 12.9193Z" fill="#54514C" fill-opacity="0.75"/>
<path d="M6.75927 15.7653H3.72843L2.2914 14.2032V11.6129L3.87839 10.0727H6.75927C6.94902 10.0727 7.10289 9.91976 7.10289 9.73117C7.10289 9.54258 6.94902 9.38965 6.75927 9.38965H3.73886C3.64904 9.38945 3.56269 9.42422 3.49828 9.48649L1.70721 11.2228C1.6403 11.3005 1.60361 11.3995 1.60376 11.5017V14.3359C1.60376 14.4211 1.63579 14.5033 1.69357 14.5662L3.32266 16.3372C3.38777 16.408 3.47989 16.4484 3.57647 16.4484H6.75927C6.94902 16.4484 7.10289 16.2954 7.10289 16.1068C7.10289 15.9183 6.94907 15.7653 6.75927 15.7653Z" fill="#54514C" fill-opacity="0.75"/>
<path d="M10.1673 12.5207H9.76631C9.64161 12.5207 9.56583 12.4514 9.56583 12.4211C9.56583 12.3908 9.64161 12.3215 9.76631 12.3215H10.7687C10.9901 12.3215 11.1697 12.1431 11.1697 11.923C11.1697 11.7029 10.9901 11.5245 10.7687 11.5245H10.3677C10.3677 11.3044 10.1882 11.126 9.96679 11.126C9.74536 11.126 9.56583 11.3044 9.56583 11.5245V11.5424C9.12112 11.6048 8.78421 11.9732 8.76392 12.4191C8.79263 12.9416 9.2404 13.3431 9.76631 13.3178H10.1673C10.292 13.3178 10.3677 13.3871 10.3677 13.4174C10.3677 13.4477 10.292 13.517 10.1673 13.517H9.16487C8.94344 13.517 8.76392 13.6954 8.76392 13.9155C8.76392 14.1356 8.94344 14.314 9.16487 14.314H9.56583C9.56583 14.5341 9.74536 14.7125 9.96679 14.7125C10.1882 14.7125 10.3677 14.5341 10.3677 14.314V14.2961C10.8125 14.2337 11.1494 13.8653 11.1697 13.4194C11.1409 12.8969 10.6932 12.4954 10.1673 12.5207Z" fill="#54514C" fill-opacity="0.75"/>
</svg>
