<svg width="25" height="26" viewBox="0 0 25 26" fill="none" xmlns="http://www.w3.org/2000/svg">
<path d="M5.09766 22.3742C5.09766 22.3742 9.3659 20.7139 9.41606 19.6227C9.4663 18.5316 9.51654 18.4367 9.41606 18.2944C9.31566 18.1521 8.16078 16.3495 8.0603 15.6379C8.0603 15.6379 6.95558 13.8351 7.8595 11.9376C7.8595 11.9376 7.65862 9.1861 8.11054 8.37962C8.56246 7.57322 9.86806 5.96026 12.8809 6.10258C15.8937 6.2449 16.9482 7.62066 17.0989 8.00018C17.2495 8.37962 17.5005 8.90146 17.5005 10.1349C17.4503 11.3683 17.2997 11.8427 17.6009 12.0799C17.9023 12.2697 18.4044 15.0211 17.0486 15.7327C17.0486 15.7327 16.195 17.7251 15.5422 18.3419C15.5422 18.3419 15.1405 19.9548 16.0945 20.4767C17.0486 20.9985 20.2121 22.5639 20.2121 22.5639" stroke="#F9357C" stroke-width="1.5" stroke-miterlimit="10"/>
<path d="M12.6 25C19.0065 25 24.2 19.6274 24.2 13C24.2 6.37256 19.0065 1 12.6 1C6.19352 1 1 6.37256 1 13C1 19.6274 6.19352 25 12.6 25Z" stroke="#F9357C" stroke-width="1.5" stroke-miterlimit="10"/>
</svg>
