<svg width="24" height="26" viewBox="0 0 24 26" fill="none" xmlns="http://www.w3.org/2000/svg">
<path d="M21.5362 22.6293V23.3793H22.2862H22.7949C23.0013 23.3793 23.25 23.5726 23.25 23.915C23.25 24.2572 23.0014 24.4505 22.7949 24.4506C22.7949 24.4506 22.7948 24.4506 22.7948 24.4506H1.20542C0.998431 24.4506 0.75 24.2572 0.75 23.915C0.75 23.5727 0.99851 23.3794 1.20542 23.3794H1.71422H2.46422V22.6294V10.8526C2.80205 10.7777 3.12346 10.6539 3.4214 10.4908C3.72089 10.6556 4.04829 10.7815 4.40054 10.8563L4.40153 10.8565C4.5259 10.8828 4.65064 10.9024 4.7754 10.9155V12.6031V13.3531H5.5254H11.1426H11.8926V12.6031V10.9325C11.928 10.9337 11.9636 10.9344 11.9996 10.9344C12.0358 10.9344 12.0717 10.9337 12.1073 10.9324V12.6031V13.3531H12.8573H18.4745H19.2245V12.6031V10.9156C19.3494 10.9026 19.474 10.8829 19.5973 10.8566C19.9502 10.7819 20.2782 10.6557 20.5779 10.4908C20.8762 10.654 21.198 10.7778 21.5362 10.8526V22.6293ZM12.1073 18.3733V19.1233H12.8573H17.5113C18.5024 19.1233 19.2245 18.282 19.2245 17.3464V14.4313V14.4312V13.6812H18.4745H12.8573H12.1073V14.4312V18.3733ZM11.1427 19.1233H11.8927V18.3733V15.1814V14.4314V14.4313H11.1427V13.6814H5.52535H4.77535V14.4314V17.3465C4.77535 18.2823 5.49813 19.1233 6.48865 19.1233H11.1427Z" fill="white" stroke="#7F7C79" stroke-width="1.5"/>
<path d="M21.0126 8.98592C21.3347 9.37273 21.7973 9.6 22.2846 9.6C22.4469 9.6 22.6119 9.57477 22.7752 9.52179L21.0126 8.98592ZM21.0126 8.98592C21.1548 8.70972 21.2493 8.407 21.29 8.09235C21.2901 8.09225 21.2901 8.09214 21.2901 8.09204C21.2932 8.06805 21.296 8.044 21.2985 8.01989L20.5524 7.94322L19.8293 8.1424L19.9194 8.46928C19.9194 8.46938 19.9194 8.46949 19.9195 8.46959C19.9693 8.65077 20.0367 8.82302 20.1193 8.9844C19.9977 9.12966 19.8541 9.25481 19.6924 9.35371L21.0126 8.98592ZM23.2047 7.40396L21.7387 2.07561L21.7387 2.07553C21.512 1.25152 20.8389 0.75 20.1425 0.75H3.85761C3.16065 0.75 2.48762 1.25159 2.26097 2.07556L2.26097 2.07557L0.795259 7.40395C0.795256 7.40396 0.795252 7.40397 0.795249 7.40399C0.618468 8.04685 0.972476 8.6516 1.45577 8.80836C1.45578 8.80837 1.45578 8.80837 1.45579 8.80837L23.2047 7.40396ZM23.2047 7.40396C23.3815 8.04674 23.0277 8.6515 22.5439 8.80835L22.5439 8.80836C22.4555 8.83702 22.3686 8.85 22.2846 8.85C21.9106 8.85 21.5056 8.58032 21.3657 8.07156L21.3656 8.07124L21.2755 7.74404L19.8063 7.86656C19.7676 8.24351 19.5677 8.55031 19.3023 8.71316C19.1952 8.77801 19.1086 8.81381 19.0329 8.8302L19.031 8.8306C18.9701 8.84395 18.9117 8.85 18.8548 8.85C18.4514 8.85 18.0169 8.53232 17.913 7.96571L17.9129 7.96523L17.8711 7.73819L16.3852 7.82415C16.3583 8.22748 16.1468 8.55567 15.8736 8.72161C15.7625 8.78896 15.6429 8.83079 15.5161 8.84475L15.5161 8.84473L15.5109 8.84535C15.4874 8.8481 15.46 8.84968 15.4261 8.84968C14.9898 8.84968 14.5271 8.47624 14.4691 7.85465C14.4691 7.85421 14.4691 7.85377 14.469 7.85333L14.4571 7.71834L12.9602 7.76621C12.95 8.19584 12.7301 8.54 12.4424 8.71507L12.4421 8.71523C12.2937 8.80561 12.1458 8.84962 11.9994 8.84962C11.8543 8.84962 11.7061 8.80568 11.5575 8.71523L11.5571 8.71493C11.2694 8.53999 11.0498 8.1962 11.0399 7.76676L9.54319 7.71568L9.53057 7.85342L23.2047 7.40396ZM2.63406 8.07124L2.63396 8.0716L9.53054 7.85383C9.47302 8.47578 9.0099 8.84968 8.57351 8.84968C8.53985 8.84968 8.51218 8.84809 8.48898 8.84536L8.48899 8.84534L8.48343 8.84473C8.35601 8.83073 8.2368 8.78881 8.12711 8.72203L8.12624 8.72151C7.85311 8.55574 7.64146 8.22755 7.61401 7.82316L6.12812 7.73819L6.08633 7.96523L6.08615 7.96625C5.98286 8.53175 5.54843 8.85 5.14446 8.85C5.08749 8.85 5.02901 8.84391 4.96956 8.8308L4.96603 8.83004C4.89069 8.81382 4.80539 8.77863 4.69629 8.71297C4.43174 8.5501 4.23204 8.2433 4.19333 7.86656L2.72419 7.74404L2.63406 8.07124Z" fill="white" stroke="#7F7C79" stroke-width="1.5"/>
</svg>
