<svg width="24" height="18" viewBox="0 0 24 18" fill="none" xmlns="http://www.w3.org/2000/svg">
<path d="M24 2.22266V15.9227C24 17.0255 23.1028 17.9227 22 17.9227H2C0.8972 17.9227 0 17.0255 0 15.9227V9.92266C0 9.70176 0.1791 9.52266 0.4 9.52266C0.6209 9.52266 0.8 9.70176 0.8 9.92266V15.9227C0.8 16.5843 1.33835 17.1227 2 17.1227H22C22.6616 17.1227 23.2 16.5843 23.2 15.9227V2.22266C23.2 1.56101 22.6616 1.02266 22 1.02266H2C1.33835 1.02266 0.8 1.56101 0.8 2.22266V3.82266H21.3C21.5209 3.82266 21.7 4.00176 21.7 4.22266C21.7 4.44356 21.5209 4.62266 21.3 4.62266H0.8V7.22266H21.3C21.5209 7.22266 21.7 7.40176 21.7 7.62266C21.7 7.84356 21.5209 8.02266 21.3 8.02266H0.4C0.1791 8.02266 0 7.84356 0 7.62266V2.22266C0 1.11986 0.8972 0.222656 2 0.222656H22C23.1028 0.222656 24 1.11986 24 2.22266ZM20.8 12.6227C20.8 11.5958 19.6585 10.9731 18.7938 11.5318C19.6423 12.9218 18.6379 14.7227 17 14.7227C15.8421 14.7227 14.9 13.7806 14.9 12.6227C14.9 10.8993 16.8719 9.91216 18.25 10.9364C19.6343 9.91241 21.6 10.9025 21.6 12.6227C21.6 13.7806 20.6579 14.7227 19.5 14.7227C19.2791 14.7227 19.1 14.5436 19.1 14.3227C19.1 14.1018 19.2791 13.9227 19.5 13.9227C20.2169 13.9227 20.8 13.3395 20.8 12.6227ZM18.3 12.6227C18.3 11.9058 17.7169 11.3227 17 11.3227C16.2831 11.3227 15.7 11.9058 15.7 12.6227C15.7 13.3395 16.2831 13.9227 17 13.9227C17.7169 13.9227 18.3 13.3395 18.3 12.6227ZM3.65 11.7727H7C7.2209 11.7727 7.4 11.5936 7.4 11.3727C7.4 11.1518 7.2209 10.9727 7 10.9727H3.65C3.4291 10.9727 3.25 11.1518 3.25 11.3727C3.25 11.5936 3.4291 11.7727 3.65 11.7727ZM3.65 14.2727H7C7.2209 14.2727 7.4 14.0936 7.4 13.8727C7.4 13.6518 7.2209 13.4727 7 13.4727H3.65C3.4291 13.4727 3.25 13.6518 3.25 13.8727C3.25 14.0936 3.4291 14.2727 3.65 14.2727Z" fill="#54514C" fill-opacity="0.75"/>
</svg>
