<svg width="24" height="24" viewBox="0 0 24 24" fill="none" xmlns="http://www.w3.org/2000/svg">
<path d="M11.0126 11.319C10.8589 11.1697 10.6 11.1697 10.4208 11.319C10.1363 11.6203 9.69819 11.8194 9.26007 11.8194C8.82195 11.8194 8.40943 11.6452 8.09933 11.319C7.94571 11.1697 7.68682 11.1697 7.53319 11.319C7.37956 11.4683 7.37956 11.7198 7.53319 11.8691C7.99691 12.3197 8.63987 12.5962 9.31128 12.6211C9.95423 12.5962 10.5744 12.3446 10.9869 11.8691C11.0638 11.7945 11.115 11.695 11.115 11.5927C11.1406 11.4932 11.0894 11.3936 11.0126 11.319Z" fill="#7F7C79"/>
<path opacity="0.9" d="M11.0126 11.319C10.8589 11.1697 10.6 11.1697 10.4208 11.319C10.1363 11.6203 9.69819 11.8194 9.26007 11.8194C8.82195 11.8194 8.40943 11.6452 8.09933 11.319C7.94571 11.1697 7.68682 11.1697 7.53319 11.319C7.37956 11.4683 7.37956 11.7198 7.53319 11.8691C7.99691 12.3197 8.63987 12.5962 9.31128 12.6211C9.95423 12.5962 10.5744 12.3446 10.9869 11.8691C11.0638 11.7945 11.115 11.695 11.115 11.5927C11.1406 11.4932 11.0894 11.3936 11.0126 11.319Z" fill="#7F7C79"/>
<path d="M14.6999 12.6211C15.3429 12.5962 15.9631 12.3446 16.3756 11.8691C16.5292 11.7198 16.5292 11.4683 16.3756 11.319C16.222 11.1697 15.9631 11.1697 15.8095 11.319C15.525 11.6203 15.0869 11.8194 14.6487 11.8194C14.2106 11.8194 13.7981 11.6452 13.488 11.319C13.3344 11.1697 13.0755 11.1697 12.9219 11.319C12.7682 11.4683 12.7682 11.7198 12.9219 11.8691C13.3856 12.3446 14.0314 12.6211 14.6999 12.6211Z" fill="#7F7C79"/>
<path opacity="0.9" d="M14.7019 12.6211C15.3449 12.5962 15.9651 12.3446 16.3776 11.8691C16.5312 11.7198 16.5312 11.4683 16.3776 11.319C16.2239 11.1697 15.9651 11.1697 15.8114 11.319C15.5269 11.6203 15.0888 11.8194 14.6507 11.8194C14.2126 11.8194 13.8001 11.6452 13.49 11.319C13.3363 11.1697 13.0774 11.1697 12.9238 11.319C12.7702 11.4683 12.7702 11.7198 12.9238 11.8691C13.3875 12.3446 14.0333 12.6211 14.7019 12.6211Z" fill="#7F7C79"/>
<path d="M13.3303 14.9245C12.0159 16.2017 10.7527 15.0489 10.6247 14.9245C10.4711 14.7752 10.2122 14.7752 10.0586 14.9245C9.90495 15.0737 9.90495 15.3253 10.0586 15.4746C10.5991 15.975 11.2961 16.2763 12.0415 16.3012C12.7641 16.2763 13.4327 15.975 13.922 15.4746C14.0756 15.3253 14.0756 15.0737 13.922 14.9245C13.7428 14.7752 13.4839 14.7752 13.3303 14.9245Z" fill="#7F7C79"/>
<path opacity="0.9" d="M13.3283 14.9245C12.0139 16.2017 10.7508 15.0489 10.6228 14.9245C10.4691 14.7752 10.2103 14.7752 10.0566 14.9245C9.903 15.0737 9.903 15.3253 10.0566 15.4746C10.5972 15.975 11.2942 16.2763 12.0395 16.3012C12.7622 16.2763 13.4307 15.975 13.9201 15.4746C14.0737 15.3253 14.0737 15.0737 13.9201 14.9245C13.7408 14.7752 13.4819 14.7752 13.3283 14.9245Z" fill="#7F7C79"/>
<path d="M6.06547 6.78173C6.27031 6.85637 6.50359 6.75685 6.60601 6.55504C7.32862 4.60332 9.07826 3.19896 11.1664 2.85063C12.2219 2.65159 13.3058 2.62395 14.3869 2.80087C14.6202 2.82575 14.825 2.70135 14.8506 2.47466C14.9019 2.27562 14.7482 2.04893 14.5405 1.99917C14.4637 1.99917 7.99719 0.796623 5.83219 6.25648C5.72977 6.45828 5.83503 6.68221 6.06547 6.78173Z" fill="#7F7C79"/>
<path opacity="0.9" d="M6.06547 6.78173C6.27031 6.85637 6.50359 6.75685 6.60601 6.55504C7.32862 4.60332 9.07826 3.19896 11.1664 2.85063C12.2219 2.65159 13.3058 2.62395 14.3869 2.80087C14.6202 2.82575 14.825 2.70135 14.8506 2.47466C14.9019 2.27562 14.7482 2.04893 14.5405 1.99917C14.4637 1.99917 7.99719 0.796623 5.83219 6.25648C5.72977 6.45828 5.83503 6.68221 6.06547 6.78173Z" fill="#7F7C79"/>
<path d="M14.3844 3.60036C11.8069 4.00121 9.48831 5.35304 7.9179 7.35729C7.78988 7.53145 7.81549 7.78302 7.99472 7.90742C8.17395 8.03182 8.43284 8.00694 8.56086 7.83278C10.0288 6.00546 12.1426 4.77803 14.4869 4.40206C14.7201 4.37718 14.8738 4.17537 14.8482 3.95145C14.8226 3.72476 14.6177 3.57548 14.3844 3.60036Z" fill="#7F7C79"/>
<path opacity="0.9" d="M14.3864 3.60426C11.8089 4.00511 9.49026 5.35695 7.91986 7.36119C7.79184 7.53536 7.81744 7.78693 7.99667 7.91133C8.1759 8.03573 8.43479 8.01085 8.56281 7.83669C10.0308 6.00936 12.1446 4.78193 14.4888 4.40596C14.7221 4.38108 14.8757 4.17928 14.8501 3.95535C14.8245 3.72867 14.6197 3.57938 14.3864 3.60426Z" fill="#7F7C79"/>
<path d="M17.84 8.68998C17.9936 8.83926 18.2525 8.83926 18.4061 8.68998C18.5598 8.5407 18.5598 8.28913 18.4061 8.13985C17.7888 7.53996 17.0918 5.46107 16.8613 4.70913C16.8101 4.51009 16.5768 4.38292 16.3464 4.43268C16.1416 4.48244 16.0107 4.70913 16.0619 4.93305C16.1899 5.2095 16.9894 7.83852 17.84 8.68998Z" fill="#7F7C79"/>
<path opacity="0.9" d="M17.84 8.68998C17.9936 8.83926 18.2525 8.83926 18.4061 8.68998C18.5598 8.5407 18.5598 8.28913 18.4061 8.13985C17.7888 7.53996 17.0918 5.46107 16.8613 4.70913C16.8101 4.51009 16.5768 4.38292 16.3464 4.43268C16.1416 4.48244 16.0107 4.70913 16.0619 4.93305C16.1899 5.2095 16.9894 7.83852 17.84 8.68998Z" fill="#7F7C79"/>
<path d="M1.73456 23.9874C1.91379 23.9625 2.07026 23.8132 2.09587 23.6363C2.17268 23.0862 2.48278 22.6107 2.94651 22.2845C2.97211 22.2596 2.99771 22.2596 3.02332 22.2347C2.97211 22.4089 2.94651 22.6107 2.94651 22.7849V23.5866C2.94651 23.8132 3.12574 23.9874 3.35902 23.9874H20.6477C20.881 23.9874 21.0602 23.8132 21.0602 23.5866V22.7849C21.0602 22.5333 21.009 22.3094 20.9322 22.0827C21.0602 22.1324 21.2167 22.232 21.3191 22.3094C21.6804 22.6356 21.8853 23.0862 21.8853 23.5617C21.8853 23.7607 22.0133 23.9376 22.1954 23.9625C22.221 23.9625 22.2466 23.9625 22.2978 23.9625C22.4514 23.9625 22.6079 23.863 22.6847 23.711C25.0545 18.4529 23.7658 16.1999 22.3746 13.7948C21.5239 12.3185 20.6477 10.7898 20.6477 8.36256C20.6733 8.08611 20.8269 4.70791 18.5083 2.30281C16.9635 0.8017 14.7729 0 11.965 0C11.8113 0 8.17834 0.0248804 5.65204 2.50462C4.08163 4.03061 3.30781 6.15927 3.33342 8.81317C3.35902 12.595 2.27794 14.1956 1.32489 15.5972C0.087343 17.4245 -0.891315 18.8759 1.29929 23.7607C1.3761 23.9349 1.55533 24.0372 1.73456 23.9874ZM20.2096 22.8097V23.2106H3.74593V22.8097C3.74593 22.4338 3.92516 22.0827 4.23526 21.8588C4.87822 21.809 5.49841 21.8588 6.11577 22.008C7.3021 22.2596 8.17834 22.1076 8.77009 21.5326C8.97493 21.3335 9.157 21.1068 9.25942 20.8304C9.36184 20.6313 9.43865 20.4046 9.46426 20.1807C9.51547 19.9043 9.54107 19.6306 9.54107 19.3541C9.54107 19.003 9.51547 18.652 9.46426 18.3036C9.46426 18.2539 9.43865 18.2041 9.38744 18.1544C9.38744 18.1544 9.38744 18.1295 9.36184 18.1295C9.33623 18.1046 9.31063 18.0548 9.25942 18.0548C8.66767 17.6789 8.12429 17.2034 7.68902 16.6284C7.2509 16.0285 6.91519 15.376 6.68475 14.6766V14.6518C6.60794 14.4527 6.55673 14.2509 6.50552 14.027C6.50552 14.0021 6.50552 14.0021 6.47992 13.9772C6.42871 13.7505 6.3775 13.5266 6.32629 13.275V13.2502C6.24948 12.7498 6.19827 12.2245 6.17266 11.7242C6.17266 11.6495 6.17266 11.5998 6.17266 11.5251C7.43582 11.0994 12.1499 9.32183 14.11 6.89185C14.497 8.97074 15.7857 10.7981 17.6662 11.8734C17.6662 13.0262 17.4329 14.1763 16.9977 15.2544C16.5083 16.4072 15.6577 17.3831 14.5766 18.0576C14.551 18.0825 14.5254 18.1074 14.4998 18.1322C14.4742 18.1571 14.4742 18.1571 14.4486 18.182C14.4486 18.2069 14.423 18.2069 14.423 18.2318C14.3974 18.2566 14.3974 18.2815 14.3974 18.3064C14.3462 18.6575 14.3206 19.0086 14.3206 19.3569C14.3206 19.3818 14.3206 19.4315 14.3206 19.4564C14.3206 19.4813 14.3206 19.5062 14.3206 19.5311C14.3462 19.8573 14.3974 20.1558 14.4998 20.4572V20.482C14.5254 20.5567 14.551 20.6313 14.6022 20.7087V20.7336C14.6022 20.7585 14.6278 20.7834 14.6278 20.7834C14.6534 20.8083 14.6534 20.8331 14.679 20.858C14.7814 21.0571 14.9123 21.234 15.0915 21.3833C15.0915 21.3833 15.1171 21.3833 15.1171 21.4081C15.1428 21.433 15.1684 21.4579 15.194 21.4828C15.2452 21.5325 15.2964 21.5574 15.3476 21.6072C15.3476 21.6072 15.3732 21.6072 15.3732 21.6321C15.45 21.6818 15.5524 21.7316 15.6321 21.7814C15.6577 21.7814 15.6577 21.8062 15.6833 21.8062C15.7601 21.856 15.8625 21.8809 15.9678 21.9058C15.9934 21.9058 16.019 21.9306 16.0446 21.9306C16.147 21.9555 16.2238 21.9804 16.3291 22.0053C16.3547 22.0053 16.3803 22.0302 16.4059 22.0302C16.5083 22.055 16.5851 22.055 16.6904 22.055C16.716 22.055 16.7672 22.055 16.7928 22.055C16.8952 22.055 16.9977 22.055 17.1029 22.055C17.1541 22.055 17.1797 22.055 17.2309 22.055C17.3334 22.055 17.4642 22.0302 17.5666 22.0302C17.6178 22.0302 17.6435 22.0302 17.6947 22.0302C17.8483 22.0053 18.0048 21.9804 18.184 21.9555C18.3376 21.9306 18.5197 21.9058 18.6733 21.8809H18.7501C18.8782 21.856 19.009 21.856 19.137 21.8311H19.1883C19.3163 21.8311 19.4727 21.8311 19.6008 21.8311H19.6264C19.652 21.8311 19.6776 21.8311 19.6776 21.8311C20.0304 22.0827 20.2096 22.4338 20.2096 22.8097ZM2.01906 16.0478C2.97211 14.6213 4.18405 12.8189 4.15845 8.81317C4.13284 6.38319 4.82701 4.45635 6.24663 3.10451C8.53965 0.851461 11.9422 0.82658 11.9934 0.82658C14.5709 0.82658 16.5538 1.52876 17.8938 2.93035C20.0332 5.13364 19.8255 8.36256 19.8255 8.41232V8.4372C19.8255 11.0662 20.8042 12.7691 21.6548 14.2703C22.8668 16.3989 23.9478 18.2511 22.3774 22.3812C22.2494 22.1546 22.0673 21.9555 21.8625 21.7814C21.4756 21.4551 20.9863 21.2561 20.4969 21.1815C21.3732 20.2056 21.7345 18.8786 21.4756 17.5766C21.45 17.4273 21.3476 17.3001 21.2167 17.2504C21.0887 17.2006 20.9066 17.2255 20.8042 17.325C20.7018 17.4245 20.6249 17.5766 20.6762 17.701C20.935 18.8786 20.5225 20.1033 19.5951 20.905C19.5439 20.9548 19.4927 21.0045 19.4671 21.0792H19.3902C19.3134 21.0792 19.2622 21.0792 19.1854 21.0792C19.083 21.0792 18.9521 21.1041 18.8497 21.1041C18.7985 21.1041 18.7217 21.1289 18.6705 21.1289C18.4912 21.1538 18.3092 21.1787 18.1043 21.2285C17.9763 21.2533 17.8454 21.2782 17.7174 21.2782C17.6918 21.2782 17.6918 21.2782 17.6662 21.2782C17.5894 21.2782 17.5382 21.3031 17.4614 21.3031C18.1299 20.6258 18.5425 19.7495 18.5965 18.8234C18.5965 18.5967 18.4173 18.4225 18.184 18.4225C17.9507 18.4225 17.7715 18.5967 17.7715 18.8234C17.7715 19.9761 16.7416 20.9271 16.4059 21.2257C16.2011 21.1511 15.9934 21.0515 15.8398 20.8995C15.7373 20.7751 15.6349 20.6728 15.5553 20.5235C15.5297 20.4738 15.4785 20.3991 15.4529 20.3493C15.4529 20.3245 15.4272 20.3245 15.4272 20.2996C15.4016 20.2249 15.376 20.1254 15.3504 20.048C15.3504 20.0231 15.3504 19.9983 15.3248 19.9983C15.2736 19.7992 15.248 19.6223 15.248 19.4232C15.248 19.3984 15.248 19.3984 15.248 19.3735C15.248 19.2988 15.248 19.2242 15.248 19.1468C15.248 18.9726 15.2736 18.8206 15.2736 18.6464C16.0218 18.1958 18.5965 16.3187 18.5965 11.6357C18.5965 11.4864 18.5197 11.3593 18.3917 11.2846C18.3405 11.2597 18.2636 11.21 18.2124 11.1851C18.0588 11.1105 17.9023 11.0109 17.7743 10.9086C17.7231 10.8838 17.6975 10.8589 17.6719 10.834C17.5183 10.7345 17.3874 10.635 17.2594 10.5078C17.2338 10.4829 17.2082 10.458 17.1826 10.4332C17.0546 10.3088 16.8981 10.1816 16.7957 10.0821C16.7701 10.0572 16.7701 10.0572 16.7445 10.0323C16.6164 9.9079 16.4856 9.75586 16.3831 9.63145L16.3575 9.60657C15.4557 8.45379 14.9664 7.07707 14.9152 5.6506C14.9152 5.45156 14.7871 5.29951 14.5795 5.24975C14.3746 5.22487 14.1925 5.32439 14.1157 5.50132C14.0645 5.6506 13.9877 5.77777 13.9109 5.90217C13.9109 5.92705 13.8853 5.95193 13.8853 5.95193C13.2167 7.05496 11.7459 8.08058 10.1499 8.95692C8.80992 9.6591 7.44435 10.259 6.02757 10.7594C5.95076 10.7842 5.84834 10.8091 5.76868 10.834L5.66627 10.8091C5.48703 10.8589 5.38177 11.0082 5.38177 11.1851C5.38177 11.3344 5.38177 11.4864 5.40738 11.6606C5.40738 11.6855 5.40738 11.7103 5.40738 11.7601C5.40738 11.8099 5.40738 11.8845 5.40738 11.9343C5.40738 12.0587 5.43298 12.1858 5.43298 12.3102C5.43298 12.4595 5.45858 12.5867 5.48419 12.736C5.50979 12.8604 5.50979 12.9875 5.5354 13.1119C5.561 13.2363 5.58661 13.3386 5.58661 13.463C5.61221 13.5874 5.63782 13.7146 5.66342 13.839C5.68902 13.9385 5.71463 14.0132 5.74023 14.1154C5.76584 14.2647 5.81705 14.3919 5.84265 14.5163C5.86826 14.5909 5.89386 14.6407 5.91946 14.7153C5.97067 14.8646 6.02188 15.0167 6.07309 15.1411C6.0987 15.1908 6.1243 15.2406 6.1243 15.2903C6.17551 15.4396 6.25232 15.5917 6.30353 15.741C6.32914 15.7907 6.35474 15.8405 6.38034 15.8902C6.45716 16.0395 6.50837 16.1667 6.58518 16.2911C6.61078 16.3409 6.66199 16.4155 6.6876 16.4653C6.73881 16.5648 6.81562 16.6643 6.86683 16.7666C6.89243 16.8163 6.91804 16.8661 6.94364 16.891C6.96925 16.9159 6.96925 16.9407 6.99485 16.9407C7.45858 17.5904 8.02472 18.1433 8.69612 18.5939C8.72173 18.8455 8.74733 19.0943 8.74733 19.3458V19.3707C8.74733 19.4205 8.74733 19.4454 8.74733 19.4951C8.74733 20.0204 8.5681 20.5207 8.20679 20.9216C8.05317 21.0709 7.84549 21.1732 7.64065 21.2229C7.38176 21.0239 6.19827 20.0204 6.19827 18.7929C6.19827 18.5663 6.01904 18.3921 5.78575 18.3921C5.55247 18.3921 5.37324 18.5663 5.37324 18.7929C5.42445 19.6942 5.81136 20.5705 6.45431 21.2229C6.4031 21.2229 6.35189 21.198 6.30069 21.198C6.09585 21.1483 5.88817 21.1234 5.68333 21.0985C5.29642 21.0488 4.90951 21.0239 4.5226 21.0239C4.497 20.9741 4.44579 20.9244 4.39458 20.8746C3.46713 20.0729 3.05461 18.8455 3.3135 17.6706C3.33911 17.4439 3.18548 17.2448 2.9778 17.22C2.74451 17.1951 2.53968 17.3195 2.51407 17.5462C2.25519 18.8482 2.61649 20.1752 3.51834 21.1759C3.13143 21.2755 2.77012 21.4275 2.43726 21.6514C2.12716 21.8781 1.84551 22.1518 1.66344 22.5029C0.164156 18.7791 0.963584 17.6015 2.01906 16.0478Z" fill="#7F7C79"/>
<g opacity="0.9">
<path opacity="0.9" d="M1.73456 23.9874C1.91379 23.9625 2.07026 23.8132 2.09587 23.6363C2.17268 23.0862 2.48278 22.6107 2.94651 22.2845C2.97211 22.2596 2.99771 22.2596 3.02332 22.2347C2.97211 22.4089 2.94651 22.6107 2.94651 22.7849V23.5866C2.94651 23.8132 3.12574 23.9874 3.35902 23.9874H20.6477C20.881 23.9874 21.0602 23.8132 21.0602 23.5866V22.7849C21.0602 22.5333 21.009 22.3094 20.9322 22.0827C21.0602 22.1324 21.2167 22.232 21.3191 22.3094C21.6804 22.6356 21.8853 23.0862 21.8853 23.5617C21.8853 23.7607 22.0133 23.9376 22.1954 23.9625C22.221 23.9625 22.2466 23.9625 22.2978 23.9625C22.4514 23.9625 22.6079 23.863 22.6847 23.711C25.0545 18.4529 23.7658 16.1999 22.3746 13.7948C21.5239 12.3185 20.6477 10.7898 20.6477 8.36256C20.6733 8.08611 20.8269 4.70791 18.5083 2.30281C16.9635 0.8017 14.7729 0 11.965 0C11.8113 0 8.17834 0.0248804 5.65204 2.50462C4.08163 4.03061 3.30781 6.15927 3.33342 8.81317C3.35902 12.595 2.27794 14.1956 1.32489 15.5972C0.087343 17.4245 -0.891315 18.8759 1.29929 23.7607C1.3761 23.9349 1.55533 24.0372 1.73456 23.9874ZM20.2096 22.8097V23.2106H3.74593V22.8097C3.74593 22.4338 3.92516 22.0827 4.23526 21.8588C4.87822 21.809 5.49841 21.8588 6.11577 22.008C7.3021 22.2596 8.17834 22.1076 8.77009 21.5326C8.97493 21.3335 9.157 21.1068 9.25942 20.8304C9.36184 20.6313 9.43865 20.4046 9.46426 20.1807C9.51547 19.9043 9.54107 19.6306 9.54107 19.3541C9.54107 19.003 9.51547 18.652 9.46426 18.3036C9.46426 18.2539 9.43865 18.2041 9.38744 18.1544C9.38744 18.1544 9.38744 18.1295 9.36184 18.1295C9.33623 18.1046 9.31063 18.0548 9.25942 18.0548C8.66767 17.6789 8.12429 17.2034 7.68902 16.6284C7.2509 16.0285 6.91519 15.376 6.68475 14.6766V14.6518C6.60794 14.4527 6.55673 14.2509 6.50552 14.027C6.50552 14.0021 6.50552 14.0021 6.47992 13.9772C6.42871 13.7505 6.3775 13.5266 6.32629 13.275V13.2502C6.24948 12.7498 6.19827 12.2245 6.17266 11.7242C6.17266 11.6495 6.17266 11.5998 6.17266 11.5251C7.43582 11.0994 12.1499 9.32183 14.11 6.89185C14.497 8.97074 15.7857 10.7981 17.6662 11.8734C17.6662 13.0262 17.4329 14.1763 16.9977 15.2544C16.5083 16.4072 15.6577 17.3831 14.5766 18.0576C14.551 18.0825 14.5254 18.1074 14.4998 18.1322C14.4742 18.1571 14.4742 18.1571 14.4486 18.182C14.4486 18.2069 14.423 18.2069 14.423 18.2318C14.3974 18.2566 14.3974 18.2815 14.3974 18.3064C14.3462 18.6575 14.3206 19.0086 14.3206 19.3569C14.3206 19.3818 14.3206 19.4315 14.3206 19.4564C14.3206 19.4813 14.3206 19.5062 14.3206 19.5311C14.3462 19.8573 14.3974 20.1558 14.4998 20.4572V20.482C14.5254 20.5567 14.551 20.6313 14.6022 20.7087V20.7336C14.6022 20.7585 14.6278 20.7834 14.6278 20.7834C14.6534 20.8083 14.6534 20.8331 14.679 20.858C14.7814 21.0571 14.9123 21.234 15.0915 21.3833C15.0915 21.3833 15.1171 21.3833 15.1171 21.4081C15.1428 21.433 15.1684 21.4579 15.194 21.4828C15.2452 21.5325 15.2964 21.5574 15.3476 21.6072C15.3476 21.6072 15.3732 21.6072 15.3732 21.6321C15.45 21.6818 15.5524 21.7316 15.6321 21.7814C15.6577 21.7814 15.6577 21.8062 15.6833 21.8062C15.7601 21.856 15.8625 21.8809 15.9678 21.9058C15.9934 21.9058 16.019 21.9306 16.0446 21.9306C16.147 21.9555 16.2238 21.9804 16.3291 22.0053C16.3547 22.0053 16.3803 22.0302 16.4059 22.0302C16.5083 22.055 16.5851 22.055 16.6904 22.055C16.716 22.055 16.7672 22.055 16.7928 22.055C16.8952 22.055 16.9977 22.055 17.1029 22.055C17.1541 22.055 17.1797 22.055 17.2309 22.055C17.3334 22.055 17.4642 22.0302 17.5666 22.0302C17.6178 22.0302 17.6435 22.0302 17.6947 22.0302C17.8483 22.0053 18.0048 21.9804 18.184 21.9555C18.3376 21.9306 18.5197 21.9058 18.6733 21.8809H18.7501C18.8782 21.856 19.009 21.856 19.137 21.8311H19.1883C19.3163 21.8311 19.4727 21.8311 19.6008 21.8311H19.6264C19.652 21.8311 19.6776 21.8311 19.6776 21.8311C20.0304 22.0827 20.2096 22.4338 20.2096 22.8097ZM2.01906 16.0478C2.97211 14.6213 4.18405 12.8189 4.15845 8.81317C4.13284 6.38319 4.82701 4.45635 6.24663 3.10451C8.53965 0.851461 11.9422 0.82658 11.9934 0.82658C14.5709 0.82658 16.5538 1.52876 17.8938 2.93035C20.0332 5.13364 19.8255 8.36256 19.8255 8.41232V8.4372C19.8255 11.0662 20.8042 12.7691 21.6548 14.2703C22.8668 16.3989 23.9478 18.2511 22.3774 22.3812C22.2494 22.1546 22.0673 21.9555 21.8625 21.7814C21.4756 21.4551 20.9863 21.2561 20.4969 21.1815C21.3732 20.2056 21.7345 18.8786 21.4756 17.5766C21.45 17.4273 21.3476 17.3001 21.2167 17.2504C21.0887 17.2006 20.9066 17.2255 20.8042 17.325C20.7018 17.4245 20.6249 17.5766 20.6762 17.701C20.935 18.8786 20.5225 20.1033 19.5951 20.905C19.5439 20.9548 19.4927 21.0045 19.4671 21.0792H19.3902C19.3134 21.0792 19.2622 21.0792 19.1854 21.0792C19.083 21.0792 18.9521 21.1041 18.8497 21.1041C18.7985 21.1041 18.7217 21.1289 18.6705 21.1289C18.4912 21.1538 18.3092 21.1787 18.1043 21.2285C17.9763 21.2533 17.8454 21.2782 17.7174 21.2782C17.6918 21.2782 17.6918 21.2782 17.6662 21.2782C17.5894 21.2782 17.5382 21.3031 17.4614 21.3031C18.1299 20.6258 18.5425 19.7495 18.5965 18.8234C18.5965 18.5967 18.4173 18.4225 18.184 18.4225C17.9507 18.4225 17.7715 18.5967 17.7715 18.8234C17.7715 19.9761 16.7416 20.9271 16.4059 21.2257C16.2011 21.1511 15.9934 21.0515 15.8398 20.8995C15.7373 20.7751 15.6349 20.6728 15.5553 20.5235C15.5297 20.4738 15.4785 20.3991 15.4529 20.3493C15.4529 20.3245 15.4272 20.3245 15.4272 20.2996C15.4016 20.2249 15.376 20.1254 15.3504 20.048C15.3504 20.0231 15.3504 19.9983 15.3248 19.9983C15.2736 19.7992 15.248 19.6223 15.248 19.4232C15.248 19.3984 15.248 19.3984 15.248 19.3735C15.248 19.2988 15.248 19.2242 15.248 19.1468C15.248 18.9726 15.2736 18.8206 15.2736 18.6464C16.0218 18.1958 18.5965 16.3187 18.5965 11.6357C18.5965 11.4864 18.5197 11.3593 18.3917 11.2846C18.3405 11.2597 18.2636 11.21 18.2124 11.1851C18.0588 11.1105 17.9023 11.0109 17.7743 10.9086C17.7231 10.8838 17.6975 10.8589 17.6719 10.834C17.5183 10.7345 17.3874 10.635 17.2594 10.5078C17.2338 10.4829 17.2082 10.458 17.1826 10.4332C17.0546 10.3088 16.8981 10.1816 16.7957 10.0821C16.7701 10.0572 16.7701 10.0572 16.7445 10.0323C16.6164 9.9079 16.4856 9.75586 16.3831 9.63145L16.3575 9.60657C15.4557 8.45379 14.9664 7.07707 14.9152 5.6506C14.9152 5.45156 14.7871 5.29951 14.5795 5.24975C14.3746 5.22487 14.1925 5.32439 14.1157 5.50132C14.0645 5.6506 13.9877 5.77777 13.9109 5.90217C13.9109 5.92705 13.8853 5.95193 13.8853 5.95193C13.2167 7.05496 11.7459 8.08058 10.1499 8.95692C8.80992 9.6591 7.44435 10.259 6.02757 10.7594C5.95076 10.7842 5.84834 10.8091 5.76868 10.834L5.66627 10.8091C5.48703 10.8589 5.38177 11.0082 5.38177 11.1851C5.38177 11.3344 5.38177 11.4864 5.40738 11.6606C5.40738 11.6855 5.40738 11.7103 5.40738 11.7601C5.40738 11.8099 5.40738 11.8845 5.40738 11.9343C5.40738 12.0587 5.43298 12.1858 5.43298 12.3102C5.43298 12.4595 5.45858 12.5867 5.48419 12.736C5.50979 12.8604 5.50979 12.9875 5.5354 13.1119C5.561 13.2363 5.58661 13.3386 5.58661 13.463C5.61221 13.5874 5.63782 13.7146 5.66342 13.839C5.68902 13.9385 5.71463 14.0132 5.74023 14.1154C5.76584 14.2647 5.81705 14.3919 5.84265 14.5163C5.86826 14.5909 5.89386 14.6407 5.91946 14.7153C5.97067 14.8646 6.02188 15.0167 6.07309 15.1411C6.0987 15.1908 6.1243 15.2406 6.1243 15.2903C6.17551 15.4396 6.25232 15.5917 6.30353 15.741C6.32914 15.7907 6.35474 15.8405 6.38034 15.8902C6.45716 16.0395 6.50837 16.1667 6.58518 16.2911C6.61078 16.3409 6.66199 16.4155 6.6876 16.4653C6.73881 16.5648 6.81562 16.6643 6.86683 16.7666C6.89243 16.8163 6.91804 16.8661 6.94364 16.891C6.96925 16.9159 6.96925 16.9407 6.99485 16.9407C7.45858 17.5904 8.02472 18.1433 8.69612 18.5939C8.72173 18.8455 8.74733 19.0943 8.74733 19.3458V19.3707C8.74733 19.4205 8.74733 19.4454 8.74733 19.4951C8.74733 20.0204 8.5681 20.5207 8.20679 20.9216C8.05317 21.0709 7.84549 21.1732 7.64065 21.2229C7.38176 21.0239 6.19827 20.0204 6.19827 18.7929C6.19827 18.5663 6.01904 18.3921 5.78575 18.3921C5.55247 18.3921 5.37324 18.5663 5.37324 18.7929C5.42445 19.6942 5.81136 20.5705 6.45431 21.2229C6.4031 21.2229 6.35189 21.198 6.30069 21.198C6.09585 21.1483 5.88817 21.1234 5.68333 21.0985C5.29642 21.0488 4.90951 21.0239 4.5226 21.0239C4.497 20.9741 4.44579 20.9244 4.39458 20.8746C3.46713 20.0729 3.05461 18.8455 3.3135 17.6706C3.33911 17.4439 3.18548 17.2448 2.9778 17.22C2.74451 17.1951 2.53968 17.3195 2.51407 17.5462C2.25519 18.8482 2.61649 20.1752 3.51834 21.1759C3.13143 21.2755 2.77012 21.4275 2.43726 21.6514C2.12716 21.8781 1.84551 22.1518 1.66344 22.5029C0.164156 18.7791 0.963584 17.6015 2.01906 16.0478Z" fill="#7F7C79"/>
</g>
</svg>
