<svg width="253" height="105" viewBox="0 0 253 105" fill="none" xmlns="http://www.w3.org/2000/svg">
<path d="M248.925 4.5V11.3919" stroke="#F2F2F2" stroke-miterlimit="10"/>
<path d="M245 7.94043H252.861" stroke="#F2F2F2" stroke-miterlimit="10"/>
<g opacity="0.9">
<path opacity="0.05" d="M203.798 26.5361C203.8 27.337 203.644 28.1304 203.339 28.8708C203.034 29.6112 202.587 30.2842 202.022 30.8511C201.457 31.418 200.786 31.8677 200.048 32.1746C199.31 32.4815 198.518 32.6395 197.719 32.6395H156.355C155.523 32.6474 154.699 32.4906 153.928 32.178C153.157 31.8655 152.456 31.4033 151.864 30.8182C151.272 30.233 150.801 29.5364 150.479 28.7684C150.157 28.0004 149.99 27.1762 149.986 26.3431C150.028 24.7893 150.666 23.3115 151.768 22.2179C152.589 21.3994 153.624 20.8307 154.754 20.5774C155.188 20.4796 155.633 20.4311 156.078 20.4327H156.535C157.363 20.2187 158.095 19.7352 158.618 19.0583C159.141 18.3814 159.425 17.5495 159.425 16.6935V16.5487C159.43 15.8556 159.242 15.1747 158.883 14.5826C158.526 14.0185 158.028 13.5573 157.439 13.2443C156.851 12.9313 156.191 12.7773 155.524 12.7974H151.263C150.813 12.7983 150.365 12.7498 149.926 12.6527C148.379 12.3316 147.005 11.4453 146.074 10.1662C145.142 8.88706 144.718 7.30646 144.885 5.73166C145.051 4.15687 145.796 2.70043 146.975 1.64549C148.154 0.590548 149.682 0.0124973 151.263 0.0237137H180.42C181.289 0.0157613 182.15 0.179588 182.956 0.505801C183.762 0.832014 184.495 1.31421 185.115 1.92481C185.734 2.5354 186.228 3.26241 186.566 4.06421C186.905 4.86601 187.083 5.72687 187.089 6.59752C187.039 8.25726 186.346 9.83237 185.158 10.9895C183.969 12.1467 182.378 12.795 180.721 12.7974H171.439C170.465 12.8523 169.55 13.2784 168.88 13.9883C168.21 14.6982 167.837 15.6381 167.837 16.615C167.837 17.592 168.21 18.5319 168.88 19.2418C169.55 19.9517 170.465 20.3778 171.439 20.4327H197.719C198.518 20.4327 199.31 20.5906 200.048 20.8975C200.786 21.2044 201.457 21.6541 202.022 22.221C202.587 22.788 203.034 23.4609 203.339 24.2013C203.644 24.9417 203.8 25.7351 203.798 26.5361Z" fill="#FE4335"/>
<path opacity="0.05" d="M223.637 50.8171C223.572 52.4694 222.871 54.0324 221.682 55.179C220.493 56.3256 218.907 56.9669 217.257 56.9687H179.011C178.184 56.9484 177.373 57.2023 176.705 57.6908C176.037 58.1794 175.548 58.8753 175.315 59.6706C175.232 59.9937 175.192 60.3262 175.195 60.6597V60.9492C175.192 61.2827 175.232 61.6152 175.315 61.9383C175.548 62.7336 176.037 63.4295 176.705 63.9181C177.373 64.4066 178.184 64.6605 179.011 64.6402H204.942C205.554 64.6401 206.163 64.7336 206.747 64.9176C208.143 65.3445 209.34 66.2604 210.117 67.4979C210.895 68.7355 211.202 70.2121 210.983 71.658C210.764 73.1038 210.033 74.4225 208.924 75.373C207.815 76.3235 206.401 76.8424 204.942 76.8349H133.999C132.552 76.8588 131.142 76.3788 130.009 75.4769C128.876 74.5749 128.091 73.307 127.787 71.8895C127.594 70.9111 127.645 69.8998 127.937 68.9462C128.229 67.9926 128.753 67.1264 129.461 66.4254C130.152 65.7217 131.009 65.2032 131.953 64.9176C132.541 64.7324 133.154 64.6388 133.771 64.6402H135.576C136.403 64.6605 137.214 64.4066 137.882 63.9181C138.55 63.4295 139.039 62.7336 139.272 61.9383C139.355 61.6152 139.395 61.2827 139.392 60.9492V60.6114C139.343 59.6239 138.912 58.6943 138.191 58.0191C137.47 57.3439 136.515 56.9759 135.528 56.9928H92.6232C91.7478 57.0009 90.8795 56.8342 90.069 56.5026C89.2584 56.171 88.5219 55.681 87.9023 55.0613C87.2826 54.4416 86.7923 53.7045 86.4599 52.893C86.1275 52.0815 85.9596 51.2118 85.966 50.3346C86.0374 48.6877 86.741 47.132 87.9299 45.9925C89.1188 44.8529 90.7011 44.2176 92.3463 44.2191H216.956C217.828 44.2096 218.693 44.373 219.502 44.7C220.31 45.027 221.046 45.5111 221.667 46.1244C222.289 46.7377 222.782 47.4682 223.12 48.2735C223.458 49.0789 223.634 49.9434 223.637 50.8171Z" fill="#FE4335"/>
<path opacity="0.05" d="M0 73.6745C0.0482416 75.6482 0.69951 77.5596 1.86595 79.1507C3.06588 80.3459 4.6884 81.0179 6.38036 81.0203H44.6264C45.4545 81.0028 46.2652 81.2592 46.9333 81.7498C47.6014 82.2403 48.0895 82.9378 48.3222 83.7343C48.3992 84.0543 48.4396 84.3821 48.4426 84.7113V85.0008C48.4403 85.334 48.3999 85.6659 48.3222 85.9899C48.0891 86.7852 47.6005 87.4811 46.9322 87.9697C46.2639 88.4582 45.4534 88.7121 44.6264 88.6918H18.6956C18.0831 88.6917 17.4742 88.7852 16.8899 88.9692C14.41 89.7412 12.6162 93.2512 12.6162 95.9893C12.6147 96.7903 12.7707 97.5836 13.0755 98.3241C13.3804 99.0645 13.8279 99.7374 14.3926 100.304C14.9573 100.871 15.628 101.321 16.3664 101.628C17.1048 101.935 17.8963 102.093 18.6956 102.093H137.78C139.228 102.117 140.64 101.638 141.775 100.736C142.91 99.834 143.697 98.5658 144.003 97.1473C144.188 95.9798 144.135 94.787 143.848 93.6406C143.56 92.4943 143.044 91.4181 142.33 90.477C141.639 89.7733 140.782 89.2548 139.838 88.9692C139.25 88.784 138.637 88.6904 138.02 88.6918H136.203C135.706 88.7185 135.21 88.6422 134.744 88.4677C134.278 88.2933 133.854 88.0244 133.497 87.6779C133.14 87.3314 132.858 86.9148 132.669 86.4542C132.48 85.9935 132.388 85.4987 132.398 85.0008V84.6631C132.448 83.6755 132.879 82.7459 133.6 82.0707C134.321 81.3955 135.276 81.0275 136.263 81.0444H179.168C182.779 81.0444 185.969 76.8469 185.813 73.1921C185.75 71.543 185.052 69.9827 183.864 68.8396C182.676 67.6966 181.091 67.0602 179.445 67.0646H6.65724C5.78673 67.0598 4.92383 67.2271 4.11791 67.5568C3.312 67.8866 2.57889 68.3723 1.96055 68.9863C1.34221 69.6002 0.850769 70.3303 0.514355 71.1348C0.17794 71.9393 0.00315256 72.8023 0 73.6745Z" fill="#FE4335"/>
</g>
<path opacity="0.5" d="M129.377 104C148.737 104 164.432 88.0528 164.432 68.3809C164.432 48.709 148.737 32.7617 129.377 32.7617C110.016 32.7617 94.3208 48.709 94.3208 68.3809C94.3208 88.0528 110.016 104 129.377 104Z" fill="#E0E0E0"/>
<path d="M95.4937 61.6057C95.7264 60.2114 96.0481 58.8335 96.4567 57.4804C98.2632 51.4457 101.686 46.0225 106.352 41.7998" stroke="#FE4335" stroke-width="2" stroke-miterlimit="10" stroke-linecap="round"/>
<path d="M114.478 36.408C116.628 35.3635 118.884 34.5546 121.208 33.9956C128.161 32.2841 135.474 32.7883 142.129 35.4379C148.783 38.0875 154.447 42.7505 158.331 48.7775C162.215 54.8044 164.127 61.8952 163.8 69.0621C163.472 76.229 160.922 83.1151 156.505 88.7614C152.087 94.4076 146.022 98.5327 139.154 100.562C132.286 102.592 124.957 102.424 118.189 100.084C111.42 97.743 105.549 93.3454 101.392 87.5035C97.2359 81.6616 95.0013 74.6662 95 67.4918" stroke="#FE4335" stroke-width="2" stroke-miterlimit="10" stroke-linecap="round"/>
<path d="M114 80.9961L142.464 53.4675" stroke="white" stroke-width="3" stroke-linecap="round" stroke-linejoin="round"/>
<path d="M115 81L143 54" stroke="#FE4335" stroke-width="3" stroke-linecap="round" stroke-linejoin="round"/>
<path d="M142 82L115 54" stroke="#FE4335" stroke-width="3" stroke-linecap="round" stroke-linejoin="round"/>
<path d="M248.063 35.5469V43.4234" stroke="#E0E0E0" stroke-miterlimit="10"/>
<path d="M244.139 39.4795H252" stroke="#E0E0E0" stroke-miterlimit="10"/>
<path d="M99.8464 28.9366C103.091 28.9366 105.721 26.3012 105.721 23.0503C105.721 19.7994 103.091 17.1641 99.8464 17.1641C96.6019 17.1641 93.9717 19.7994 93.9717 23.0503C93.9717 26.3012 96.6019 28.9366 99.8464 28.9366Z" stroke="#FE4335" stroke-miterlimit="10"/>
</svg>
