<svg width="31" height="28" viewBox="0 0 31 28" fill="none" xmlns="http://www.w3.org/2000/svg">
<path d="M18.6261 7.40949V4.20475C18.6261 3.3548 18.2885 2.53966 17.6875 1.93865C17.0865 1.33764 16.2713 1 15.4214 1H4.20475C3.35479 1 2.53965 1.33764 1.93865 1.93865C1.33764 2.53966 1 3.3548 1 4.20475V23.4332C1 24.2832 1.33764 25.0983 1.93865 25.6993C2.53965 26.3003 3.35479 26.638 4.20475 26.638H15.4214C16.2713 26.638 17.0865 26.3003 17.6875 25.6993C18.2885 25.0983 18.6261 24.2832 18.6261 23.4332V20.2285" stroke="#FF3E79" stroke-width="1.5" stroke-linecap="round" stroke-linejoin="round"/>
<path d="M29.8414 13.8218H7.4082H17.1681H29.8414ZM29.8414 13.8218L25.0343 9.01465M29.8414 13.8218L25.0343 18.6289" stroke="#FF3E79" stroke-width="1.5" stroke-linecap="round" stroke-linejoin="round"/>
</svg>
