<svg width="31" height="31" viewBox="0 0 31 31" fill="none" xmlns="http://www.w3.org/2000/svg">
<ellipse cx="15.0923" cy="15.2227" rx="15.0923" ry="15" fill="#FF3E79"/>
<path d="M13.1927 17.0299L24 6.22266" stroke="white" stroke-width="1.5" stroke-linecap="round" stroke-linejoin="round"/>
<path d="M23.9999 6.22266L17.6137 23.9073C17.5706 24.0013 17.5014 24.081 17.4144 24.1369C17.3273 24.1928 17.226 24.2225 17.1225 24.2225C17.019 24.2225 16.9177 24.1928 16.8307 24.1369C16.7436 24.081 16.6744 24.0013 16.6313 23.9073L13.1926 17.0299L6.31525 13.5912C6.22118 13.5481 6.14147 13.4789 6.08559 13.3918C6.02971 13.3048 6 13.2035 6 13.1C6 12.9965 6.02971 12.8952 6.08559 12.8082C6.14147 12.7211 6.22118 12.6519 6.31525 12.6088L23.9999 6.22266Z" stroke="white" stroke-width="1.5" stroke-linecap="round" stroke-linejoin="round"/>
</svg>
