<svg width="30" height="30" viewBox="0 0 30 30" fill="none" xmlns="http://www.w3.org/2000/svg">
<circle cx="15" cy="15" r="15" fill="#FF3E79"/>
<path d="M15 17.0176C16.1046 17.0176 17 16.1221 17 15.0176C17 13.913 16.1046 13.0176 15 13.0176C13.8954 13.0176 13 13.913 13 15.0176C13 16.1221 13.8954 17.0176 15 17.0176Z" stroke="white" stroke-width="1.5" stroke-linecap="round" stroke-linejoin="round"/>
<path d="M5 15.0176L6.5 17.0176C7.53188 18.2738 8.82937 19.2857 10.2991 19.9804C11.7689 20.6751 13.3743 21.0355 15 21.0355C16.6257 21.0355 18.2311 20.6751 19.7009 19.9804C21.1706 19.2857 22.4681 18.2738 23.5 17.0176L25 15.0176" stroke="white" stroke-width="1.5" stroke-linecap="round" stroke-linejoin="round"/>
<path d="M5 15.0179L6.5 13.0179C7.53188 11.7617 8.82937 10.7498 10.2991 10.0551C11.7689 9.36033 13.3743 9 15 9C16.6257 9 18.2311 9.36033 19.7009 10.0551C21.1706 10.7498 22.4681 11.7617 23.5 13.0179L25 15.0179" stroke="white" stroke-width="1.5" stroke-linecap="round" stroke-linejoin="round"/>
</svg>
