<svg width="193" height="178" viewBox="0 0 193 178" fill="none" xmlns="http://www.w3.org/2000/svg">
<path d="M99.8688 128.493C97.2315 128.817 94.7203 129.154 92.1972 129.418C90.1186 129.634 88.0099 130.001 85.9433 129.869C81.5939 129.586 78.1876 126.264 77.6349 121.939C76.3973 112.267 75.2919 102.583 74.0183 92.9224C73.5858 89.6423 73.9703 86.4883 74.4088 83.2502C75.2859 76.7501 73.2494 71.097 68.4553 66.5793C67.5302 65.7082 66.1304 65.2456 64.8688 64.8792C64.4423 64.753 63.397 65.4078 63.2648 65.8764C62.9104 67.156 62.7902 68.5318 62.7722 69.8714C62.7482 72.3225 62.8263 74.7796 62.9404 77.2247C63.2048 82.8477 61.1141 87.9181 59.1917 93.0065C58.2726 95.4335 57.2032 97.8185 55.9837 100.107C53.9471 103.946 53.6468 108.007 54.0252 112.207C54.3737 116.081 55.1787 119.944 54.1574 123.837C53.1181 127.784 51.448 131.455 49.3754 134.957C48.9128 135.738 48.3 136.267 47.4289 135.69C46.5579 135.113 46.8703 134.362 47.3268 133.599C49.4175 130.055 51.3639 126.39 51.8685 122.263C52.1809 119.722 52.0247 117.073 51.7424 114.513C51.0755 108.56 51.5742 102.943 54.4938 97.4941C57.2993 92.2495 59.414 86.6505 60.2971 80.715C60.6035 78.6605 60.3452 76.5278 60.3992 74.4372C60.4773 71.5475 60.3392 68.6219 60.7777 65.7803C61.2523 62.7285 63.373 61.6411 66.3287 62.6444C67.7585 63.131 69.0561 64.0021 70.54 64.765C70.2035 61.9595 69.8791 59.154 69.5307 56.3545C68.5635 48.6168 67.6023 40.879 66.599 33.1473C65.9202 27.9208 69.5007 23.0667 74.7633 22.4058C86.7183 20.904 98.6793 19.4561 110.64 18.0444C115.735 17.4436 120.276 21.4687 120.859 26.6532C122.007 36.836 123.316 47.0007 124.566 57.1715C124.578 57.2616 124.656 57.3397 124.758 57.5259C126.716 57.3757 128.645 57.4959 130.345 58.8596C133.475 61.3708 133.493 66.369 130.249 68.766C129.246 69.505 128.092 70.0276 127.065 70.7365C126.729 70.9708 126.356 71.4935 126.392 71.8419C126.434 72.2865 126.783 72.9413 127.155 73.0794C132.388 75.0379 132.82 81.7844 128.495 84.4818C128.321 84.5899 128.116 84.644 127.882 84.7461C132.532 88.2305 132.292 91.853 129.997 95.1812C134.346 97.5061 135.548 101.753 132.838 105.22C132.748 105.34 132.676 105.508 132.556 105.562C130.405 106.553 130.772 108.326 131.084 110.116C131.324 111.492 131.468 112.885 131.649 114.273C132.129 117.872 131.258 121.02 128.357 123.525C129.15 124.384 129.846 125.141 130.754 126.126C131.042 123.17 132.586 121.338 134.905 120.137C137.29 118.899 139.639 119.398 142.084 120.731C142.072 117.493 143.363 115.09 145.851 113.462C148.53 111.708 151.197 112.387 153.883 114.021C154.147 111.69 155.012 109.816 156.748 108.368C159.674 105.923 163.435 105.622 166.853 108.025C169.292 109.743 171.419 111.906 173.726 113.817C179.781 118.827 184.335 125.081 188.624 131.569C189.868 133.443 191.129 135.306 192.403 137.162C192.908 137.895 193.226 138.64 192.361 139.253C191.472 139.883 190.895 139.265 190.408 138.55C187.555 134.386 184.683 130.229 181.83 126.06C178.574 121.302 174.242 117.565 170.013 113.744C168.571 112.441 167.099 111.137 165.495 110.05C162.99 108.356 160.551 108.452 158.544 110.068C156.37 111.822 156.003 113.666 157.031 116.802C157.205 117.337 156.868 118.04 156.766 118.665C156.123 118.466 155.397 118.394 154.856 118.034C153.865 117.379 153.054 116.448 152.044 115.823C150.386 114.79 148.608 114.381 146.872 115.715C144.949 117.187 144.096 119.542 144.787 121.704C145.058 122.546 145.562 123.315 145.995 124.095C146.397 124.828 146.589 125.657 145.742 126.024C145.28 126.222 144.427 125.94 143.958 125.591C142.763 124.708 141.777 123.525 140.534 122.726C138.533 121.44 136.347 121.698 134.707 123.164C133.259 124.456 132.946 126.324 133.902 128.535C134.232 129.304 134.869 129.953 135.151 130.734C135.355 131.293 135.199 131.977 135.199 132.608C134.526 132.512 133.787 132.56 133.211 132.278C132.718 132.031 132.436 131.389 132.021 130.95C124.464 122.936 116.912 114.922 109.343 106.926C107.156 104.613 104.681 104.361 102.242 106.181C101.112 107.022 100.656 108.085 100.956 109.575C101.509 112.321 103.359 114.273 104.933 116.37C114.209 128.739 123.875 140.802 134.556 151.995C139.675 157.353 145.058 162.448 151.281 166.545C154.495 168.659 158.052 169.651 161.879 169.885C165.015 170.077 168.163 170.318 171.268 170.798C174.446 171.291 177.222 172.835 179.589 175.003C180.003 175.382 180.292 176.445 180.051 176.866C179.529 177.785 178.676 177.37 178.021 176.794C174.663 173.826 170.614 172.793 166.27 172.546C163.771 172.408 161.26 172.372 158.791 172.018C152.789 171.159 148.169 167.632 143.688 163.883C133.421 155.293 124.818 145.134 116.335 134.867C114.485 132.632 112.671 130.367 110.875 128.091C110.364 127.448 109.865 127.147 108.976 127.31C107.162 127.64 105.312 127.772 103.491 128.091C103.071 128.163 102.476 128.577 102.38 128.944C100.824 135.095 96.5707 138.802 91.1639 141.475C89.0132 142.539 86.8204 143.512 84.6337 144.485C81.0532 146.077 77.9593 148.3 75.4481 151.322C75.322 151.478 75.2078 151.712 75.0456 151.754C74.4088 151.916 73.5738 152.319 73.1412 152.067C72.3182 151.592 72.6666 150.775 73.2193 150.15C75.6884 147.357 78.3798 144.834 81.7681 143.175C85.0422 141.577 88.3824 140.1 91.6264 138.435C95.4533 136.477 98.3068 133.563 99.7066 129.394C99.7907 129.184 99.7967 128.938 99.8688 128.493ZM122.343 73.3498C122.343 73.2657 122.343 73.1816 122.343 73.0975C122.007 73.0975 121.676 73.0975 121.34 73.0975C118.33 73.0855 115.813 71.2712 115.014 68.5377C114.197 65.7502 115.296 62.9567 117.909 61.2987C119.009 60.6018 120.132 59.947 121.292 59.3642C122.031 58.9978 122.253 58.5833 122.145 57.7362C121.232 50.5512 120.379 43.3541 119.495 36.1631C119.153 33.3576 118.781 30.5581 118.408 27.6384C101.923 29.6689 85.6309 31.6755 69.2664 33.694C69.2964 34.2227 69.2904 34.5651 69.3325 34.9075C70.4439 43.9309 71.5733 52.9542 72.6666 61.9835C73.1112 65.6481 73.742 69.1745 75.358 72.6229C77.2624 76.696 77.8151 81.1055 76.5175 85.6412C76.0729 87.1792 76.0549 88.9334 76.2291 90.5434C76.914 96.8453 77.749 103.135 78.536 109.431C78.8123 111.648 79.0947 113.871 79.4011 116.268C86.3158 115.421 93.0743 114.592 99.8988 113.751C99.4663 112.705 99.0638 111.894 98.7995 111.041C97.8142 107.857 98.6373 105.652 101.431 103.82C104.435 101.844 107.991 102.174 110.61 104.781C112.599 106.758 114.437 108.878 116.432 110.849C116.846 111.257 117.645 111.516 118.234 111.468C120.577 111.281 122.902 110.951 125.233 110.657C126.35 110.518 127.461 110.344 128.615 110.176C128.507 109.467 128.423 108.932 128.333 108.35C125.593 109.677 122.956 109.81 120.595 107.737C118.168 105.604 117.849 102.931 119.027 100.011C116.197 99.4225 114.389 97.7764 113.818 95.1091C113.145 91.9912 114.473 89.6062 117.225 87.9662C116.984 87.7979 116.822 87.6778 116.654 87.5757C112.286 84.8783 112.437 78.8107 117.134 76.3295C118.901 75.3864 120.613 74.341 122.343 73.3498ZM118.102 25.1993C117.765 24.5385 117.591 24.136 117.369 23.7695C115.386 20.5555 112.37 20.183 108.976 20.6216C101.046 21.6429 93.1103 22.5861 85.1803 23.5773C81.5157 24.0399 77.8331 24.4244 74.1986 25.0732C71.1888 25.6139 69.1222 28.3052 69.2123 31.2249C85.4146 29.2304 101.599 27.2359 118.102 25.1993ZM104.134 119.398C103.449 118.466 102.873 117.83 102.464 117.097C101.935 116.148 101.19 115.985 100.205 116.124C97.1834 116.538 94.1616 116.904 91.1338 117.289C87.3731 117.764 83.6184 118.238 79.7135 118.731C79.8216 119.536 79.9178 120.215 79.9958 120.893C80.5245 125.561 83.7806 128.066 88.4244 127.418C90.7554 127.093 93.0923 126.859 95.4232 126.571C99.6645 126.042 103.9 125.507 108.333 124.949C107.763 124.18 107.24 123.579 106.838 122.912C106.243 121.909 105.492 121.638 104.332 121.891C103.017 122.179 101.653 122.347 100.313 122.329C99.7246 122.323 98.7694 121.837 98.6312 121.38C98.3369 120.383 99.22 120.076 100.091 119.962C101.377 119.8 102.656 119.608 104.134 119.398ZM130.225 63.5155C130.261 60.8721 127.377 58.9978 124.572 60.3374C122.685 61.2386 120.871 62.3139 119.105 63.4374C117.146 64.6809 116.684 66.8376 117.795 68.8021C118.769 70.5262 121.099 71.1751 123.052 70.1478C124.866 69.2046 126.62 68.1533 128.381 67.108C129.594 66.4051 130.225 65.3237 130.225 63.5155ZM116.017 81.8745C116.011 84.7761 118.63 86.8007 120.985 85.7313C123.112 84.7581 125.191 83.6287 127.167 82.3731C129.174 81.0995 129.564 78.9608 128.387 77.0264C127.317 75.2722 125.106 74.7015 123.13 75.7468C121.406 76.6539 119.7 77.5971 118.036 78.6124C116.792 79.3694 115.891 80.4207 116.017 81.8745ZM129.144 90.7116C129.101 88.2125 126.506 86.0978 124.295 87.053C121.928 88.0683 119.652 89.3839 117.507 90.8257C115.873 91.9191 115.663 94.1539 116.684 95.794C117.723 97.4701 119.844 98.1489 121.664 97.2298C123.581 96.2626 125.437 95.1812 127.287 94.0878C128.531 93.3489 129.174 92.2015 129.144 90.7116ZM127.029 97.404C125.972 97.9627 124.157 98.7737 122.511 99.837C120.733 100.984 120.336 103.279 121.388 105.004C122.379 106.632 124.56 107.316 126.392 106.469C127.66 105.887 128.885 105.196 130.069 104.457C131.547 103.532 132.111 101.802 131.613 100.119C131.114 98.4673 129.678 97.416 127.029 97.404ZM119.243 113.865C121.874 116.658 124.283 119.217 126.686 121.771C129.378 119.169 129.937 116.712 128.747 112.663C125.695 113.048 122.619 113.438 119.243 113.865Z" fill="#8C8C8C"/>
<path d="M138.216 11.0935C137.723 11.3398 137.218 11.5561 136.744 11.8324C133.073 13.9471 129.409 16.0678 125.744 18.1884C124.945 18.651 124.098 18.9394 123.533 17.9782C122.956 17.005 123.803 16.5183 124.482 16.1218C128.183 13.9591 131.89 11.8144 135.614 9.69977C136.69 9.087 137.753 9.58562 137.717 10.5949C137.885 10.7631 138.047 10.9313 138.216 11.0935Z" fill="#8C8C8C"/>
<path d="M117.483 12.4154C117.555 11.9107 117.561 11.7065 117.622 11.5202C118.679 8.04789 119.712 4.56952 120.83 1.11518C120.968 0.682639 121.46 0.190008 121.893 0.051835C122.752 -0.224512 123.425 0.64659 123.13 1.65586C122.103 5.18829 121.064 8.72072 119.91 12.2171C119.754 12.6977 118.973 13.1122 118.403 13.2624C118.156 13.3225 117.712 12.6376 117.483 12.4154Z" fill="#8C8C8C"/>
<path d="M110.208 12.2834C109.463 11.5505 108.952 11.2561 108.766 10.8236C107.456 7.86786 106.177 4.89413 104.999 1.87835C104.837 1.45782 105.311 0.790975 105.486 0.238281C106.026 0.442538 106.873 0.502612 107.048 0.875079C108.471 3.93893 109.817 7.04483 111.049 10.1928C111.217 10.6193 110.61 11.3462 110.208 12.2834Z" fill="#8C8C8C"/>
<g clip-path="url(#clip0_2528_3400)">
<path d="M33.107 24.9767C34.1808 26.2595 34.7011 27.9164 34.5533 29.5828C34.4055 31.2492 33.6018 32.7887 32.319 33.8626C31.0361 34.9364 29.3792 35.4567 27.7128 35.3089C26.0464 35.1611 24.5069 34.3574 23.4331 33.0746C22.3592 31.7917 21.839 30.1349 21.9868 28.4684C22.1345 26.802 22.9382 25.2625 24.2211 24.1887C25.5039 23.1148 27.1608 22.5946 28.8272 22.7424C30.4936 22.8901 32.0331 23.6939 33.107 24.9767ZM31.4946 26.3263C30.7787 25.4711 29.7524 24.9353 28.6415 24.8368C27.5305 24.7383 26.4259 25.0851 25.5707 25.801C24.7155 26.5169 24.1797 27.5432 24.0812 28.6542C23.9827 29.7651 24.3295 30.8697 25.0454 31.7249C25.7613 32.5801 26.7876 33.1159 27.8985 33.2145C29.0095 33.313 30.1141 32.9661 30.9693 32.2502C31.8245 31.5344 32.3603 30.508 32.4589 29.3971C32.5574 28.2861 32.2105 27.1816 31.4946 26.3263ZM42.9385 30.3339C43.2824 26.444 42.0675 22.5768 39.5609 19.5824C37.0544 16.5879 33.4613 14.7115 29.5716 14.3655C27.646 14.1941 25.7056 14.4038 23.8612 14.9826C22.0167 15.5615 20.3044 16.4981 18.822 17.7389C17.3397 18.9797 16.1164 20.5005 15.222 22.2143C14.3277 23.9282 13.7798 25.8014 13.6097 27.727C13.2657 31.6169 14.4806 35.4842 16.9872 38.4786C19.4938 41.473 23.0869 43.3494 26.9766 43.6954L31.452 44.0594L37.425 44.5025L37.7987 44.5133C39.8958 44.4798 41.6718 42.8835 41.896 40.76L42.6233 33.6524L42.9385 30.3339ZM15.6979 27.9122C15.8439 26.2609 16.3139 24.6546 17.0809 23.1849C17.848 21.7153 18.8971 20.4112 20.1682 19.3471C21.4394 18.283 22.9078 17.4798 24.4895 16.9833C26.0711 16.4869 27.7351 16.3069 29.3864 16.4537C32.6299 16.7425 35.6366 18.2725 37.7792 20.7247C39.9217 23.1768 41.0347 26.3616 40.8857 29.6145L40.8503 30.1487L40.4803 34.034L39.8109 40.5392L39.7673 40.7951C39.6644 41.2385 39.4199 41.6364 39.0709 41.9286C38.7218 42.2207 38.2872 42.3914 37.8326 42.4147L37.5746 42.4112L28.8492 41.7494L27.1617 41.6072L26.631 41.5497C23.4026 41.1239 20.4634 39.4679 18.4266 36.9272C16.3897 34.3866 15.4127 31.1575 15.6992 27.9138L15.6979 27.9122Z" fill="#8C8C8C"/>
</g>
<path d="M166.854 37.6684C167.378 36.8885 167.804 36.0129 168.443 35.3442C171.323 32.3302 174.257 29.3685 177.186 26.4014C180.096 23.4536 184.089 23.2329 186.719 25.8595C189.36 28.4964 189.141 32.4588 186.207 35.438C183.035 38.6586 179.873 41.8914 176.712 45.1207C174.905 46.9672 173.123 48.8381 171.295 50.6638C168.358 53.5996 164.585 53.5961 161.616 50.6812C158.515 47.6378 155.402 44.6048 152.328 41.5353C150.314 39.5254 149.651 37.1039 150.7 34.4339C152.392 30.1311 157.702 29.0888 161.182 32.3772C162.876 33.9788 164.396 35.7645 165.994 37.4669C166.279 37.5347 166.565 37.6024 166.854 37.6684ZM186.349 30.7304C186.231 30.072 186.202 29.7784 186.127 29.497C185.243 26.1982 181.584 25.2706 179.064 27.7894C175.326 31.5277 171.658 35.3372 167.995 39.1502C166.96 40.2272 166.044 40.5208 164.882 39.3222C163.206 37.5937 161.468 35.9226 159.726 34.2602C157.728 32.3563 155.493 32.2538 153.778 33.9388C152.025 35.6603 152.034 37.8995 153.981 39.8641C157.122 43.0361 160.322 46.1525 163.553 49.2342C165.375 50.9713 167.618 51.0095 169.378 49.2272C174.662 43.8786 179.887 38.471 185.078 33.0303C185.722 32.3528 186.021 31.3418 186.349 30.7304Z" fill="#8C8C8C"/>
<defs>
<clipPath id="clip0_2528_3400">
<rect width="42.0528" height="42.0528" fill="white" transform="translate(0 28.0112) rotate(-39.9323)"/>
</clipPath>
</defs>
</svg>
