<svg width="152" height="117" viewBox="0 0 152 117" fill="none" xmlns="http://www.w3.org/2000/svg">
<path opacity="0.1" d="M13.2 53.8279C11.0966 54.515 9.13355 56.178 8.60352 58.4846C8.00197 61.1348 9.38735 63.813 9.58506 66.5305C10.2315 75.45 -1.51063 81.7431 0.163609 90.5083C0.829659 93.9872 3.5191 96.5519 6.17068 98.6622C10.4152 102.043 15.1238 105.028 20.333 105.872C28.2471 107.153 36.5173 103.386 44.2113 105.767C50.416 107.687 55.1639 113.315 61.3266 115.392C66.0184 116.974 71.0706 116.35 75.9489 115.71C78.5724 115.367 81.3292 114.969 83.4507 113.265C87.4007 110.093 87.6391 103.831 90.2809 99.3423C94.3571 92.4139 103.295 91.0608 110.79 92.4069C118.284 93.7531 125.558 97.0721 133.151 96.7916C134.773 96.7342 136.437 96.4944 137.851 95.6348C139.571 94.5888 140.735 92.7477 141.763 90.9248C148.168 79.5669 151.737 66.3553 151.991 53.0553C152.034 50.7571 151.96 48.3593 150.96 46.3247C149.698 43.7572 147.174 42.2246 144.65 41.1898C138.609 38.7191 131.936 38.3195 126.015 35.515C120.304 32.813 115.676 28.0721 110.704 24.0169C100.842 15.9612 89.2503 10.386 77.1183 7.85503C74.262 7.25909 71.2978 6.83282 68.4597 7.5213C65.1897 8.31495 62.3713 10.5178 59.8375 12.8876C53.0943 19.1975 47.6915 26.977 41.4798 33.8899C37.2239 38.6228 32.5553 42.9677 27.5292 46.8729C25.2253 48.6636 22.7855 50.7893 20.2236 52.113C17.8805 53.3231 15.6777 53.0188 13.2 53.8279Z" fill="#FF3E79"/>
<path d="M142.262 58.3711C139.177 57.7261 133.337 56.516 126.727 55.1755C116.941 53.1914 114.388 60.7016 114.388 60.7016C114.388 64.5269 101.628 80.3943 101.628 80.3943L97.8221 71.8688C98.4069 71.9591 99.0045 71.9188 99.572 71.751C101.751 71.1004 102.828 68.6423 103.177 66.3974C103.698 63.0162 103.222 59.5565 101.807 56.4417C101.158 55.0199 100.317 53.6822 99.795 52.2098C97.5949 46.0317 101.406 38.8804 99.1009 32.7261C98.1488 30.1867 96.2502 28.1269 94.9377 25.7543C91.9931 20.4189 92.1193 13.7444 88.9082 8.56182C85.8963 3.70315 79.9607 0.823014 74.2747 1.46523C70.9221 1.84382 68.5257 3.04131 65.4015 1.60545C62.764 0.396742 59.5978 -0.954989 56.8817 0.949214C54.5653 2.57297 54.1712 5.77142 52.9064 8.2996C50.6853 12.7404 45.4158 15.6388 44.7961 20.5647C44.6432 21.7791 44.7961 23.0382 44.4413 24.2105C43.4289 27.5239 39.0204 28.5027 37.2143 31.4599C35.4461 34.3541 37.2325 38.7304 40.5221 39.5647C41.9243 39.9209 43.4331 39.7049 44.8339 40.0821C46.1478 40.4327 47.4224 41.661 47.1952 42.944L44.2815 43.4741L35.8976 44.4051L34.6006 44.4865C34.6006 44.4865 34.6006 44.5089 34.6006 44.5496L34.5305 44.558L34.5992 44.6141C34.5992 44.7136 34.5992 44.8693 34.5992 45.074C32.2393 45.998 28.4154 48.4645 26.9712 54.9343C26.6403 56.411 25.9717 57.7909 25.0179 58.9657C22.8683 61.6159 19.3011 66.7914 19.5002 71.7595C19.7806 78.8434 19.7806 81.6773 29.1446 79.6932C31.5101 79.1926 34.0832 78.1662 36.6086 76.9126C36.7558 79.8656 37.1386 82.7612 37.9378 84.9346C40.4913 91.877 35.1012 116.388 35.1012 116.388H87.1554C87.1554 116.388 82.7581 101.936 78.5038 94.5692C75.4905 89.3502 76.6038 86.1938 77.5096 84.7958C78.2951 83.6077 78.8819 82.2996 79.247 80.9229C79.4012 80.3186 79.5513 79.6329 79.6803 78.8729C80.638 79.6567 81.6602 80.3606 82.817 80.7813C83.8883 81.1697 85.1068 81.2763 86.1907 80.9762C88.409 83.6881 90.8867 86.6621 93.5383 89.7526C103.751 101.653 106.587 94.286 106.587 94.286C106.587 94.286 116.941 74.5933 118.366 68.6423C119.791 62.6914 122.905 62.9746 122.905 62.9746C131.441 65.1326 139.008 62.0001 142.523 60.1155C142.694 60.0248 142.833 59.8833 142.92 59.7106C143.007 59.5379 143.038 59.3424 143.01 59.1511C142.981 58.9598 142.894 58.782 142.76 58.6423C142.626 58.5026 142.452 58.4079 142.262 58.3711ZM36.9395 61.9314C37.6517 61.1196 38.2637 60.2251 38.7624 59.2672H38.789C38.5305 60.2576 38.1972 61.2269 37.792 62.1669C36.997 62.3198 36.5174 62.3997 36.5174 62.3997L36.9395 61.9314Z" fill="url(#paint0_linear_1_5974)"/>
<path d="M56.5103 2.20924C54.2205 3.81617 53.8307 6.97675 52.5841 9.48391C50.3883 13.8784 45.179 16.7488 44.5663 21.6228C44.4148 22.8245 44.5663 24.0711 44.2157 25.2293C43.2159 28.5091 38.8565 29.478 37.0644 32.4044C35.3159 35.2678 37.0827 39.5992 40.3344 40.4251C41.724 40.7785 43.2117 40.5653 44.5971 40.9369C45.9825 41.3085 47.3244 42.6658 46.8659 44.0218C46.5252 45.0314 45.3235 45.6063 45.1047 46.6495C44.914 47.5469 45.5254 48.4023 46.1171 49.1006C46.8687 49.984 47.6708 50.8533 48.6762 51.4324C51.4413 53.0254 54.8908 52.0691 58.0794 51.9639C61.937 51.8494 65.7187 53.0516 68.8021 55.3727C69.6841 56.0415 70.5142 56.8141 71.0611 57.7775C72.8433 60.9156 71.1578 64.8544 71.5364 68.4427C71.9655 72.5203 75.0111 75.7931 78.0861 78.5035C79.3145 79.586 80.6101 80.6531 82.1525 81.2126C83.695 81.7721 85.5389 81.7412 86.8359 80.7429C88.1989 79.694 88.6728 77.8361 88.6812 76.1156C88.6896 74.3951 88.3279 72.683 88.4148 70.9652C88.4569 70.1239 88.764 69.1241 89.5842 68.9587C89.9951 68.876 90.4116 69.0428 90.7859 69.2307C93.4025 70.546 95.9124 73.1218 98.7169 72.2861C100.872 71.6425 101.942 69.2097 102.281 66.9872C102.796 63.6423 102.325 60.2199 100.927 57.138C100.285 55.7358 99.453 54.4079 98.937 52.9496C96.7692 46.8234 100.534 39.7436 98.2569 33.6566C97.316 31.1439 95.4385 29.105 94.1414 26.7563C91.2248 21.4756 91.3552 14.8698 88.1792 9.74051C85.2023 4.93093 79.3327 2.08164 73.7126 2.71684C70.3978 3.09123 68.0295 4.2775 64.9404 2.85706C62.3323 1.66378 59.2025 0.319056 56.5103 2.20924Z" fill="#40243E"/>
<path d="M78.7356 46.6277C78.7356 46.6277 87.85 43.8233 91.4957 60.089L100.75 80.8417C100.75 80.8417 113.37 65.1369 113.37 61.351C113.37 61.351 115.894 53.9192 125.569 55.8823C132.105 57.2088 137.872 58.4063 140.928 59.0443C141.114 59.083 141.283 59.1778 141.413 59.316C141.543 59.4542 141.628 59.629 141.655 59.8168C141.683 60.0046 141.652 60.1962 141.566 60.3658C141.481 60.5354 141.346 60.6747 141.179 60.7648C137.704 62.6298 130.223 65.7301 121.783 63.5945C121.783 63.5945 118.699 63.314 117.296 69.2033C115.894 75.0926 105.658 94.5833 105.658 94.5833C105.658 94.5833 102.854 101.875 92.7577 90.0963C82.6618 78.3177 75.0898 68.2218 75.0898 68.2218L78.7356 46.6277Z" fill="#E09999"/>
<path d="M78.7354 48.5906L77.5267 52.5715L76.332 56.5089L73.9679 64.2953L62.7502 66.3987L59.0947 64.0668L54.6174 61.2105L50.7571 58.5463L45.0824 54.6201L40.4551 44.9448C40.4551 44.9448 41.7311 44.7191 45.7092 43.9955L51.2521 42.9817C55.0801 42.2806 56.5272 39.4313 56.9689 36.5316C57.4975 33.0597 56.5805 29.5205 56.5805 29.5205H70.7428C70.7428 29.5205 72.3273 31.9043 72.0791 36.0212C72.0012 37.2394 71.7882 38.4452 71.4439 39.6164C70.1988 43.9268 73.0102 45.3655 74.9172 45.8324C75.4329 45.9633 75.9605 46.0417 76.4919 46.0666L78.7354 48.5906Z" fill="#E09999"/>
<path opacity="0.1" d="M72.0748 36.0213C69.9045 37.627 67.2977 38.5358 64.5995 38.6274C61.9013 38.7191 59.2389 37.9892 56.9646 36.5345C57.4932 33.0626 56.5762 29.5234 56.5762 29.5234H70.7385C70.7385 29.5234 72.3272 31.8974 72.0748 36.0213Z" fill="black"/>
<path d="M64.153 38.2143C71.51 38.2143 77.474 32.2503 77.474 24.8933C77.474 17.5363 71.51 11.5723 64.153 11.5723C56.796 11.5723 50.832 17.5363 50.832 24.8933C50.832 32.2503 56.796 38.2143 64.153 38.2143Z" fill="#E09999"/>
<path opacity="0.1" d="M78.7354 48.5911L77.5267 52.572L76.332 56.5094L73.9679 64.2959L62.7502 66.3992L59.0947 64.0673L54.6174 61.211L50.7571 58.5468L45.0824 54.6206L40.4551 44.9454C40.4551 44.9454 41.7311 44.7196 45.7092 43.9961C48.5136 51.7994 52.0612 54.7048 55.2624 55.6471C57.1764 56.2079 58.9657 56.0677 60.3917 55.8574C62.2247 55.5641 64.0989 55.6596 65.8926 56.1378C70.1974 57.3353 72.4633 55.0427 73.6538 52.1331C74.5344 49.9807 74.8261 47.489 74.9158 45.8232C75.4315 45.954 75.9591 46.0325 76.4905 46.0573L78.7354 48.5911Z" fill="black"/>
<path d="M34.9856 116.458C34.9856 116.458 40.314 92.1997 37.79 85.3288C37.0678 83.3657 36.6892 80.7969 36.5196 78.1383C36.0989 71.5101 36.9487 64.2957 36.9487 64.2957C37.0692 64.0615 37.1828 63.8287 37.2922 63.5946C37.5726 62.9963 37.8194 62.4111 38.0326 61.839C41.0375 53.7539 37.2992 48.3708 35.4034 46.3123C35.0994 45.9745 34.7713 45.6592 34.4219 45.3686L45.1488 44.1768C47.9686 52.2689 51.5849 55.2542 54.8381 56.2105C56.7521 56.7714 58.5413 56.6312 59.9674 56.4209C61.8004 56.1276 63.6746 56.2231 65.4682 56.7013C69.773 57.8988 72.039 55.6062 73.2295 52.6966C74.7074 49.0845 74.5251 44.5231 74.5251 44.5231L80.6948 46.346C80.6948 46.346 80.1508 49.7253 79.6586 54.1661C79.5422 55.208 79.4286 56.3073 79.3263 57.4361C78.9056 62.1447 78.656 67.3511 79.1524 70.8847C79.6567 74.3765 79.4772 77.9331 78.6238 81.3564C78.2635 82.7189 77.6838 84.0137 76.9075 85.19C76.0114 86.5726 74.9107 89.6981 77.889 94.8653C82.0956 102.157 86.4425 116.459 86.4425 116.459L34.9856 116.458Z" fill="#FF3E79"/>
<path d="M80.6277 46.417C80.6277 46.417 85.722 54.4096 79.0376 61.2804C72.3533 68.1513 75.0189 58.476 75.0189 58.476L76.7016 47.2583L80.6277 46.417Z" fill="#EE3A71"/>
<path opacity="0.1" d="M35.4043 46.3126C35.7845 46.1923 36.1743 46.105 36.5695 46.0518C38.3924 46.9211 39.402 49.3343 39.9503 51.8541C40.3162 53.5631 40.3351 55.3282 40.0058 57.0447C39.6766 58.7612 39.0058 60.394 38.0334 61.8463C41.0384 53.7541 37.3001 48.371 35.4043 46.3126Z" fill="black"/>
<path opacity="0.1" d="M79.3288 57.437C76.335 57.6347 72.4243 57.2841 72.4243 57.2841C72.9515 59.6959 71.8634 61.5805 70.7416 62.8088C70.3127 63.2839 69.7713 63.6437 69.1671 63.8551C68.5629 64.0666 67.9154 64.1229 67.2838 64.0189C60.814 62.8972 50.9761 68.7865 50.9761 68.7865C50.9761 68.7865 43.9398 74.4696 36.5193 78.142C36.0986 71.5138 36.9483 64.2994 36.9483 64.2994C37.0689 64.0652 37.1825 63.8324 37.2919 63.5983C40.2898 63.0374 51.1822 60.8219 53.3542 57.5688C53.6767 57.085 54.1955 56.6321 54.8405 56.2114C56.6957 55.0111 59.6642 54.0703 62.4868 53.3832C65.9999 52.5214 69.6381 52.2907 73.2319 52.7017C74.7748 52.8784 76.3013 53.1762 77.7975 53.5921C78.451 53.773 79.082 53.9679 79.6611 54.1712C81.2484 54.7321 82.4515 55.3589 82.6604 56.0263C82.9422 56.9238 81.3423 57.3052 79.3288 57.437Z" fill="black"/>
<path opacity="0.1" d="M76.3308 56.5089C74.1728 56.4725 72.284 56.3028 72.284 56.3028C72.8112 58.7146 71.7231 60.5992 70.6014 61.8275C70.1724 62.3026 69.631 62.6624 69.0268 62.8738C68.4227 63.0852 67.7751 63.1416 67.1435 63.0376C64.7051 62.617 61.7871 63.1905 59.099 64.0668L54.6161 61.2105L50.7559 58.5463C51.8776 57.9448 52.7456 57.2843 53.2139 56.5832C54.4591 54.7155 58.5423 53.3259 62.3465 52.3976C67.339 51.1667 72.5625 51.2265 77.5255 52.5715L77.6573 52.6066C80.0957 53.2866 82.2355 54.1294 82.5201 55.0408C82.9296 56.3519 79.3652 56.5622 76.3308 56.5089Z" fill="black"/>
<path d="M36.4298 45.3477C36.4298 45.3477 29.0948 46.0936 26.9564 55.602C26.6258 57.0801 25.9589 58.462 25.0074 59.6404C22.8816 62.2667 19.3663 67.3806 19.5626 72.2897C19.843 79.3008 19.843 82.1052 29.0976 80.1421C38.3522 78.179 50.8319 68.0831 50.8319 68.0831C50.8319 68.0831 60.6698 62.2036 67.1396 63.3156C67.7712 63.4193 68.4187 63.3628 69.0228 63.1514C69.6269 62.94 70.1683 62.5804 70.5974 62.1055C71.7192 60.8771 72.8143 58.9926 72.2801 56.5808C72.2801 56.5808 83.2173 57.5623 82.5162 55.3188C82.2358 54.4073 80.0918 53.5646 77.6534 52.8859C72.6518 51.5071 67.3801 51.4346 62.3426 52.6756C58.5314 53.6053 54.4552 54.9949 53.21 56.8612C50.686 60.6472 36.3835 63.0309 36.3835 63.0309L36.8042 62.5584C38.1625 61.0244 39.1421 59.1931 39.6642 57.2118C40.1863 55.2304 40.2364 53.1542 39.8105 51.15C39.2636 48.6302 38.2583 46.217 36.4298 45.3477Z" fill="#E09999"/>
<path d="M34.4961 45.2951C34.4961 45.2951 34.0754 62.2618 40.3853 59.7379C46.6953 57.2139 41.7876 45.2951 41.7876 45.2951L38.9831 45.0146L34.4961 45.2951Z" fill="#EE3A71"/>
<path opacity="0.1" d="M53.3789 25.1214C57.5391 24.6595 61.6418 23.7777 65.6244 22.4894C66.648 22.1585 67.76 21.7182 68.2381 20.7563C68.3615 20.5081 68.454 20.2136 68.6966 20.0776C68.9028 19.9612 69.158 19.9977 69.3893 20.051C70.7565 20.3749 71.9301 21.2316 73.2328 21.7575C74.5354 22.2833 76.1943 22.4067 77.1954 21.4195C78.3775 20.2529 77.9863 18.2477 77.208 16.7824C74.3181 11.3306 67.5482 8.84169 61.3897 9.2932C60.5245 9.3563 59.6454 9.47268 58.8657 9.85408C57.2167 10.6463 56.3137 12.4089 55.4205 14.006C53.6832 17.1035 44.4973 26.1043 53.3789 25.1214Z" fill="black"/>
<path d="M53.3789 24.7014C57.5391 24.2396 61.6418 23.3578 65.6244 22.0695C66.648 21.7386 67.76 21.2983 68.2381 20.3364C68.3615 20.0882 68.454 19.7937 68.6966 19.6577C68.9028 19.5413 69.158 19.5778 69.3893 19.631C70.7565 19.9549 71.9301 20.8117 73.2328 21.3375C74.5354 21.8634 76.1943 21.9868 77.1954 20.9996C78.3775 19.833 77.9863 17.8278 77.208 16.3625C74.3181 10.9107 67.5482 8.42177 61.3897 8.87328C60.5245 8.93638 59.6454 9.05276 58.8657 9.43416C57.2167 10.2264 56.3137 11.989 55.4205 13.5861C53.6832 16.6836 44.4973 25.6844 53.3789 24.7014Z" fill="#40243E"/>
<path d="M143.762 39.5469H115.297C114.953 39.5469 114.623 39.6835 114.38 39.9268C114.137 40.17 114 40.4999 114 40.8439V57.5302C114 57.8742 114.137 58.2041 114.38 58.4474C114.623 58.6906 114.953 58.8273 115.297 58.8273H143.762C144.106 58.8273 144.436 58.6906 144.679 58.4474C144.922 58.2041 145.059 57.8742 145.059 57.5302V40.8439C145.059 40.4999 144.922 40.17 144.679 39.9268C144.436 39.6835 144.106 39.5469 143.762 39.5469Z" fill="url(#paint1_linear_1_5974)"/>
<path d="M143.025 39.7734H116.031C115.109 39.7734 114.361 40.5211 114.361 41.4435V56.9309C114.361 57.8532 115.109 58.6009 116.031 58.6009H143.025C143.948 58.6009 144.695 57.8532 144.695 56.9309V41.4435C144.695 40.5211 143.948 39.7734 143.025 39.7734Z" fill="#54514C"/>
<path d="M144.695 43.0693H114.361V46.5216H144.695V43.0693Z" fill="#FFAA00"/>
<path opacity="0.3" d="M144.695 43.0693H114.361V46.5216H144.695V43.0693Z" fill="black"/>
<path d="M141.817 49.083H117.236V50.7572H141.817V49.083Z" fill="#D6D6E3"/>
<path d="M119.277 57.3466C120.606 57.3466 121.683 56.2693 121.683 54.9404C121.683 53.6115 120.606 52.5342 119.277 52.5342C117.948 52.5342 116.871 53.6115 116.871 54.9404C116.871 56.2693 117.948 57.3466 119.277 57.3466Z" fill="#F2C94C"/>
<path opacity="0.3" d="M119.277 57.3466C120.606 57.3466 121.683 56.2693 121.683 54.9404C121.683 53.6115 120.606 52.5342 119.277 52.5342C117.948 52.5342 116.871 53.6115 116.871 54.9404C116.871 56.2693 117.948 57.3466 119.277 57.3466Z" fill="black"/>
<path opacity="0.05" d="M35.4766 63.1035C35.4766 63.1035 32.8124 64.5183 32.3707 66.2473C31.929 67.9762 31.4102 68.2917 31.4102 68.2917" fill="black"/>
<path opacity="0.05" d="M100.821 80.7715C100.821 80.7715 99.5587 85.1183 100.821 85.6792V80.7715Z" fill="black"/>
<path opacity="0.05" d="M37.8613 85.6793C37.8613 85.6793 48.7986 88.063 56.9314 83.1553H60.4369C60.4369 83.1553 70.9535 88.4837 76.0015 86.9412" fill="black"/>
<path d="M115.502 77.2474L113.381 82.1064L122.85 86.2393L124.971 81.3803L115.502 77.2474Z" fill="#8ED16F"/>
<path d="M121.139 82.6763C121.379 82.1256 120.681 81.2896 119.581 80.8091C118.48 80.3286 117.392 80.3856 117.152 80.9363C116.912 81.4871 117.609 82.3231 118.71 82.8036C119.811 83.2841 120.898 83.2271 121.139 82.6763Z" fill="#8ED16F"/>
<path opacity="0.1" d="M121.139 82.6763C121.379 82.1256 120.681 81.2896 119.581 80.8091C118.48 80.3286 117.392 80.3856 117.152 80.9363C116.912 81.4871 117.609 82.3231 118.71 82.8036C119.811 83.2841 120.898 83.2271 121.139 82.6763Z" fill="black"/>
<path d="M129.386 59.9358L127.266 64.7949L136.734 68.9278L138.855 64.0687L129.386 59.9358Z" fill="#8ED16F"/>
<path d="M135.025 65.3648C135.266 64.814 134.568 63.978 133.467 63.4975C132.366 63.0171 131.279 63.074 131.039 63.6248C130.798 64.1756 131.496 65.0116 132.597 65.4921C133.698 65.9726 134.785 65.9156 135.025 65.3648Z" fill="#8ED16F"/>
<path opacity="0.1" d="M135.025 65.3648C135.266 64.814 134.568 63.978 133.467 63.4975C132.366 63.0171 131.279 63.074 131.039 63.6248C130.798 64.1756 131.496 65.0116 132.597 65.4921C133.698 65.9726 134.785 65.9156 135.025 65.3648Z" fill="black"/>
<path d="M146.207 77.5222L141.004 78.542L142.991 88.6806L148.194 87.6608L146.207 77.5222Z" fill="#8ED16F"/>
<path d="M144.951 85.2486C145.541 85.133 145.832 84.0838 145.601 82.9051C145.37 81.7264 144.704 80.8646 144.115 80.9802C143.525 81.0957 143.234 82.145 143.465 83.3237C143.696 84.5024 144.362 85.3642 144.951 85.2486Z" fill="#8ED16F"/>
<path opacity="0.1" d="M144.951 85.2486C145.541 85.133 145.832 84.0838 145.601 82.9051C145.37 81.7264 144.704 80.8646 144.115 80.9802C143.525 81.0957 143.234 82.145 143.465 83.3237C143.696 84.5024 144.362 85.3642 144.951 85.2486Z" fill="black"/>
<path d="M127.488 101.034L125.367 105.893L134.836 110.025L136.957 105.166L127.488 101.034Z" fill="#8ED16F"/>
<path d="M133.131 106.461C133.371 105.911 132.674 105.075 131.573 104.594C130.472 104.114 129.385 104.171 129.144 104.721C128.904 105.272 129.601 106.108 130.702 106.589C131.803 107.069 132.89 107.012 133.131 106.461Z" fill="#8ED16F"/>
<path opacity="0.1" d="M133.131 106.461C133.371 105.911 132.674 105.075 131.573 104.594C130.472 104.114 129.385 104.171 129.144 104.721C128.904 105.272 129.601 106.108 130.702 106.589C131.803 107.069 132.89 107.012 133.131 106.461Z" fill="black"/>
<path d="M104.092 96.4407L101.971 101.3L111.44 105.433L113.56 100.574L104.092 96.4407Z" fill="#8ED16F"/>
<path d="M109.732 101.87C109.973 101.319 109.275 100.483 108.174 100.002C107.074 99.5219 105.986 99.5789 105.746 100.13C105.505 100.68 106.203 101.516 107.304 101.997C108.405 102.477 109.492 102.42 109.732 101.87Z" fill="#8ED16F"/>
<path opacity="0.1" d="M109.732 101.87C109.973 101.319 109.275 100.483 108.174 100.002C107.074 99.5219 105.986 99.5789 105.746 100.13C105.505 100.68 106.203 101.516 107.304 101.997C108.405 102.477 109.492 102.42 109.732 101.87Z" fill="black"/>
<defs>
<linearGradient id="paint0_linear_1_5974" x1="86.9023" y1="115.323" x2="21.8623" y2="-55.7486" gradientUnits="userSpaceOnUse">
<stop stop-color="#E0E0E0"/>
<stop offset="1" stop-color="white"/>
</linearGradient>
<linearGradient id="paint1_linear_1_5974" x1="30605.2" y1="8797.86" x2="30605.2" y2="6146.61" gradientUnits="userSpaceOnUse">
<stop stop-color="#808080" stop-opacity="0.25"/>
<stop offset="0.54" stop-color="#808080" stop-opacity="0.12"/>
<stop offset="1" stop-color="#808080" stop-opacity="0.1"/>
</linearGradient>
</defs>
</svg>
