<svg width="179" height="54" viewBox="0 0 179 54" fill="none" xmlns="http://www.w3.org/2000/svg">
<path d="M172.12 53.8657H6.74677C3.10855 53.8657 0.131836 50.8433 0.131836 47.1493V6.8508C0.131836 3.15677 3.10855 0.134384 6.74677 0.134384H172.12C175.758 0.134384 178.735 3.15677 178.735 6.8508V47.1493C178.735 50.8433 175.758 53.8657 172.12 53.8657Z" fill="white"/>
<path d="M172.12 0.134384H6.74677C3.10855 0.134384 0.131836 3.15677 0.131836 6.8508V47.1493C0.131836 50.8433 3.10855 53.8657 6.74677 53.8657H172.12C175.758 53.8657 178.735 50.8433 178.735 47.1493V6.8508C178.735 3.15677 175.758 0.134384 172.12 0.134384ZM172.12 1.20901C175.184 1.20901 177.677 3.74029 177.677 6.8508V47.1493C177.677 50.2603 175.184 52.7916 172.12 52.7916H6.74677C3.68326 52.7916 1.19022 50.2603 1.19022 47.1493V6.8508C1.19022 3.74029 3.68326 1.20901 6.74677 1.20901H172.12Z" fill="#A6A6A6"/>
<path d="M141.607 40.4327H144.075V23.6401H141.607V40.4327ZM163.842 29.6891L161.012 36.9696H160.928L157.991 29.6891H155.331L159.736 39.8649L157.225 45.5251H159.8L166.587 29.6891H163.842ZM149.842 38.5254C149.033 38.5254 147.906 38.115 147.906 37.0992C147.906 35.8031 149.311 35.3062 150.522 35.3062C151.609 35.3062 152.118 35.5438 152.778 35.8682C152.586 37.4235 151.267 38.5254 149.842 38.5254ZM150.14 29.3217C148.353 29.3217 146.502 30.1214 145.736 31.8929L147.927 32.8217C148.395 31.8929 149.267 31.5901 150.182 31.5901C151.459 31.5901 152.757 32.3683 152.778 33.7509V33.9236C152.331 33.6643 151.374 33.2756 150.204 33.2756C147.842 33.2756 145.437 34.5931 145.437 37.0561C145.437 39.303 147.374 40.7507 149.543 40.7507C151.204 40.7507 152.118 39.9945 152.693 39.1089H152.778V40.4049H155.161V33.9665C155.161 30.9857 152.97 29.3217 150.14 29.3217ZM134.883 31.7333H131.372V25.9772H134.883C136.729 25.9772 137.777 27.5287 137.777 28.8552C137.777 30.1566 136.729 31.7333 134.883 31.7333ZM134.82 23.6401H128.905V40.4327H131.372V34.0705H134.82C137.556 34.0705 140.245 32.0592 140.245 28.8552C140.245 25.6514 137.556 23.6401 134.82 23.6401ZM102.564 38.5285C100.859 38.5285 99.4308 37.0787 99.4308 35.0874C99.4308 33.0751 100.859 31.6033 102.564 31.6033C104.248 31.6033 105.569 33.0751 105.569 35.0874C105.569 37.0787 104.248 38.5285 102.564 38.5285ZM105.399 30.6294H105.313C104.76 29.9587 103.693 29.3528 102.351 29.3528C99.5373 29.3528 96.9585 31.863 96.9585 35.0874C96.9585 38.2903 99.5373 40.779 102.351 40.779C103.693 40.779 104.76 40.1729 105.313 39.4809H105.399V40.3031C105.399 42.4891 104.248 43.6577 102.394 43.6577C100.88 43.6577 99.9425 42.5536 99.5585 41.6233L97.4061 42.5321C98.0242 44.0469 99.6655 45.9082 102.394 45.9082C105.292 45.9082 107.743 44.1766 107.743 39.9568V29.6991H105.399V30.6294ZM109.448 40.4327H111.921V23.6395H109.448V40.4327ZM115.566 34.8927C115.502 32.6852 117.249 31.5602 118.507 31.5602C119.488 31.5602 120.319 32.0576 120.595 32.7724L115.566 34.8927ZM123.238 32.9885C122.77 31.7113 121.341 29.3528 118.421 29.3528C115.523 29.3528 113.114 31.6683 113.114 35.0659C113.114 38.2688 115.502 40.779 118.698 40.779C121.278 40.779 122.77 39.1775 123.388 38.2472L121.47 36.9485C120.831 37.9009 119.956 38.5285 118.698 38.5285C117.441 38.5285 116.546 37.944 115.97 36.7974L123.494 33.6376L123.238 32.9885ZM63.2963 31.1058V33.5294H69.0083C68.8378 34.8927 68.3902 35.8881 67.7081 36.5807C66.8771 37.425 65.5769 38.3553 63.2963 38.3553C59.7794 38.3553 57.0301 35.4772 57.0301 31.9065C57.0301 28.3358 59.7794 25.4572 63.2963 25.4572C65.1934 25.4572 66.5784 26.2149 67.6016 27.1887L69.2854 25.4793C67.8575 24.0939 65.9603 23.0336 63.2963 23.0336C58.4792 23.0336 54.4297 27.0156 54.4297 31.9065C54.4297 36.7974 58.4792 40.779 63.2963 40.779C65.8968 40.779 67.8575 39.9138 69.3919 38.2903C70.9691 36.6888 71.4596 34.4383 71.4596 32.6207C71.4596 32.0576 71.4171 31.5387 71.3314 31.1058H63.2963ZM77.9536 38.5285C76.2481 38.5285 74.7773 37.1002 74.7773 35.0659C74.7773 33.01 76.2481 31.6033 77.9536 31.6033C79.6584 31.6033 81.1291 33.01 81.1291 35.0659C81.1291 37.1002 79.6584 38.5285 77.9536 38.5285ZM77.9536 29.3528C74.8414 29.3528 72.3049 31.7548 72.3049 35.0659C72.3049 38.3553 74.8414 40.779 77.9536 40.779C81.0651 40.779 83.6015 38.3553 83.6015 35.0659C83.6015 31.7548 81.0651 29.3528 77.9536 29.3528ZM90.2748 38.5285C88.57 38.5285 87.0991 37.1002 87.0991 35.0659C87.0991 33.01 88.57 31.6033 90.2748 31.6033C91.9797 31.6033 93.4505 33.01 93.4505 35.0659C93.4505 37.1002 91.9797 38.5285 90.2748 38.5285ZM90.2748 29.3528C87.1627 29.3528 84.6268 31.7548 84.6268 35.0659C84.6268 38.3553 87.1627 40.779 90.2748 40.779C93.3865 40.779 95.9229 38.3553 95.9229 35.0659C95.9229 31.7548 93.3865 29.3528 90.2748 29.3528Z" fill="black"/>
<path d="M14.0358 43.6426L13.9375 43.5471C13.5525 43.1335 13.3252 42.4912 13.3252 41.6596V41.8553V12.1473C13.3252 12.1446 13.3252 12.1426 13.3252 12.1404C13.3252 12.143 13.3252 12.1451 13.3252 12.1478V12.3441C13.3252 11.4435 13.5902 10.7652 14.0342 10.3584L30.4257 27.001L14.0358 43.6426ZM13.3252 12.1388C13.3252 12.0648 13.3272 11.9929 13.3309 11.9221C13.3272 11.9924 13.3252 12.0648 13.3252 12.1388ZM13.3309 11.9189C13.3309 11.918 13.3309 11.9169 13.3313 11.9158C13.3309 11.9169 13.3309 11.918 13.3309 11.9189ZM13.3313 11.9095C13.3313 11.909 13.3313 11.9084 13.3313 11.9079C13.3313 11.9084 13.3313 11.909 13.3313 11.9095Z" fill="url(#paint0_linear_2528_3284)"/>
<path d="M35.8888 32.7471L36.0134 32.6752L42.4866 28.9407C43.1038 28.5845 43.5151 28.1526 43.7203 27.6957C43.5157 28.1526 43.1042 28.585 42.4866 28.9413L36.0134 32.6757L35.8888 32.7471ZM35.8904 32.5503L30.4258 27.0009L35.8898 21.4525L42.4866 25.2577C43.3244 25.741 43.7947 26.3639 43.8733 27.0004C43.8733 27.0009 43.8733 27.002 43.8733 27.0029C43.7947 27.6379 43.3244 28.2613 42.4866 28.7445L35.8904 32.5503Z" fill="url(#paint1_linear_2528_3284)"/>
<path d="M15.2047 44.2764C14.7468 44.2764 14.3473 44.1252 14.0357 43.8398L14.0363 43.8393C14.3478 44.1247 14.7479 44.2764 15.2058 44.2764C15.2455 44.2764 15.2858 44.2753 15.3267 44.2733C15.2853 44.2753 15.2444 44.2764 15.2047 44.2764ZM15.2052 44.0796C14.7474 44.0801 14.3478 43.9285 14.0363 43.643V43.6426L30.4262 27.0011L35.8908 32.5504L16.6874 43.6289C16.1561 43.9348 15.6527 44.0796 15.2052 44.0796ZM14.0316 43.8362C14.0026 43.8094 13.9742 43.7811 13.9463 43.7517L14.0316 43.8362Z" fill="url(#paint2_linear_2528_3284)"/>
<path d="M30.4257 27.001L14.0342 10.3584C14.3457 10.0735 14.7448 9.92234 15.2021 9.92234C15.6507 9.92234 16.1545 10.0677 16.6869 10.3741L35.8898 21.4525L30.4257 27.001ZM36.0133 21.3272L16.6869 10.178C16.1545 9.87142 15.6507 9.72608 15.2021 9.72608C15.2 9.72608 15.1985 9.72608 15.1964 9.72608C15.1991 9.72608 15.2011 9.72608 15.2042 9.72608C15.6518 9.72608 16.1551 9.87089 16.6869 10.1774L36.0133 21.3272Z" fill="url(#paint3_linear_2528_3284)"/>
<path d="M15.3262 44.2734C15.7422 44.2493 16.2027 44.1039 16.6869 43.8253L35.8887 32.7474L16.6869 43.8253C16.2031 44.1045 15.7422 44.2493 15.3262 44.2734ZM14.0353 43.84L14.0312 43.8363C14.0326 43.8374 14.0342 43.8389 14.0353 43.84ZM13.9458 43.7518L13.9375 43.7435V43.743C13.9407 43.7461 13.9432 43.7492 13.9458 43.7518Z" fill="white"/>
<path d="M35.8887 32.7471L36.0133 32.6752L35.8887 32.7471Z" fill="url(#paint4_linear_2528_3284)"/>
<path d="M15.2053 44.2764C14.7474 44.2764 14.3474 44.1247 14.0358 43.8393L14.0353 43.8398C14.0342 43.8387 14.0326 43.8372 14.0312 43.8362L13.9458 43.7517C13.9432 43.749 13.9407 43.7459 13.9375 43.7428L14.0358 43.643C14.3474 43.9285 14.7469 44.0801 15.2048 44.0796C15.6522 44.0796 16.1556 43.9348 16.6869 43.6289L35.8903 32.5504L36.0134 32.6754L35.8887 32.7472L16.6869 43.8252C16.2027 44.1038 15.7422 44.2491 15.3262 44.2733C15.2854 44.2753 15.245 44.2764 15.2053 44.2764Z" fill="url(#paint5_linear_2528_3284)"/>
<path d="M13.9375 43.7432C13.5525 43.3296 13.3252 42.6873 13.3252 41.8557V41.8552C13.3252 42.6873 13.5525 43.329 13.9375 43.7426V43.7432Z" fill="white"/>
<path d="M13.9375 43.7427C13.5525 43.3291 13.3252 42.6874 13.3252 41.8552V41.6595C13.3252 42.4911 13.5525 43.1334 13.9375 43.547L14.0358 43.6425L13.9375 43.7427Z" fill="url(#paint6_linear_2528_3284)"/>
<path d="M13.9375 43.7427L14.0358 43.6425V43.6429L13.9375 43.7427Z" fill="url(#paint7_linear_2528_3284)"/>
<path d="M43.7207 27.6958C43.8224 27.4691 43.8736 27.2361 43.8736 27.0031C43.8736 27.0027 43.8736 27.0021 43.8736 27.0021C43.8736 27.2356 43.8224 27.4685 43.7207 27.6958Z" fill="white"/>
<path d="M36.0137 32.6753L35.8906 32.5504L42.4869 28.7446C43.3246 28.2614 43.7949 27.638 43.8735 27.003C43.8735 27.2361 43.8223 27.469 43.7206 27.6957C43.5154 28.1527 43.1041 28.5846 42.4869 28.9408L36.0137 32.6753Z" fill="url(#paint8_linear_2528_3284)"/>
<path d="M43.8741 27.001V27.0004C43.8735 26.2978 43.411 25.5952 42.4874 25.0621L36.0142 21.3276H36.0137L36.0142 21.3272L42.4874 25.0615C43.4121 25.5947 43.8751 26.2983 43.8741 27.001Z" fill="#404040"/>
<path d="M43.874 27.0005C43.7955 26.364 43.3251 25.7412 42.4874 25.2578L35.8906 21.4526L36.0137 21.3277H36.0142L42.4874 25.0621C43.411 25.5953 43.8735 26.2978 43.874 27.0005Z" fill="url(#paint9_linear_2528_3284)"/>
<path d="M13.3252 12.1406C13.3252 12.1401 13.3252 12.1396 13.3252 12.139C13.3252 12.1396 13.3252 12.1401 13.3252 12.1406ZM13.3309 11.9223C13.3309 11.9213 13.3309 11.9202 13.3309 11.9191C13.3309 11.9202 13.3309 11.9213 13.3309 11.9223ZM13.3313 11.916C13.3313 11.9139 13.3313 11.9119 13.3313 11.9097C13.3313 11.9119 13.3313 11.9139 13.3313 11.916ZM13.3313 11.9081C13.4079 10.5282 14.1469 9.73105 15.1923 9.72634C14.7391 9.72903 14.3443 9.88015 14.0352 10.1629V10.1624L14.0315 10.1661C13.999 10.196 13.968 10.2275 13.9375 10.26C13.5902 10.6331 13.3711 11.1919 13.3313 11.9081Z" fill="#404040"/>
<path d="M13.3252 12.3442V12.148C13.3252 12.1453 13.3252 12.1431 13.3252 12.1406C13.3252 12.1401 13.3252 12.1395 13.3252 12.139C13.3252 12.065 13.3272 11.9926 13.3309 11.9223C13.3309 11.9212 13.3309 11.9202 13.3309 11.9191C13.3309 11.9182 13.3309 11.9171 13.3313 11.916C13.3313 11.9139 13.3313 11.9118 13.3313 11.9097C13.3313 11.9092 13.3313 11.9086 13.3313 11.9081C13.3711 11.1918 13.5902 10.633 13.9375 10.26L14.0342 10.3586C13.5902 10.7653 13.3252 11.4437 13.3252 12.3442ZM14.0315 10.1661L14.0352 10.1623C14.0342 10.164 14.0326 10.165 14.0315 10.1661Z" fill="url(#paint10_linear_2528_3284)"/>
<path d="M35.8898 21.4526L16.6869 10.3742C16.1546 10.0678 15.6508 9.92243 15.2021 9.92243C14.7448 9.92243 14.3458 10.0735 14.0342 10.3585L13.9375 10.2599C13.9681 10.2274 13.999 10.1958 14.0316 10.166C14.0326 10.1649 14.0342 10.1638 14.0353 10.1627C14.3443 9.87998 14.7391 9.72886 15.1924 9.72617C15.1934 9.72617 15.1949 9.72617 15.1965 9.72617C15.1986 9.72617 15.2 9.72617 15.2021 9.72617C15.6508 9.72617 16.1546 9.87151 16.6869 10.1781L36.0134 21.3273L36.0128 21.3277L35.8898 21.4526Z" fill="url(#paint11_linear_2528_3284)"/>
<path d="M55.9258 18V9.41016H58.8848C59.5527 9.41016 60.0625 9.45117 60.4141 9.5332C60.9062 9.64648 61.3262 9.85156 61.6738 10.1484C62.127 10.5312 62.4648 11.0215 62.6875 11.6191C62.9141 12.2129 63.0273 12.8926 63.0273 13.6582C63.0273 14.3105 62.9512 14.8887 62.7988 15.3926C62.6465 15.8965 62.4512 16.3145 62.2129 16.6465C61.9746 16.9746 61.7129 17.2344 61.4277 17.4258C61.1465 17.6133 60.8047 17.7559 60.4023 17.8535C60.0039 17.9512 59.5449 18 59.0254 18H55.9258ZM57.0625 16.9863H58.8965C59.4629 16.9863 59.9062 16.9336 60.2266 16.8281C60.5508 16.7227 60.8086 16.5742 61 16.3828C61.2695 16.1133 61.4785 15.752 61.627 15.2988C61.7793 14.8418 61.8555 14.2891 61.8555 13.6406C61.8555 12.7422 61.707 12.0527 61.4102 11.5723C61.1172 11.0879 60.7598 10.7637 60.3379 10.5996C60.0332 10.4824 59.543 10.4238 58.8672 10.4238H57.0625V16.9863Z" fill="black"/>
<path d="M64.791 18V9.41016H65.9277V18H64.791Z" fill="black"/>
<path d="M67.5508 15.2402L68.623 15.1465C68.6738 15.5762 68.791 15.9297 68.9746 16.207C69.1621 16.4805 69.4512 16.7031 69.8418 16.875C70.2324 17.043 70.6719 17.127 71.1602 17.127C71.5938 17.127 71.9766 17.0625 72.3086 16.9336C72.6406 16.8047 72.8867 16.6289 73.0469 16.4062C73.2109 16.1797 73.293 15.9336 73.293 15.668C73.293 15.3984 73.2148 15.1641 73.0586 14.9648C72.9023 14.7617 72.6445 14.5918 72.2852 14.4551C72.0547 14.3652 71.5449 14.2266 70.7559 14.0391C69.9668 13.8477 69.4141 13.668 69.0977 13.5C68.6875 13.2852 68.3809 13.0195 68.1777 12.7031C67.9785 12.3828 67.8789 12.0254 67.8789 11.6309C67.8789 11.1973 68.002 10.793 68.248 10.418C68.4941 10.0391 68.8535 9.75195 69.3262 9.55664C69.7988 9.36133 70.3242 9.26367 70.9023 9.26367C71.5391 9.26367 72.0996 9.36719 72.584 9.57422C73.0723 9.77734 73.4473 10.0781 73.709 10.4766C73.9707 10.875 74.1113 11.3262 74.1309 11.8301L73.041 11.9121C72.9824 11.3691 72.7832 10.959 72.4434 10.6816C72.1074 10.4043 71.6094 10.2656 70.9492 10.2656C70.2617 10.2656 69.7598 10.3926 69.4434 10.6465C69.1309 10.8965 68.9746 11.1992 68.9746 11.5547C68.9746 11.8633 69.0859 12.1172 69.3086 12.3164C69.5273 12.5156 70.0977 12.7207 71.0195 12.9316C71.9453 13.1387 72.5801 13.3203 72.9238 13.4766C73.4238 13.707 73.793 14 74.0312 14.3555C74.2695 14.707 74.3887 15.1133 74.3887 15.5742C74.3887 16.0312 74.2578 16.4629 73.9961 16.8691C73.7344 17.2715 73.3574 17.5859 72.8652 17.8125C72.377 18.0352 71.8262 18.1465 71.2129 18.1465C70.4355 18.1465 69.7832 18.0332 69.2559 17.8066C68.7324 17.5801 68.3203 17.2402 68.0195 16.7871C67.7227 16.3301 67.5664 15.8145 67.5508 15.2402Z" fill="black"/>
<path d="M75.9414 18V9.41016H79.1816C79.752 9.41016 80.1875 9.4375 80.4883 9.49219C80.9102 9.5625 81.2637 9.69727 81.5488 9.89648C81.834 10.0918 82.0625 10.3672 82.2344 10.7227C82.4102 11.0781 82.498 11.4688 82.498 11.8945C82.498 12.625 82.2656 13.2441 81.8008 13.752C81.3359 14.2559 80.4961 14.5078 79.2812 14.5078H77.0781V18H75.9414ZM77.0781 13.4941H79.2988C80.0332 13.4941 80.5547 13.3574 80.8633 13.084C81.1719 12.8105 81.3262 12.4258 81.3262 11.9297C81.3262 11.5703 81.2344 11.2637 81.0508 11.0098C80.8711 10.752 80.6328 10.582 80.3359 10.5C80.1445 10.4492 79.791 10.4238 79.2754 10.4238H77.0781V13.4941Z" fill="black"/>
<path d="M83.5996 13.8164C83.5996 12.3906 83.9824 11.2754 84.748 10.4707C85.5137 9.66211 86.502 9.25781 87.7129 9.25781C88.5059 9.25781 89.2207 9.44727 89.8574 9.82617C90.4941 10.2051 90.9785 10.7344 91.3105 11.4141C91.6465 12.0898 91.8145 12.8574 91.8145 13.7168C91.8145 14.5879 91.6387 15.3672 91.2871 16.0547C90.9355 16.7422 90.4375 17.2637 89.793 17.6191C89.1484 17.9707 88.4531 18.1465 87.707 18.1465C86.8984 18.1465 86.1758 17.9512 85.5391 17.5605C84.9023 17.1699 84.4199 16.6367 84.0918 15.9609C83.7637 15.2852 83.5996 14.5703 83.5996 13.8164ZM84.7715 13.834C84.7715 14.8691 85.0488 15.6855 85.6035 16.2832C86.1621 16.877 86.8613 17.1738 87.7012 17.1738C88.5566 17.1738 89.2598 16.873 89.8105 16.2715C90.3652 15.6699 90.6426 14.8164 90.6426 13.7109C90.6426 13.0117 90.5234 12.4023 90.2852 11.8828C90.0508 11.3594 89.7051 10.9551 89.248 10.6699C88.7949 10.3809 88.2852 10.2363 87.7188 10.2363C86.9141 10.2363 86.2207 10.5137 85.6387 11.0684C85.0605 11.6191 84.7715 12.541 84.7715 13.834Z" fill="black"/>
<path d="M93.2734 18V9.41016H94.4395L98.9512 16.1543V9.41016H100.041V18H98.875L94.3633 11.25V18H93.2734Z" fill="black"/>
<path d="M102.15 18V9.41016H103.287V18H102.15Z" fill="black"/>
<path d="M105.25 18V9.41016H108.473C109.129 9.41016 109.654 9.49805 110.049 9.67383C110.447 9.8457 110.758 10.1133 110.98 10.4766C111.207 10.8359 111.32 11.2129 111.32 11.6074C111.32 11.9746 111.221 12.3203 111.021 12.6445C110.822 12.9688 110.521 13.2305 110.119 13.4297C110.639 13.582 111.037 13.8418 111.314 14.209C111.596 14.5762 111.736 15.0098 111.736 15.5098C111.736 15.9121 111.65 16.2871 111.479 16.6348C111.311 16.9785 111.102 17.2441 110.852 17.4316C110.602 17.6191 110.287 17.7617 109.908 17.8594C109.533 17.9531 109.072 18 108.525 18H105.25ZM106.387 13.0195H108.244C108.748 13.0195 109.109 12.9863 109.328 12.9199C109.617 12.834 109.834 12.6914 109.979 12.4922C110.127 12.293 110.201 12.043 110.201 11.7422C110.201 11.457 110.133 11.207 109.996 10.9922C109.859 10.7734 109.664 10.625 109.41 10.5469C109.156 10.4648 108.721 10.4238 108.104 10.4238H106.387V13.0195ZM106.387 16.9863H108.525C108.893 16.9863 109.15 16.9727 109.299 16.9453C109.561 16.8984 109.779 16.8203 109.955 16.7109C110.131 16.6016 110.275 16.4434 110.389 16.2363C110.502 16.0254 110.559 15.7832 110.559 15.5098C110.559 15.1895 110.477 14.9121 110.312 14.6777C110.148 14.4395 109.92 14.2734 109.627 14.1797C109.338 14.082 108.92 14.0332 108.373 14.0332H106.387V16.9863Z" fill="black"/>
<path d="M113.254 18V9.41016H114.391V16.9863H118.621V18H113.254Z" fill="black"/>
<path d="M120.004 18V9.41016H126.215V10.4238H121.141V13.0547H125.893V14.0625H121.141V16.9863H126.414V18H120.004Z" fill="black"/>
<path d="M130.938 15.2402L132.01 15.1465C132.061 15.5762 132.178 15.9297 132.361 16.207C132.549 16.4805 132.838 16.7031 133.229 16.875C133.619 17.043 134.059 17.127 134.547 17.127C134.98 17.127 135.363 17.0625 135.695 16.9336C136.027 16.8047 136.273 16.6289 136.434 16.4062C136.598 16.1797 136.68 15.9336 136.68 15.668C136.68 15.3984 136.602 15.1641 136.445 14.9648C136.289 14.7617 136.031 14.5918 135.672 14.4551C135.441 14.3652 134.932 14.2266 134.143 14.0391C133.354 13.8477 132.801 13.668 132.484 13.5C132.074 13.2852 131.768 13.0195 131.564 12.7031C131.365 12.3828 131.266 12.0254 131.266 11.6309C131.266 11.1973 131.389 10.793 131.635 10.418C131.881 10.0391 132.24 9.75195 132.713 9.55664C133.186 9.36133 133.711 9.26367 134.289 9.26367C134.926 9.26367 135.486 9.36719 135.971 9.57422C136.459 9.77734 136.834 10.0781 137.096 10.4766C137.357 10.875 137.498 11.3262 137.518 11.8301L136.428 11.9121C136.369 11.3691 136.17 10.959 135.83 10.6816C135.494 10.4043 134.996 10.2656 134.336 10.2656C133.648 10.2656 133.146 10.3926 132.83 10.6465C132.518 10.8965 132.361 11.1992 132.361 11.5547C132.361 11.8633 132.473 12.1172 132.695 12.3164C132.914 12.5156 133.484 12.7207 134.406 12.9316C135.332 13.1387 135.967 13.3203 136.311 13.4766C136.811 13.707 137.18 14 137.418 14.3555C137.656 14.707 137.775 15.1133 137.775 15.5742C137.775 16.0312 137.645 16.4629 137.383 16.8691C137.121 17.2715 136.744 17.5859 136.252 17.8125C135.764 18.0352 135.213 18.1465 134.6 18.1465C133.822 18.1465 133.17 18.0332 132.643 17.8066C132.119 17.5801 131.707 17.2402 131.406 16.7871C131.109 16.3301 130.953 15.8145 130.938 15.2402Z" fill="black"/>
<path d="M144.965 9.41016H146.102V14.373C146.102 15.2363 146.004 15.9219 145.809 16.4297C145.613 16.9375 145.26 17.3516 144.748 17.6719C144.24 17.9883 143.572 18.1465 142.744 18.1465C141.939 18.1465 141.281 18.0078 140.77 17.7305C140.258 17.4531 139.893 17.0527 139.674 16.5293C139.455 16.002 139.346 15.2832 139.346 14.373V9.41016H140.482V14.3672C140.482 15.1133 140.551 15.6641 140.688 16.0195C140.828 16.3711 141.066 16.6426 141.402 16.834C141.742 17.0254 142.156 17.1211 142.645 17.1211C143.48 17.1211 144.076 16.9316 144.432 16.5527C144.787 16.1738 144.965 15.4453 144.965 14.3672V9.41016Z" fill="black"/>
<path d="M148.018 18V9.41016H151.826C152.592 9.41016 153.174 9.48828 153.572 9.64453C153.971 9.79688 154.289 10.0684 154.527 10.459C154.766 10.8496 154.885 11.2812 154.885 11.7539C154.885 12.3633 154.688 12.877 154.293 13.2949C153.898 13.7129 153.289 13.9785 152.465 14.0918C152.766 14.2363 152.994 14.3789 153.15 14.5195C153.482 14.8242 153.797 15.2051 154.094 15.6621L155.588 18H154.158L153.021 16.2129C152.689 15.6973 152.416 15.3027 152.201 15.0293C151.986 14.7559 151.793 14.5645 151.621 14.4551C151.453 14.3457 151.281 14.2695 151.105 14.2266C150.977 14.1992 150.766 14.1855 150.473 14.1855H149.154V18H148.018ZM149.154 13.2012H151.598C152.117 13.2012 152.523 13.1484 152.816 13.043C153.109 12.9336 153.332 12.7617 153.484 12.5273C153.637 12.2891 153.713 12.0312 153.713 11.7539C153.713 11.3477 153.564 11.0137 153.268 10.752C152.975 10.4902 152.51 10.3594 151.873 10.3594H149.154V13.2012Z" fill="black"/>
<defs>
<linearGradient id="paint0_linear_2528_3284" x1="28.9723" y1="11.8339" x2="6.43124" y2="34.0343" gradientUnits="userSpaceOnUse">
<stop stop-color="#00A0FF"/>
<stop offset="0.00657445" stop-color="#00A1FF"/>
<stop offset="0.2601" stop-color="#00BEFF"/>
<stop offset="0.5122" stop-color="#00D2FF"/>
<stop offset="0.7604" stop-color="#00DFFF"/>
<stop offset="1" stop-color="#00E3FF"/>
</linearGradient>
<linearGradient id="paint1_linear_2528_3284" x1="44.894" y1="27.0017" x2="12.8817" y2="27.0017" gradientUnits="userSpaceOnUse">
<stop stop-color="#FFE000"/>
<stop offset="0.4087" stop-color="#FFBD00"/>
<stop offset="0.7754" stop-color="#FFA500"/>
<stop offset="1" stop-color="#FF9C00"/>
</linearGradient>
<linearGradient id="paint2_linear_2528_3284" x1="32.9777" y1="30.0843" x2="2.4104" y2="60.1897" gradientUnits="userSpaceOnUse">
<stop stop-color="#FF3A44"/>
<stop offset="1" stop-color="#C31162"/>
</linearGradient>
<linearGradient id="paint3_linear_2528_3284" x1="9.78568" y1="0.37092" x2="23.4352" y2="13.8142" gradientUnits="userSpaceOnUse">
<stop stop-color="#32A071"/>
<stop offset="0.0685" stop-color="#2DA771"/>
<stop offset="0.4762" stop-color="#15CF74"/>
<stop offset="0.8009" stop-color="#06E775"/>
<stop offset="1" stop-color="#00F076"/>
</linearGradient>
<linearGradient id="paint4_linear_2528_3284" x1="44.8936" y1="27.0021" x2="12.8821" y2="27.0021" gradientUnits="userSpaceOnUse">
<stop stop-color="#CCB300"/>
<stop offset="0.4087" stop-color="#CC9700"/>
<stop offset="0.7754" stop-color="#CC8400"/>
<stop offset="1" stop-color="#CC7D00"/>
</linearGradient>
<linearGradient id="paint5_linear_2528_3284" x1="32.9772" y1="30.0843" x2="2.40994" y2="60.1897" gradientUnits="userSpaceOnUse">
<stop stop-color="#CC2E36"/>
<stop offset="1" stop-color="#9C0E4E"/>
</linearGradient>
<linearGradient id="paint6_linear_2528_3284" x1="28.9723" y1="11.8338" x2="6.43129" y2="34.0343" gradientUnits="userSpaceOnUse">
<stop stop-color="#008DE0"/>
<stop offset="0.00657445" stop-color="#008DE0"/>
<stop offset="0.2601" stop-color="#00A7E0"/>
<stop offset="0.5122" stop-color="#00B8E0"/>
<stop offset="0.7604" stop-color="#00C4E0"/>
<stop offset="1" stop-color="#00C7E0"/>
</linearGradient>
<linearGradient id="paint7_linear_2528_3284" x1="32.9778" y1="30.0848" x2="2.41188" y2="60.1912" gradientUnits="userSpaceOnUse">
<stop stop-color="#E0333C"/>
<stop offset="1" stop-color="#AB0F56"/>
</linearGradient>
<linearGradient id="paint8_linear_2528_3284" x1="44.8942" y1="27.0018" x2="12.8819" y2="27.0018" gradientUnits="userSpaceOnUse">
<stop stop-color="#E0C500"/>
<stop offset="0.4087" stop-color="#E0A600"/>
<stop offset="0.7754" stop-color="#E09100"/>
<stop offset="1" stop-color="#E08900"/>
</linearGradient>
<linearGradient id="paint9_linear_2528_3284" x1="44.8947" y1="27.0018" x2="12.8825" y2="27.0018" gradientUnits="userSpaceOnUse">
<stop stop-color="#FFE840"/>
<stop offset="0.4087" stop-color="#FFCE40"/>
<stop offset="0.7754" stop-color="#FFBC40"/>
<stop offset="1" stop-color="#FFB540"/>
</linearGradient>
<linearGradient id="paint10_linear_2528_3284" x1="28.9723" y1="11.8341" x2="6.43124" y2="34.0345" gradientUnits="userSpaceOnUse">
<stop stop-color="#40B8FF"/>
<stop offset="0.00657445" stop-color="#40B9FF"/>
<stop offset="0.2601" stop-color="#40CEFF"/>
<stop offset="0.5122" stop-color="#40DDFF"/>
<stop offset="0.7604" stop-color="#40E7FF"/>
<stop offset="1" stop-color="#40EAFF"/>
</linearGradient>
<linearGradient id="paint11_linear_2528_3284" x1="9.78571" y1="0.371007" x2="23.4352" y2="13.8143" gradientUnits="userSpaceOnUse">
<stop stop-color="#65B895"/>
<stop offset="0.0685" stop-color="#62BD95"/>
<stop offset="0.4762" stop-color="#50DB97"/>
<stop offset="0.8009" stop-color="#44ED98"/>
<stop offset="1" stop-color="#40F498"/>
</linearGradient>
</defs>
</svg>
