<svg width="24" height="24" viewBox="0 0 24 24" fill="none" xmlns="http://www.w3.org/2000/svg">
<path d="M23.6867 0.312703C23.6855 0.311578 23.6843 0.310594 23.6831 0.309469C23.4846 0.112734 23.2111 0 22.9318 0H22.9304C22.6891 0 22.4528 0.0829688 22.2653 0.233391C19.713 2.27199 17.1513 4.37621 14.651 6.48746C14.043 7.00079 13.4346 7.51815 12.8266 8.03836L5.88548 1.0973C5.20007 0.411985 4.08491 0.412078 3.39955 1.0973L0.102973 4.39392C-0.0343242 4.53127 -0.0343242 4.75383 0.102973 4.89113C0.24027 5.02838 0.462879 5.02838 0.600129 4.89113L2.9024 2.58891L3.40551 3.09202L1.10329 5.39424C0.965989 5.53158 0.965989 5.75414 1.10329 5.89144C1.17191 5.96007 1.26191 5.99438 1.35186 5.99438C1.44182 5.99438 1.53182 5.96007 1.60044 5.89144L3.90271 3.58922L4.40582 4.09233L2.10355 6.39455C1.96626 6.5319 1.96626 6.75446 2.10355 6.89175C2.17218 6.96038 2.26218 6.99469 2.35213 6.99469C2.44208 6.99469 2.53208 6.96038 2.60071 6.89175L4.90298 4.58949L5.40609 5.0926L3.10387 7.39482C2.96657 7.53216 2.96657 7.75472 3.10387 7.89202C3.17249 7.96065 3.26249 7.99496 3.35244 7.99496C3.4424 7.99496 3.5324 7.96065 3.60102 7.89202L5.90324 5.5898L6.40635 6.09291L4.10413 8.39513C3.96683 8.53247 3.96683 8.75504 4.10413 8.89233C4.17276 8.96096 4.26276 8.99527 4.35271 8.99527C4.44266 8.99527 4.53266 8.96096 4.60129 8.89233L6.90351 6.59011L7.40662 7.09322L5.1044 9.39544C4.9671 9.53279 4.9671 9.75535 5.1044 9.89265C5.17302 9.96127 5.26302 9.99558 5.35298 9.99558C5.44293 9.99558 5.53293 9.96127 5.60155 9.89265L7.90377 7.59043L8.40688 8.09354L6.10466 10.3958C5.96737 10.5331 5.96737 10.7557 6.10466 10.893C6.17329 10.9616 6.26329 10.9959 6.35324 10.9959C6.4432 10.9959 6.5332 10.9616 6.60182 10.893L8.90404 8.59074L9.4072 9.0939L7.10498 11.3961C6.96768 11.5335 6.96768 11.756 7.10498 11.8933C7.1736 11.9619 7.2636 11.9963 7.35356 11.9963C7.44351 11.9963 7.53351 11.9619 7.60213 11.8933L9.9044 9.59105L10.4252 10.1119C9.34574 11.052 8.27184 11.9976 7.21002 12.9444C7.20956 12.9444 7.20956 12.9444 7.20956 12.945C6.89413 13.2255 6.55007 13.5487 6.21065 13.8548C6.00271 14.0052 6.04232 14.2696 6.14549 14.3728C6.14549 14.3728 6.14549 14.3732 6.14596 14.3732C6.4844 14.7829 6.67143 15.3061 6.67143 15.8469C6.67143 16.4793 6.42815 17.0709 5.98616 17.5124C5.98171 17.5169 4.93044 18.5682 4.92585 18.5727C3.39702 20.1372 0.704661 19.0696 0.703114 16.8539C0.704051 15.5087 1.79047 14.3977 3.16307 14.3967C3.91068 14.3972 4.60865 14.73 5.07787 15.3089C5.20513 15.4658 5.4388 15.4827 5.58693 15.3483C5.5888 15.3469 5.59021 15.3455 5.59209 15.3436L5.59537 15.3407C5.76004 15.1927 5.74841 14.9259 5.56443 14.7942C4.96349 14.0948 4.08927 13.6936 3.16541 13.6936H3.16072C1.403 13.6936 -0.00202735 15.1249 3.51515e-05 16.8539C-0.00151172 18.1568 0.794661 19.3075 1.97249 19.7859C2.67186 20.0692 3.43799 20.0887 4.13005 19.8668C3.47043 21.9188 5.00563 24 7.13938 24H7.14313C8.8867 24 10.3077 22.5885 10.3057 20.8378C10.3067 20.0058 9.98606 19.2206 9.40434 18.6262C9.40467 18.6258 10.1222 17.8102 10.1222 17.8102C11.3887 16.4008 12.6416 14.985 13.8792 13.5657L14.4089 14.0954L12.1067 16.3976C11.9694 16.535 11.9694 16.7575 12.1067 16.8948C12.1754 16.9635 12.2654 16.9978 12.3553 16.9978C12.4453 16.9978 12.5353 16.9635 12.6039 16.8948L14.9062 14.5926L15.4093 15.0957L13.107 17.3979C12.9697 17.5353 12.9697 17.7579 13.107 17.8952C13.1757 17.9638 13.2657 17.9981 13.3557 17.9981C13.4456 17.9981 13.5356 17.9638 13.6043 17.8952L15.9065 15.5929L16.4096 16.096L14.1074 18.3982C13.9701 18.5356 13.9701 18.7581 14.1074 18.8954C14.176 18.964 14.266 18.9984 14.356 18.9984C14.4459 18.9984 14.5359 18.964 14.6046 18.8954L16.9068 16.5932L17.4099 17.0963L15.1077 19.3985C14.9704 19.5359 14.9704 19.7584 15.1077 19.8957C15.1763 19.9644 15.2663 19.9987 15.3563 19.9987C15.4462 19.9987 15.5362 19.9644 15.6049 19.8957L17.9071 17.5935L18.4103 18.0966L16.108 20.3988C15.9707 20.5361 15.9707 20.7587 16.108 20.896C16.1767 20.9646 16.2667 20.9989 16.3567 20.9989C16.4466 20.9989 16.5366 20.9646 16.6053 20.896L18.9075 18.5938L19.4106 19.0968L17.1083 21.3991C16.971 21.5364 16.971 21.759 17.1083 21.8963C17.177 21.9649 17.267 21.9992 17.357 21.9992C17.4469 21.9992 17.5369 21.9649 17.6056 21.8963L19.9078 19.594L20.4109 20.0971L18.1087 22.3993C17.9714 22.5367 17.9714 22.7592 18.1087 22.8965C18.1773 22.9652 18.2673 22.9995 18.3573 22.9995C18.4472 22.9995 18.5372 22.9652 18.6059 22.8965L20.9081 20.5943L21.4112 21.0974L19.109 23.3996C18.9717 23.5369 18.9717 23.7595 19.109 23.8968C19.1776 23.9654 19.2676 23.9997 19.3576 23.9997C19.4475 23.9997 19.5375 23.9654 19.6062 23.8968L22.1567 21.3463C22.1568 21.3462 22.1569 21.346 22.1571 21.346C22.1572 21.3459 22.1573 21.3457 22.1574 21.3456L22.9028 20.6002C23.2348 20.2682 23.4177 19.8267 23.4177 19.3572C23.4177 18.8876 23.2348 18.4462 22.9028 18.1142L15.954 11.1659C18.6495 8.0214 21.2626 4.86741 23.7663 1.73391C24.1061 1.3087 24.0718 0.697735 23.6867 0.312703ZM3.3996 2.0917L3.89676 1.59455C4.30794 1.18336 4.97709 1.18336 5.38832 1.59455L12.2915 8.49779C11.8462 8.88038 11.4012 9.26401 10.9571 9.64927L3.3996 2.0917ZM22.4055 18.6117C22.6047 18.8109 22.7145 19.0757 22.7145 19.3575C22.7145 19.6392 22.6047 19.904 22.4055 20.1032L21.9083 20.6004C21.676 20.3681 14.8408 13.5328 14.342 13.0341C14.7277 12.59 15.1122 12.1457 15.4948 11.7011L22.4055 18.6117ZM9.79481 17.1218C9.62442 16.9913 9.1701 16.7655 9.09454 16.124C9.07345 15.9469 8.92392 15.8137 8.74626 15.8137C8.53387 15.8137 8.37201 15.9982 8.3961 16.2066C8.39657 16.2066 8.39657 16.2066 8.39657 16.2066C8.4636 16.7798 8.77485 17.2866 9.25017 17.5964C9.27501 17.6128 9.29985 17.6297 9.32563 17.6484C9.08179 17.9266 8.88051 18.1608 8.6497 18.4157C8.58548 18.487 8.55267 18.583 8.56017 18.6787C8.5672 18.7743 8.61454 18.8643 8.68907 18.9248C9.27909 19.4064 9.6021 20.0996 9.60267 20.8378C9.60168 22.1927 8.5102 23.2959 7.14177 23.2968C5.78924 23.2951 4.68088 22.205 4.68088 20.8378C4.68248 19.7251 5.38621 19.1292 5.44026 19.0528L6.48323 18.0098C7.05782 17.4352 7.37474 16.6578 7.37474 15.8469C7.37521 15.2544 7.20552 14.6821 6.88495 14.1928C7.1602 13.9411 7.39959 13.7177 7.6776 13.4699L7.67901 13.468C15.3015 6.67154 22.6144 0.829172 22.7518 0.750469C22.6576 0.844735 8.94079 14.5556 8.87751 14.6269C8.7486 14.7722 8.7622 14.9949 8.90704 15.1233C9.05264 15.2529 9.27562 15.2378 9.40345 15.0938C9.44549 15.0459 23.1486 1.3478 23.249 1.24734C23.2203 1.29792 17.5585 8.46933 9.79481 17.1218Z" fill="#54514C" fill-opacity="0.75"/>
<path d="M4.40719 15.6129C3.29827 14.5041 1.40616 15.3031 1.40625 16.8556C1.40625 17.3249 1.5892 17.7662 1.92141 18.0984C2.26411 18.441 2.71411 18.6123 3.1643 18.6123C3.61435 18.6123 4.06453 18.441 4.40719 18.0984C5.0933 17.4124 5.09339 16.299 4.40719 15.6129ZM3.91008 17.6011C3.49884 18.0122 2.82975 18.0123 2.41852 17.6011C1.75992 16.9426 2.22108 15.8017 3.1643 15.8017C4.11024 15.8018 4.56567 16.9456 3.91008 17.6011Z" fill="#54514C" fill-opacity="0.75"/>
<path d="M7.14264 19.0801C6.41978 19.0801 5.79882 19.4951 5.52207 20.1633C5.24396 20.8347 5.38871 21.5693 5.89979 22.0803C6.23926 22.4196 6.67656 22.5976 7.12815 22.5976C7.35629 22.5976 7.58814 22.5521 7.81267 22.4591C8.48359 22.1811 8.9004 21.5598 8.9004 20.8375C8.90036 19.8685 8.11187 19.0801 7.14264 19.0801ZM7.54351 21.8096C7.22898 21.9398 6.76262 21.9487 6.39686 21.5831C6.0309 21.2172 6.04061 20.7487 6.17162 20.4323C6.30161 20.1185 6.62495 19.7832 7.14259 19.7832C7.72412 19.7832 8.19723 20.2561 8.19723 20.8375C8.19723 21.3545 7.85954 21.6786 7.54351 21.8096Z" fill="#54514C" fill-opacity="0.75"/>
</svg>
