<svg width="24" height="24" viewBox="0 0 24 24" fill="none" xmlns="http://www.w3.org/2000/svg">
<path d="M23.7532 0.030386C23.604 -0.031214 23.4316 0.00238599 23.3172 0.117186L19.2 4.23439V1.19999C19.2 0.979186 19.0212 0.799986 18.8 0.799986H2.4C1.0764 0.799986 0 1.87639 0 3.19999V21.6C0 22.9236 1.0764 24 2.4 24H18.8C19.0212 24 19.2 23.8208 19.2 23.6V12.5656L21.0712 10.6944C22.96 8.80558 24 6.29438 24 3.62359V0.399986C24 0.238386 23.9028 0.092386 23.7532 0.030386ZM18.4 23.2H2.4C1.5176 23.2 0.8 22.4824 0.8 21.6C0.8 20.7176 1.5176 20 2.4 20H18.4V23.2ZM18.4 19.2H2.4C1.7848 19.2 1.2252 19.4344 0.8 19.816V3.19999C0.8 2.31759 1.5176 1.59999 2.4 1.59999H18.4V5.03439L12.9172 10.5172C12.842 10.592 12.8 10.694 12.8 10.8V14.2344L10.5172 16.5172L11.0828 17.0828L13.3656 14.8H16.8C16.9064 14.8 17.008 14.758 17.0828 14.6828L18.4 13.3656V19.2ZM23.2 3.62359C23.2 6.08118 22.2428 8.39119 20.5056 10.1288L16.6344 14H14.1656L20.6828 7.48279L20.1172 6.91718L13.6 13.4344V10.9656L23.2 1.36559V3.62359Z" fill="#54514C" fill-opacity="0.75"/>
<path d="M9.59961 10.7998C11.8052 10.7998 13.5996 9.0054 13.5996 6.7998C13.5996 4.5942 11.8052 2.7998 9.59961 2.7998C7.39401 2.7998 5.59961 4.5942 5.59961 6.7998C5.59961 9.0054 7.39401 10.7998 9.59961 10.7998ZM7.63201 9.3182C7.77041 8.3426 8.59601 7.5998 9.59961 7.5998C10.6032 7.5998 11.4288 8.3426 11.5672 9.3182C11.0236 9.7438 10.3416 9.9998 9.59961 9.9998C8.85761 9.9998 8.17561 9.7438 7.63201 9.3182ZM8.79961 5.9998C8.79961 5.5586 9.15841 5.1998 9.59961 5.1998C10.0408 5.1998 10.3996 5.5586 10.3996 5.9998C10.3996 6.441 10.0408 6.7998 9.59961 6.7998C9.15841 6.7998 8.79961 6.441 8.79961 5.9998ZM9.59961 3.5998C11.364 3.5998 12.7996 5.0354 12.7996 6.7998C12.7996 7.4794 12.5852 8.109 12.2224 8.6278C11.9668 7.9342 11.4456 7.375 10.7844 7.0654C11.0396 6.7818 11.1996 6.4106 11.1996 5.9998C11.1996 5.1174 10.482 4.3998 9.59961 4.3998C8.71721 4.3998 7.99961 5.1174 7.99961 5.9998C7.99961 6.4106 8.15961 6.7818 8.41481 7.0654C7.75361 7.375 7.23241 7.9342 6.97681 8.6278C6.61401 8.109 6.39961 7.4794 6.39961 6.7998C6.39961 5.0354 7.83521 3.5998 9.59961 3.5998Z" fill="#54514C" fill-opacity="0.75"/>
<path d="M6 16.4004H10V17.2004H6V16.4004Z" fill="#54514C" fill-opacity="0.75"/>
<path d="M6 14.4004H11.2V15.2004H6V14.4004Z" fill="#54514C" fill-opacity="0.75"/>
<path d="M6 12.4004H12V13.2004H6V12.4004Z" fill="#54514C" fill-opacity="0.75"/>
</svg>
