<svg width="26" height="26" viewBox="0 0 26 26" fill="none" xmlns="http://www.w3.org/2000/svg">
<path d="M8.99935 11.6667C11.9449 11.6667 14.3327 9.27885 14.3327 6.33333C14.3327 3.38781 11.9449 1 8.99935 1C6.05383 1 3.66602 3.38781 3.66602 6.33333C3.66602 9.27885 6.05383 11.6667 8.99935 11.6667Z" stroke="#54514C" stroke-opacity="0.75" stroke-width="1.5" stroke-linecap="round" stroke-linejoin="round"/>
<path d="M1 25V22.3333C1 20.9188 1.5619 19.5623 2.5621 18.5621C3.56229 17.5619 4.91885 17 6.33333 17H11.6667C13.0812 17 14.4377 17.5619 15.4379 18.5621C16.4381 19.5623 17 20.9188 17 22.3333V25" stroke="#54514C" stroke-opacity="0.75" stroke-width="1.5" stroke-linecap="round" stroke-linejoin="round"/>
<path d="M18.334 1.17285C19.4812 1.46659 20.498 2.13379 21.2242 3.06927C21.9503 4.00474 22.3444 5.15529 22.3444 6.33952C22.3444 7.52375 21.9503 8.67429 21.2242 9.60977C20.498 10.5452 19.4812 11.2125 18.334 11.5062" stroke="#54514C" stroke-opacity="0.75" stroke-width="1.5" stroke-linecap="round" stroke-linejoin="round"/>
<path d="M25 25.0002V22.3335C24.9932 21.1564 24.5972 20.0146 23.8737 19.0861C23.1502 18.1575 22.1398 17.4945 21 17.2002" stroke="#54514C" stroke-opacity="0.75" stroke-width="1.5" stroke-linecap="round" stroke-linejoin="round"/>
</svg>
