<svg width="33" height="33" viewBox="0 0 33 33" fill="none" xmlns="http://www.w3.org/2000/svg">
<path d="M16.1659 10.7777C13.1967 10.7777 10.7737 13.2008 10.7737 16.17C10.7737 19.1392 13.1967 21.5623 16.1659 21.5623C19.1351 21.5623 21.5582 19.1392 21.5582 16.17C21.5582 13.2008 19.1351 10.7777 16.1659 10.7777ZM32.3388 16.17C32.3388 13.937 32.359 11.7243 32.2336 9.49537C32.1082 6.90642 31.5176 4.60872 29.6244 2.71555C27.7272 0.81834 25.4336 0.231781 22.8446 0.106379C20.6117 -0.019023 18.3989 0.00120323 16.17 0.00120323C13.937 0.00120323 11.7243 -0.019023 9.49536 0.106379C6.90641 0.231781 4.60872 0.822385 2.71555 2.71555C0.81834 4.61277 0.231781 6.90642 0.106379 9.49537C-0.019023 11.7283 0.00120323 13.9411 0.00120323 16.17C0.00120323 18.3989 -0.019023 20.6157 0.106379 22.8446C0.231781 25.4336 0.822385 27.7313 2.71555 29.6244C4.61277 31.5217 6.90641 32.1082 9.49536 32.2336C11.7283 32.359 13.9411 32.3388 16.17 32.3388C18.403 32.3388 20.6157 32.359 22.8446 32.2336C25.4336 32.1082 27.7313 31.5176 29.6244 29.6244C31.5216 27.7272 32.1082 25.4336 32.2336 22.8446C32.363 20.6157 32.3388 18.403 32.3388 16.17ZM16.1659 24.4668C11.5746 24.4668 7.86918 20.7613 7.86918 16.17C7.86918 11.5787 11.5746 7.87323 16.1659 7.87323C20.7573 7.87323 24.4627 11.5787 24.4627 16.17C24.4627 20.7613 20.7573 24.4668 16.1659 24.4668ZM24.8025 9.47109C23.7305 9.47109 22.8648 8.60541 22.8648 7.53343C22.8648 6.46144 23.7305 5.59576 24.8025 5.59576C25.8745 5.59576 26.7402 6.46144 26.7402 7.53343C26.7405 7.78797 26.6906 8.04008 26.5933 8.27532C26.4961 8.51055 26.3534 8.72428 26.1734 8.90428C25.9934 9.08427 25.7796 9.22698 25.5444 9.32425C25.3092 9.42151 25.0571 9.47141 24.8025 9.47109Z" fill="#FCFCFC"/>
</svg>
