<svg width="249" height="200" viewBox="0 0 249 200" fill="none" xmlns="http://www.w3.org/2000/svg">
<path d="M69.8478 132.993C85.3954 132.993 97.9993 120.39 97.9993 104.842C97.9993 89.2943 85.3954 76.6904 69.8478 76.6904C54.3001 76.6904 41.6963 89.2943 41.6963 104.842C41.6963 120.39 54.3001 132.993 69.8478 132.993Z" fill="#E6E6E6"/>
<path d="M62.2417 145.951L69.1666 150.242V121.236L61.4047 116.426C60.7629 116.029 60.294 115.404 60.0908 114.677C60.8323 114.536 61.6 114.678 62.2418 115.075L69.1666 119.366V108.119C69.1666 105.943 69.4335 103.775 69.9612 101.664C70.489 103.775 70.7558 105.943 70.7558 108.119V126.477L80.972 120.147C81.7877 119.641 82.7316 119.381 83.6911 119.396C83.2781 120.263 82.6248 120.992 81.8091 121.497L70.7558 128.347V196.944H69.1666V152.112L61.4046 147.302C60.7629 146.904 60.294 146.28 60.0908 145.553C60.8323 145.411 61.6 145.554 62.2417 145.951Z" fill="#CCCCCC"/>
<path d="M28.1515 135.384C43.6991 135.384 56.303 122.78 56.303 107.233C56.303 91.6849 43.6991 79.0811 28.1515 79.0811C12.6039 79.0811 0 91.6849 0 107.233C0 122.78 12.6039 135.384 28.1515 135.384Z" fill="#E6E6E6"/>
<path d="M35.7579 148.341L28.8331 152.632V123.626L36.595 118.816C37.2367 118.418 37.7057 117.794 37.9088 117.067C37.1673 116.925 36.3996 117.067 35.7579 117.465L28.833 121.756V110.508C28.833 108.332 28.5662 106.165 28.0384 104.054C27.5107 106.165 27.2438 108.332 27.2438 110.508V128.867L17.0277 122.536C16.212 122.031 15.2681 121.77 14.3086 121.786C14.7216 122.652 15.3749 123.382 16.1907 123.887L27.2439 130.736V197.095H28.8331V154.502L36.595 149.692C37.2367 149.294 37.7057 148.67 37.9088 147.943C37.1673 147.801 36.3997 147.943 35.7579 148.341Z" fill="#CCCCCC"/>
<path d="M48.6016 96.9395C75.3707 96.9395 97.0713 75.2388 97.0713 48.4697C97.0713 21.7006 75.3707 0 48.6016 0C21.8325 0 0.131836 21.7006 0.131836 48.4697C0.131836 75.2388 21.8325 96.9395 48.6016 96.9395Z" fill="#E6E6E6"/>
<path d="M61.6969 119.248L49.7741 126.636V76.695L63.1382 68.4137C64.2431 67.729 65.0504 66.6543 65.4003 65.4025L65.4003 65.4024H65.4003C64.1236 65.1586 62.8018 65.4032 61.697 66.0878L49.7741 73.4761V54.1103C49.7741 50.3639 49.3146 46.6316 48.406 42.9971C47.4973 46.6316 47.0379 50.3639 47.0379 54.1103V85.7189L29.4483 74.8192C28.0438 73.9488 26.4187 73.5005 24.7666 73.5275C25.4777 75.019 26.6025 76.2747 28.007 77.145L47.0379 88.9378V197.201H49.7741V129.855L63.1382 121.574C64.2431 120.889 65.0504 119.815 65.4003 118.563L65.4003 118.563H65.4003C64.1236 118.319 62.8018 118.564 61.6969 119.248Z" fill="#CCCCCC"/>
<path d="M248.133 196.943H19.3311V197.523H248.133V196.943Z" fill="#333E57"/>
<path d="M189.207 87.4467L177.852 94.0029L184.408 105.359L195.764 98.8025L189.207 87.4467Z" fill="#FF6584"/>
<path d="M189.353 107.726L182.507 95.8683L194.364 89.0225L201.21 100.88L189.353 107.726ZM183.298 96.0805L189.565 106.935L200.419 100.668L194.152 89.8138L183.298 96.0805Z" fill="#333E57"/>
<path d="M178.728 139.59C181.768 139.59 184.231 137.126 184.231 134.087C184.231 131.048 181.768 128.584 178.728 128.584C175.689 128.584 173.226 131.048 173.226 134.087C173.226 137.126 175.689 139.59 178.728 139.59Z" fill="#D0CDE1"/>
<path d="M182.784 139.879C181.638 139.879 180.518 139.539 179.566 138.903C178.613 138.266 177.871 137.362 177.432 136.303C176.994 135.245 176.879 134.08 177.103 132.956C177.326 131.833 177.878 130.801 178.688 129.991C179.498 129.18 180.53 128.629 181.654 128.405C182.777 128.182 183.942 128.296 185 128.735C186.059 129.173 186.963 129.916 187.6 130.868C188.236 131.821 188.576 132.941 188.576 134.086C188.576 135.623 187.966 137.096 186.88 138.182C185.793 139.269 184.32 139.879 182.784 139.879ZM182.784 128.873C181.753 128.873 180.745 129.179 179.887 129.752C179.03 130.325 178.362 131.139 177.967 132.091C177.573 133.044 177.469 134.092 177.671 135.103C177.872 136.115 178.368 137.044 179.097 137.773C179.826 138.502 180.755 138.998 181.767 139.199C182.778 139.401 183.826 139.297 184.779 138.903C185.731 138.508 186.545 137.84 187.118 136.983C187.691 136.125 187.997 135.118 187.997 134.086C187.997 132.704 187.448 131.378 186.47 130.4C185.492 129.422 184.166 128.873 182.784 128.873Z" fill="#333E57"/>
<path d="M213.444 198.262H160.153C159.501 198.261 158.875 198.001 158.413 197.54C157.952 197.078 157.692 196.453 157.691 195.8V146.274C157.692 145.622 157.952 144.996 158.413 144.534C158.875 144.073 159.501 143.813 160.153 143.812H213.444C214.097 143.813 214.722 144.073 215.184 144.534C215.645 144.996 215.905 145.622 215.906 146.274V195.8C215.905 196.453 215.645 197.078 215.184 197.54C214.722 198.001 214.097 198.261 213.444 198.262Z" fill="#FF3E79"/>
<path d="M190.562 200H183.032C182.379 199.999 181.754 199.74 181.292 199.278C180.831 198.817 180.571 198.191 180.57 197.538V144.803C180.571 144.15 180.831 143.524 181.292 143.063C181.754 142.601 182.379 142.342 183.032 142.341H190.562C191.215 142.342 191.841 142.601 192.302 143.063C192.764 143.524 193.023 144.15 193.024 144.803V197.538C193.023 198.191 192.764 198.817 192.302 199.278C191.841 199.74 191.215 199.999 190.562 200Z" fill="#333E57"/>
<path d="M227.602 138.91C227.291 144.019 220.389 147.755 220.389 147.755C220.389 147.755 213.993 143.209 214.304 138.1C214.615 132.99 221.517 129.254 221.517 129.254C221.517 129.254 227.913 133.801 227.602 138.91Z" fill="#333E57"/>
<path d="M227.915 154.85C222.805 154.555 219.047 147.665 219.047 147.665C219.047 147.665 223.574 141.255 228.684 141.55C233.794 141.845 237.552 148.735 237.552 148.735C237.552 148.735 233.025 155.146 227.915 154.85Z" fill="#333E57"/>
<path opacity="0.1" d="M215.761 149.871V168.778L196.956 143.957H211.281L215.761 149.871Z" fill="black"/>
<path d="M231.725 182.235C231.345 182.236 230.969 182.149 230.628 181.98C230.287 181.81 229.99 181.565 229.76 181.261L190.582 129.552C190.386 129.294 190.244 129 190.162 128.688C190.08 128.375 190.061 128.049 190.105 127.729C190.149 127.408 190.256 127.1 190.419 126.821C190.583 126.542 190.799 126.298 191.057 126.103L196.828 121.73C197.086 121.535 197.38 121.392 197.692 121.31C198.005 121.229 198.331 121.209 198.651 121.254C198.972 121.298 199.28 121.405 199.559 121.568C199.838 121.731 200.082 121.948 200.277 122.206L239.456 173.915C239.651 174.173 239.794 174.466 239.875 174.779C239.957 175.092 239.976 175.418 239.932 175.738C239.888 176.058 239.781 176.367 239.618 176.646C239.455 176.925 239.238 177.169 238.98 177.364L233.209 181.737C232.782 182.061 232.261 182.236 231.725 182.235Z" fill="#FF3E79"/>
<path d="M216.044 142.054L206.117 149.575L213.638 159.502L223.564 151.981L216.044 142.054Z" fill="#333E57"/>
<path d="M164.98 104.228L161.586 116.894L174.252 120.287L177.645 107.622L164.98 104.228Z" fill="#D0CDE1"/>
<path d="M168.878 122.181L155.653 118.637L159.197 105.412L172.422 108.956L168.878 122.181ZM156.363 118.228L168.469 121.472L171.713 109.365L159.607 106.121L156.363 118.228Z" fill="#333E57"/>
<path d="M113.169 152.92C113.517 152.587 113.788 152.181 113.962 151.732C114.137 151.283 114.21 150.801 114.178 150.32C114.146 149.839 114.009 149.371 113.776 148.949C113.544 148.527 113.221 148.161 112.832 147.877L107.513 105.004L100.642 107.047L108.06 148.77C107.626 149.455 107.459 150.276 107.59 151.077C107.721 151.878 108.141 152.603 108.771 153.114C109.401 153.626 110.197 153.889 111.007 153.853C111.818 153.817 112.587 153.486 113.169 152.92Z" fill="#FFB8B8"/>
<path d="M119.539 193.9H123.558L125.471 178.397H119.539V193.9Z" fill="#FFB8B8"/>
<path d="M131.31 197.632H118.678V192.751H126.876C128.052 192.751 129.179 193.219 130.011 194.05C130.842 194.882 131.31 196.009 131.31 197.185V197.632Z" fill="#333E57"/>
<path d="M91.7461 187.639L95.5132 189.04L102.71 175.178L97.1508 173.109L91.7461 187.639Z" fill="#FFB8B8"/>
<path d="M101.478 195.241L89.6386 190.837L91.34 186.263L99.0233 189.121C100.125 189.531 101.02 190.362 101.509 191.431C101.998 192.501 102.043 193.721 101.633 194.823L101.478 195.241L101.478 195.241Z" fill="#333E57"/>
<path d="M112.33 93.8745C116.527 93.8745 119.929 90.4722 119.929 86.2751C119.929 82.0781 116.527 78.6758 112.33 78.6758C108.133 78.6758 104.73 82.0781 104.73 86.2751C104.73 90.4722 108.133 93.8745 112.33 93.8745Z" fill="#FFB8B8"/>
<path d="M100.444 105.779C100.206 98.7797 107.562 93.9238 113.752 97.2012C114.541 97.6187 122.683 104.537 122.99 108.833C123.297 113.129 123.911 120.187 123.911 120.187L132.503 184.322L114.091 183.401L116.315 164.692L104.347 183.718L89.8486 179.105L107.647 127.858C107.647 127.858 100.804 116.387 100.444 105.779Z" fill="#333E57"/>
<path d="M100.588 108.216L101.77 123.586C101.782 123.747 101.855 123.897 101.973 124.006C102.091 124.115 102.246 124.176 102.407 124.176H107.609C107.714 124.176 107.818 124.15 107.911 124.101C108.003 124.051 108.082 123.979 108.141 123.892C108.199 123.804 108.235 123.704 108.245 123.599C108.255 123.495 108.24 123.389 108.199 123.292L101.815 107.922C101.757 107.782 101.65 107.667 101.515 107.598C101.379 107.529 101.224 107.51 101.076 107.546C100.928 107.581 100.798 107.668 100.708 107.791C100.619 107.914 100.576 108.065 100.588 108.216Z" fill="#333E57"/>
<path d="M127.303 150.257C127.61 149.886 127.831 149.451 127.952 148.984C128.072 148.518 128.089 148.03 128.001 147.557C127.913 147.083 127.722 146.634 127.441 146.242C127.161 145.85 126.798 145.524 126.378 145.288L116.079 103.332L109.493 106.165L121.744 146.733C121.393 147.465 121.323 148.3 121.547 149.08C121.771 149.86 122.273 150.53 122.958 150.965C123.643 151.399 124.464 151.567 125.265 151.437C126.066 151.306 126.791 150.887 127.303 150.257Z" fill="#FFB8B8"/>
<path d="M110.408 99.6262C110.408 99.6262 108.26 103.922 110.408 111.594C112.556 119.266 114.09 125.71 114.09 125.71C114.09 125.71 119 122.641 121.148 123.562C123.296 124.482 117.75 103.111 117.75 103.111C117.75 103.111 114.397 95.9438 110.408 99.6262Z" fill="#333E57"/>
<path d="M114.113 87.4608C114.216 85.8839 116.205 85.8299 117.785 85.815C119.365 85.8001 121.254 85.8565 122.148 84.5536C122.739 83.6925 122.626 82.4971 122.138 81.574C121.65 80.6508 120.847 79.9408 120.057 79.2577C118.018 77.4943 115.916 75.7448 113.468 74.6161C111.019 73.4873 108.15 73.0312 105.611 73.9373C102.492 75.0504 98.2749 80.7799 97.9108 84.0717C97.5467 87.3636 98.8622 90.7193 101.08 93.1792C103.297 95.6391 108.373 94.6466 111.567 95.5217C109.625 92.7732 110.905 87.7793 114.016 86.4958L114.113 87.4608Z" fill="#333E57"/>
</svg>
