<svg width="26" height="33" viewBox="0 0 26 33" fill="none" xmlns="http://www.w3.org/2000/svg">
<path d="M21 14.5557H4.33332C2.49238 14.5557 1 16.048 1 17.889V27.889C1 29.7299 2.49238 31.2223 4.33332 31.2223H21C22.8409 31.2223 24.3333 29.7299 24.3333 27.889V17.889C24.3333 16.048 22.8409 14.5557 21 14.5557Z" stroke="#FFB156" stroke-width="2" stroke-linecap="round" stroke-linejoin="round"/>
<path d="M12.6664 24.556C13.5869 24.556 14.3331 23.8098 14.3331 22.8893C14.3331 21.9688 13.5869 21.2227 12.6664 21.2227C11.7459 21.2227 10.9998 21.9688 10.9998 22.8893C10.9998 23.8098 11.7459 24.556 12.6664 24.556Z" stroke="#FFB156" stroke-width="2" stroke-linecap="round" stroke-linejoin="round"/>
<path d="M6.00024 14.556V7.88931C6.00024 6.1212 6.70262 4.42551 7.95286 3.17527C9.2031 1.92503 10.8988 1.22266 12.6669 1.22266C14.435 1.22266 16.1307 1.92503 17.3809 3.17527C18.6312 4.42551 19.3335 6.1212 19.3335 7.88931V14.556" stroke="#FFB156" stroke-width="2" stroke-linecap="round" stroke-linejoin="round"/>
</svg>
