<svg width="24" height="34" viewBox="0 0 24 34" fill="none" xmlns="http://www.w3.org/2000/svg">
<path d="M11.7541 32.2748L11.7541 32.2748C11.5361 32.032 8.76363 28.921 6.05019 24.8597C4.69346 22.829 3.36154 20.5755 2.37101 18.3355C1.37638 16.0862 0.75 13.9035 0.75 11.9999C0.75 5.79738 5.79738 0.75 12 0.75C18.2026 0.75 23.2499 5.79737 23.25 11.9999C23.25 13.9035 22.6236 16.0862 21.629 18.3355C20.6385 20.5755 19.3065 22.829 17.9498 24.8597C15.2364 28.921 12.4639 32.032 12.2459 32.2748L12.2459 32.2748C12.1149 32.4207 11.8852 32.4208 11.7541 32.2748ZM5.21256 11.9999C5.21256 15.7432 8.25668 18.7874 12 18.7874C15.7432 18.7874 18.7874 15.7433 18.7874 12C18.7874 8.25671 15.7433 5.2125 12 5.2125C8.25676 5.2125 5.21256 8.25662 5.21256 11.9999Z" fill="white" stroke="#7F7C79" stroke-width="1.5"/>
</svg>
