<svg width="186" height="170" viewBox="0 0 186 170" fill="none" xmlns="http://www.w3.org/2000/svg">
<g opacity="0.5">
<path d="M160.296 15.5984L4.44336 61.0073L8.57145 75.1758L164.424 29.7668L160.296 15.5984Z" fill="#333E57"/>
<path d="M23.0631 126.088L0.0916399 47.2455C-0.0786641 46.661 -0.00978105 46.0327 0.283125 45.499C0.576031 44.9652 1.06897 44.5697 1.65351 44.3994L153.728 0.0911539C154.312 -0.0785779 154.94 -0.00946151 155.474 0.28334C156.008 0.576141 156.403 1.0687 156.574 1.6529L176.925 71.5016L176.295 71.6852L155.944 1.83641C155.822 1.4193 155.539 1.06767 155.158 0.858556C154.777 0.649444 154.329 0.599898 153.911 0.720779L1.83697 45.029C1.41945 45.1507 1.06735 45.4332 0.858131 45.8145C0.648912 46.1957 0.59971 46.6445 0.72135 47.062L23.6928 125.904L23.0631 126.088Z" fill="#333E57"/>
<path d="M143.266 71.8261C142.805 71.8257 142.356 71.6758 141.987 71.3989C141.618 71.1221 141.348 70.7331 141.219 70.2903L137.366 57.0665C137.208 56.5237 137.273 55.9407 137.544 55.4452C137.816 54.9498 138.274 54.5824 138.816 54.4237L152.04 50.5708C152.583 50.4134 153.166 50.4776 153.661 50.7496C154.157 51.0215 154.524 51.4788 154.683 52.0213L158.536 65.2451C158.693 65.7879 158.629 66.3709 158.357 66.8664C158.085 67.3618 157.628 67.7292 157.085 67.8879L143.861 71.7408C143.668 71.7973 143.468 71.826 143.266 71.8261Z" fill="#FF3E79"/>
<path d="M22.7071 47.4896C22.6675 47.3537 22.6204 47.2201 22.566 47.0895C22.1962 46.1921 21.5079 45.463 20.6332 45.0422C19.7586 44.6215 18.7593 44.5389 17.8274 44.8102C16.8955 45.0815 16.0968 45.6876 15.5846 46.5121C15.0725 47.3366 14.8831 48.3212 15.0529 49.2769C15.0767 49.4163 15.1085 49.5543 15.148 49.6901C15.3874 50.5075 15.8853 51.2254 16.5669 51.7362C17.2486 52.2469 18.0773 52.5232 18.9291 52.5235C19.301 52.5243 19.6711 52.4713 20.0278 52.3661C21.029 52.0736 21.8733 51.3959 22.3755 50.4817C22.8778 49.5676 22.997 48.4915 22.7071 47.4896ZM19.8441 51.7365C19.0091 51.9788 18.1122 51.8801 17.3499 51.4621C16.5876 51.044 16.0221 50.3407 15.7776 49.5064C15.7392 49.3705 15.7085 49.2326 15.6857 49.0932C15.5627 48.3059 15.7307 47.5007 16.1583 46.8282C16.5858 46.1557 17.2437 45.662 18.0089 45.4393C18.7741 45.2167 19.5941 45.2804 20.3158 45.6185C21.0374 45.9566 21.6111 46.546 21.9298 47.2764C21.9892 47.4046 22.0385 47.5373 22.0774 47.6732C22.3194 48.5082 22.2202 49.4051 21.8014 50.1669C21.3827 50.9287 20.6787 51.4933 19.8441 51.7365V51.7365Z" fill="#FF3E79"/>
<path d="M13.0552 50.2997C12.8454 49.5789 12.8655 48.8106 13.1129 48.1019C13.3603 47.3931 13.8225 46.7792 14.4353 46.3456C13.8612 46.3176 13.2887 46.4272 12.7656 46.6653C12.2424 46.9034 11.7837 47.263 11.4277 47.7143C11.0717 48.1655 10.8286 48.6953 10.7188 49.2595C10.609 49.8237 10.6356 50.406 10.7964 50.9578C10.9571 51.5096 11.2475 52.0151 11.6431 52.432C12.0388 52.8489 12.5284 53.1652 13.0711 53.3546C13.6138 53.544 14.1938 53.601 14.763 53.5208C15.3322 53.4407 15.8739 53.2256 16.3432 52.8937C15.5934 52.857 14.8737 52.5875 14.2843 52.1225C13.695 51.6576 13.2653 51.0203 13.0552 50.2997Z" fill="#FF3E79"/>
<path d="M115.002 66.5527C114.932 66.3018 114.813 66.067 114.653 65.8619C114.492 65.6568 114.293 65.4854 114.066 65.3575C113.839 65.2296 113.589 65.1476 113.33 65.1164C113.072 65.0851 112.809 65.1052 112.559 65.1753L90.7862 71.2653L88.4414 71.9212H103.166L105.511 71.2653L113.628 68.9959C114.134 68.8538 114.562 68.5166 114.82 68.0586C115.078 67.6005 115.143 67.0589 115.002 66.5527Z" fill="#54514C" fill-opacity="0.5"/>
<path d="M99.5979 62.0041C99.456 61.4979 99.1189 61.0688 98.6607 60.8112C98.2026 60.5535 97.6608 60.4883 97.1546 60.63L64.4848 69.7666C64.0283 69.8959 63.633 70.1841 63.3702 70.5791C63.1074 70.9742 62.9944 71.4502 63.0516 71.9212H71.5093L73.8573 71.2653L98.2238 64.4506C98.7301 64.308 99.1593 63.9702 99.4169 63.5116C99.6745 63.0529 99.7396 62.5107 99.5979 62.0041Z" fill="#54514C" fill-opacity="0.5"/>
<path d="M183.705 71.2646H25.3073C24.6987 71.2653 24.1152 71.5074 23.6848 71.9378C23.2545 72.3681 23.0124 72.9516 23.0117 73.5603V167.353C23.0124 167.961 23.2544 168.545 23.6848 168.975C24.1152 169.406 24.6987 169.648 25.3073 169.648H183.705C184.314 169.648 184.897 169.406 185.328 168.975C185.758 168.545 186 167.961 186.001 167.353V73.5603C186 72.9516 185.758 72.3682 185.328 71.9378C184.897 71.5074 184.314 71.2654 183.705 71.2646ZM185.345 167.353C185.345 167.788 185.172 168.205 184.865 168.512C184.557 168.819 184.14 168.992 183.705 168.992H25.3073C24.8725 168.992 24.4555 168.819 24.148 168.512C23.8406 168.205 23.6678 167.788 23.6676 167.353V73.5603C23.6678 73.1254 23.8406 72.7085 24.1481 72.401C24.4555 72.0935 24.8725 71.9207 25.3073 71.9205H183.705C184.14 71.9207 184.557 72.0935 184.865 72.401C185.172 72.7085 185.345 73.1254 185.345 73.5603V167.353Z" fill="#333E57"/>
<path d="M40.7185 84.0553C39.9402 84.0553 39.1794 83.8245 38.5322 83.392C37.885 82.9596 37.3806 82.345 37.0828 81.6259C36.7849 80.9068 36.707 80.1156 36.8588 79.3522C37.0107 78.5888 37.3855 77.8876 37.9358 77.3372C38.4862 76.7868 39.1874 76.412 39.9508 76.2602C40.7142 76.1083 41.5055 76.1863 42.2245 76.4841C42.9436 76.782 43.5583 77.2864 43.9907 77.9336C44.4231 78.5807 44.6539 79.3416 44.6539 80.1199C44.6527 81.1633 44.2377 82.1635 43.4999 82.9013C42.7622 83.6391 41.7619 84.0541 40.7185 84.0553ZM40.7185 76.8405C40.0699 76.8405 39.4359 77.0328 38.8966 77.3931C38.3573 77.7535 37.9369 78.2657 37.6887 78.8649C37.4405 79.4642 37.3756 80.1236 37.5021 80.7597C37.6287 81.3959 37.941 81.9802 38.3996 82.4388C38.8583 82.8975 39.4426 83.2098 40.0788 83.3364C40.7149 83.4629 41.3743 83.398 41.9735 83.1497C42.5728 82.9015 43.085 82.4812 43.4453 81.9419C43.8057 81.4026 43.998 80.7685 43.998 80.1199C43.997 79.2505 43.6512 78.4169 43.0364 77.8021C42.4216 77.1873 41.588 76.8414 40.7185 76.8405Z" fill="#FF3E79"/>
<path d="M34.6028 80.1201C34.6029 79.3694 34.8372 78.6375 35.2729 78.0262C35.7087 77.4149 36.3243 76.9548 37.0339 76.7099C36.4905 76.5225 35.9102 76.4676 35.3414 76.5498C34.7725 76.632 34.2315 76.849 33.7634 77.1826C33.2954 77.5163 32.9139 77.9569 32.6506 78.4679C32.3873 78.9788 32.25 79.5453 32.25 80.1201C32.25 80.6949 32.3873 81.2614 32.6506 81.7723C32.9139 82.2833 33.2954 82.7239 33.7634 83.0576C34.2315 83.3912 34.7725 83.6082 35.3414 83.6904C35.9102 83.7726 36.4905 83.7177 37.0339 83.5303C36.3243 83.2854 35.7087 82.8252 35.2729 82.214C34.8372 81.6027 34.6029 80.8708 34.6028 80.1201Z" fill="#FF3E79"/>
<path d="M56.6722 126.615C55.8897 126.615 55.1395 126.303 54.5862 125.75C54.0328 125.197 53.7216 124.446 53.7207 123.664V114.809C53.7207 114.027 54.0317 113.276 54.5852 112.722C55.1387 112.169 55.8894 111.858 56.6722 111.858C57.455 111.858 58.2057 112.169 58.7592 112.722C59.3128 113.276 59.6237 114.027 59.6237 114.809V123.664C59.6228 124.446 59.3116 125.197 58.7583 125.75C58.2049 126.303 57.4547 126.615 56.6722 126.615Z" fill="#FF3E79"/>
<path d="M64.5413 126.615C63.7588 126.615 63.0086 126.303 62.4553 125.75C61.902 125.197 61.5907 124.446 61.5898 123.664V114.809C61.5898 114.027 61.9008 113.276 62.4543 112.722C63.0078 112.169 63.7586 111.858 64.5413 111.858C65.3241 111.858 66.0749 112.169 66.6284 112.722C67.1819 113.276 67.4929 114.027 67.4929 114.809V123.664C67.492 124.446 67.1807 125.197 66.6274 125.75C66.0741 126.303 65.3239 126.615 64.5413 126.615Z" fill="#FF3E79"/>
<path d="M72.4124 126.615C71.6299 126.615 70.8797 126.303 70.3264 125.75C69.7731 125.197 69.4618 124.446 69.4609 123.664V114.809C69.4609 114.027 69.7719 113.276 70.3254 112.722C70.8789 112.169 71.6297 111.858 72.4124 111.858C73.1952 111.858 73.946 112.169 74.4995 112.722C75.053 113.276 75.364 114.027 75.364 114.809V123.664C75.3631 124.446 75.0518 125.197 74.4985 125.75C73.9452 126.303 73.195 126.615 72.4124 126.615Z" fill="#FF3E79"/>
<path d="M84.5472 126.615C83.7647 126.615 83.0145 126.303 82.4612 125.75C81.9079 125.197 81.5966 124.446 81.5957 123.664V114.809C81.5957 114.027 81.9067 113.276 82.4602 112.722C83.0137 112.169 83.7644 111.858 84.5472 111.858C85.33 111.858 86.0807 112.169 86.6342 112.722C87.1878 113.276 87.4987 114.027 87.4987 114.809V123.664C87.4978 124.446 87.1866 125.197 86.6333 125.75C86.0799 126.303 85.3297 126.615 84.5472 126.615Z" fill="#FF3E79"/>
<path d="M92.4164 126.615C91.6338 126.615 90.8836 126.303 90.3303 125.75C89.777 125.197 89.4657 124.446 89.4648 123.664V114.809C89.4648 114.027 89.7758 113.276 90.3293 112.722C90.8828 112.169 91.6336 111.858 92.4164 111.858C93.1991 111.858 93.9499 112.169 94.5034 112.722C95.0569 113.276 95.3679 114.027 95.3679 114.809V123.664C95.367 124.446 95.0557 125.197 94.5024 125.75C93.9491 126.303 93.1989 126.615 92.4164 126.615Z" fill="#FF3E79"/>
<path d="M100.287 126.615C99.5049 126.615 98.7547 126.303 98.2014 125.75C97.6481 125.197 97.3368 124.446 97.3359 123.664V114.809C97.3359 114.027 97.6469 113.276 98.2004 112.722C98.7539 112.169 99.5047 111.858 100.287 111.858C101.07 111.858 101.821 112.169 102.374 112.722C102.928 113.276 103.239 114.027 103.239 114.809V123.664C103.238 124.446 102.927 125.197 102.373 125.75C101.82 126.303 101.07 126.615 100.287 126.615Z" fill="#FF3E79"/>
<path d="M112.422 126.615C111.64 126.615 110.89 126.303 110.336 125.75C109.783 125.197 109.472 124.446 109.471 123.664V114.809C109.471 114.027 109.782 113.276 110.335 112.722C110.889 112.169 111.639 111.858 112.422 111.858C113.205 111.858 113.956 112.169 114.509 112.722C115.063 113.276 115.374 114.027 115.374 114.809V123.664C115.373 124.446 115.062 125.197 114.508 125.75C113.955 126.303 113.205 126.615 112.422 126.615Z" fill="#FF3E79"/>
<path d="M120.293 126.615C119.511 126.615 118.761 126.303 118.207 125.75C117.654 125.197 117.343 124.446 117.342 123.664V114.809C117.342 114.027 117.653 113.276 118.206 112.722C118.76 112.169 119.511 111.858 120.293 111.858C121.076 111.858 121.827 112.169 122.38 112.722C122.934 113.276 123.245 114.027 123.245 114.809V123.664C123.244 124.446 122.933 125.197 122.379 125.75C121.826 126.303 121.076 126.615 120.293 126.615Z" fill="#FF3E79"/>
<path d="M128.162 126.615C127.38 126.615 126.63 126.303 126.076 125.75C125.523 125.197 125.212 124.446 125.211 123.664V114.809C125.211 114.027 125.522 113.276 126.075 112.722C126.629 112.169 127.38 111.858 128.162 111.858C128.945 111.858 129.696 112.169 130.249 112.722C130.803 113.276 131.114 114.027 131.114 114.809V123.664C131.113 124.446 130.802 125.197 130.248 125.75C129.695 126.303 128.945 126.615 128.162 126.615Z" fill="#FF3E79"/>
<path d="M140.297 126.615C139.515 126.615 138.765 126.303 138.211 125.75C137.658 125.197 137.347 124.446 137.346 123.664V114.809C137.346 114.027 137.657 113.276 138.21 112.722C138.764 112.169 139.514 111.858 140.297 111.858C141.08 111.858 141.831 112.169 142.384 112.722C142.938 113.276 143.249 114.027 143.249 114.809V123.664C143.248 124.446 142.937 125.197 142.383 125.75C141.83 126.303 141.08 126.615 140.297 126.615Z" fill="#FF3E79"/>
<path d="M148.168 126.615C147.386 126.615 146.636 126.303 146.082 125.75C145.529 125.197 145.218 124.446 145.217 123.664V114.809C145.217 114.027 145.528 113.276 146.081 112.722C146.635 112.169 147.386 111.858 148.168 111.858C148.951 111.858 149.702 112.169 150.255 112.722C150.809 113.276 151.12 114.027 151.12 114.809V123.664C151.119 124.446 150.808 125.197 150.254 125.75C149.701 126.303 148.951 126.615 148.168 126.615Z" fill="#FF3E79"/>
<path d="M156.039 126.615C155.257 126.615 154.507 126.303 153.953 125.75C153.4 125.197 153.089 124.446 153.088 123.664V114.809C153.088 114.027 153.399 113.276 153.952 112.722C154.506 112.169 155.257 111.858 156.039 111.858C156.822 111.858 157.573 112.169 158.126 112.722C158.68 113.276 158.991 114.027 158.991 114.809V123.664C158.99 124.446 158.679 125.197 158.125 125.75C157.572 126.303 156.822 126.615 156.039 126.615Z" fill="#FF3E79"/>
<path d="M76.6826 159.464H34.2332C33.7072 159.464 33.2028 159.256 32.8309 158.884C32.4589 158.512 32.25 158.007 32.25 157.481C32.25 156.955 32.4589 156.451 32.8309 156.079C33.2028 155.707 33.7072 155.498 34.2332 155.498H76.6826C77.2086 155.498 77.713 155.707 78.0849 156.079C78.4569 156.451 78.6658 156.955 78.6658 157.481C78.6658 158.007 78.4569 158.512 78.0849 158.884C77.713 159.256 77.2086 159.464 76.6826 159.464Z" fill="black" fill-opacity="0.15"/>
<path d="M63.0725 150.938H47.8426C47.3166 150.938 46.8122 150.729 46.4402 150.357C46.0683 149.985 45.8594 149.481 45.8594 148.955C45.8594 148.429 46.0683 147.924 46.4402 147.553C46.8122 147.181 47.3166 146.972 47.8426 146.972H63.0725C63.5985 146.972 64.1029 147.181 64.4748 147.553C64.8467 147.924 65.0557 148.429 65.0557 148.955C65.0557 149.481 64.8467 149.985 64.4748 150.357C64.1029 150.729 63.5985 150.938 63.0725 150.938Z" fill="black" fill-opacity="0.15"/>
<path d="M185.226 90.8691H23.5488V91.525H185.226V90.8691Z" fill="#333E57"/>
</g>
</svg>
