<svg width="22" height="23" viewBox="0 0 22 23" fill="none" xmlns="http://www.w3.org/2000/svg">
<path d="M21.7128 0.299674C21.7117 0.298596 21.7106 0.297652 21.7095 0.296574C21.5276 0.108037 21.2768 0 21.0208 0H21.0195C20.7983 0 20.5817 0.0795117 20.4099 0.223666C18.0703 2.17732 15.722 4.19386 13.4301 6.21714C12.8728 6.70908 12.315 7.20489 11.7578 7.70343L5.39502 1.05158C4.76673 0.394818 3.7445 0.394908 3.11626 1.05158L0.0943917 4.21084C-0.0314639 4.34246 -0.0314639 4.55575 0.0943917 4.68733C0.220247 4.81886 0.424306 4.81886 0.550119 4.68733L2.66053 2.48104L3.12171 2.96318L1.01135 5.16947C0.88549 5.3011 0.88549 5.51438 1.01135 5.64596C1.07425 5.71173 1.15675 5.74461 1.23921 5.74461C1.32167 5.74461 1.40417 5.71173 1.46707 5.64596L3.57748 3.43967L4.03867 3.92181L1.92826 6.12811C1.8024 6.25973 1.8024 6.47302 1.92826 6.60459C1.99116 6.67036 2.07366 6.70324 2.15612 6.70324C2.23858 6.70324 2.32108 6.67036 2.38398 6.60459L4.49439 4.39826L4.95558 4.8804L2.84521 7.0867C2.71935 7.21832 2.71935 7.43161 2.84521 7.56318C2.90812 7.62895 2.99062 7.66183 3.07307 7.66183C3.15553 7.66183 3.23803 7.62895 3.30094 7.56318L5.4113 5.35689L5.87249 5.83904L3.76212 8.04533C3.63626 8.17695 3.63626 8.39024 3.76212 8.52181C3.82503 8.58758 3.90753 8.62046 3.98998 8.62046C4.07244 8.62046 4.15494 8.58758 4.21785 8.52181L6.32822 6.31552L6.7894 6.79767L4.67903 9.00396C4.55318 9.13558 4.55318 9.34887 4.67903 9.48045C4.74194 9.54621 4.82444 9.5791 4.90689 9.5791C4.98935 9.5791 5.07185 9.54621 5.13476 9.48045L7.24513 7.27415L7.70631 7.7563L5.59594 9.96259C5.47009 10.0942 5.47009 10.3075 5.59594 10.4391C5.65885 10.5048 5.74135 10.5377 5.82381 10.5377C5.90626 10.5377 5.98876 10.5048 6.05167 10.4391L8.16204 8.23279L8.62326 8.71498L6.5129 10.9213C6.38704 11.0529 6.38704 11.2662 6.5129 11.3978C6.5758 11.4635 6.6583 11.4964 6.74076 11.4964C6.82322 11.4964 6.90572 11.4635 6.96862 11.3978L9.07903 9.19142L9.55646 9.69055C8.56693 10.5915 7.58252 11.4977 6.60919 12.4051C6.60876 12.4051 6.60876 12.4051 6.60876 12.4056C6.31962 12.6744 6.00423 12.9841 5.69309 13.2775C5.50249 13.4216 5.53879 13.675 5.63337 13.7739C5.63337 13.7739 5.63337 13.7743 5.6338 13.7743C5.94403 14.167 6.11548 14.6683 6.11548 15.1866C6.11548 15.7926 5.89247 16.3596 5.48732 16.7827C5.48323 16.787 4.51957 17.7945 4.51536 17.7989C3.11394 19.2981 0.645939 18.275 0.644521 16.1517C0.64538 14.8625 1.64127 13.7978 2.89948 13.7969C3.58479 13.7973 4.22459 14.1163 4.65471 14.671C4.77137 14.8213 4.98557 14.8376 5.12135 14.7088C5.12307 14.7074 5.12436 14.7061 5.12608 14.7043L5.12909 14.7015C5.28004 14.5597 5.26938 14.304 5.10073 14.1777C4.54987 13.5075 3.7485 13.123 2.90163 13.123H2.89733C1.28609 13.123 -0.0018584 14.4947 3.22222e-05 16.1517C-0.00138575 17.4002 0.728439 18.5031 1.80812 18.9615C2.44921 19.2329 3.15149 19.2516 3.78588 19.039C3.18123 21.0055 4.5885 23 6.54444 23H6.54787C8.14614 23 9.44869 21.6473 9.44693 19.9696C9.44779 19.1722 9.15389 18.4198 8.62064 17.8501C8.62094 17.8498 9.27867 17.0681 9.27867 17.0681C10.4397 15.7174 11.5881 14.3606 12.7226 13.0005L13.2082 13.5081L11.0978 15.7144C10.9719 15.846 10.9719 16.0593 11.0978 16.1909C11.1607 16.2566 11.2432 16.2895 11.3257 16.2895C11.4082 16.2895 11.4907 16.2566 11.5536 16.1909L13.664 13.9846L14.1252 14.4667L12.0148 16.673C11.8889 16.8046 11.8889 17.0179 12.0148 17.1495C12.0777 17.2153 12.1602 17.2482 12.2427 17.2482C12.3252 17.2482 12.4077 17.2153 12.4706 17.1495L14.581 14.9432L15.0421 15.4253L12.9317 17.6316C12.8059 17.7632 12.8059 17.9765 12.9317 18.1081C12.9947 18.1739 13.0772 18.2067 13.1596 18.2067C13.2421 18.2067 13.3246 18.1739 13.3876 18.1081L15.4979 15.9018L15.9591 16.3839L13.8487 18.5902C13.7228 18.7219 13.7228 18.9352 13.8487 19.0667C13.9116 19.1325 13.9941 19.1654 14.0766 19.1654C14.1591 19.1654 14.2416 19.1325 14.3045 19.0667L16.4149 16.8604L16.8761 17.3425L14.7657 19.5488C14.6398 19.6805 14.6398 19.8937 14.7657 20.0253C14.8286 20.0911 14.9111 20.124 14.9936 20.124C15.0761 20.124 15.1586 20.0911 15.2215 20.0253L17.3319 17.819L17.793 18.3011L15.6826 20.5074C15.5568 20.639 15.5568 20.8523 15.6826 20.9839C15.7456 21.0497 15.8281 21.0826 15.9106 21.0826C15.993 21.0826 16.0755 21.0497 16.1385 20.9839L18.2488 18.7776L18.71 19.2597L16.5996 21.466C16.4737 21.5976 16.4737 21.8109 16.5996 21.9425C16.6625 22.0083 16.7451 22.0411 16.8275 22.0411C16.91 22.0411 16.9925 22.0083 17.0554 21.9425L19.1658 19.7362L19.6269 20.2183L17.5166 22.4246C17.3907 22.5562 17.3907 22.7695 17.5166 22.9011C17.5795 22.9668 17.662 22.9997 17.7445 22.9997C17.8269 22.9997 17.9094 22.9668 17.9724 22.9011L20.3103 20.4568C20.3104 20.4567 20.3105 20.4566 20.3106 20.4565C20.3108 20.4564 20.3109 20.4563 20.3109 20.4562L20.9942 19.7418C21.2986 19.4236 21.4662 19.0006 21.4662 18.5506C21.4662 18.1006 21.2986 17.6776 20.9943 17.3594L14.6245 10.7006C17.0954 7.68717 19.4907 4.6646 21.7858 1.66166C22.0972 1.25417 22.0658 0.668662 21.7128 0.299674ZM3.1163 2.00455L3.57203 1.52811C3.94895 1.13405 4.56233 1.13405 4.93929 1.52811L11.2672 8.14371C10.859 8.51036 10.4511 8.878 10.044 9.24721L3.1163 2.00455ZM20.5384 17.8362C20.721 18.0271 20.8216 18.2809 20.8216 18.5509C20.8216 18.8209 20.721 19.0747 20.5384 19.2656L20.0826 19.742C19.8697 19.5195 13.604 12.9689 13.1468 12.491C13.5004 12.0654 13.8529 11.6396 14.2036 11.2135L20.5384 17.8362ZM8.97857 16.4083C8.82238 16.2833 8.40593 16.0669 8.33666 15.4522C8.31733 15.2824 8.18026 15.1548 8.0174 15.1548C7.82271 15.1548 7.67434 15.3316 7.69643 15.5313C7.69686 15.5313 7.69686 15.5313 7.69686 15.5313C7.7583 16.0806 8.04362 16.5663 8.47932 16.8632C8.50209 16.8789 8.52487 16.8951 8.5485 16.913C8.32498 17.1797 8.14047 17.4041 7.92889 17.6484C7.87002 17.7167 7.83994 17.8087 7.84682 17.9004C7.85326 17.992 7.89666 18.0783 7.96498 18.1362C8.50583 18.5978 8.80193 19.2621 8.80244 19.9695C8.80154 21.2679 7.80101 22.3252 6.54663 22.3261C5.30681 22.3244 4.29081 21.2798 4.29081 19.9695C4.29227 18.9032 4.93736 18.3322 4.9869 18.2589L5.94296 17.2594C6.46967 16.7087 6.76018 15.9638 6.76018 15.1866C6.76061 14.6188 6.60506 14.0703 6.3112 13.6014C6.56351 13.3602 6.78295 13.1461 7.0378 12.9087L7.03909 12.9069C14.0264 6.39355 20.7298 0.794623 20.8558 0.719199C20.7694 0.809537 8.19572 13.9491 8.13772 14.0174C8.01955 14.1567 8.03201 14.3701 8.16479 14.4931C8.29825 14.6174 8.50265 14.6028 8.61983 14.4648C8.65837 14.4189 21.2195 1.29164 21.3116 1.19537C21.2853 1.24384 16.0953 8.11644 8.97857 16.4083Z" fill="#FF3E79"/>
</svg>
