<svg width="25" height="26" viewBox="0 0 25 26" fill="none" xmlns="http://www.w3.org/2000/svg">
<path d="M5.09863 22.3742C5.09863 22.3742 9.36687 20.7139 9.41703 19.6227C9.46727 18.5316 9.51751 18.4367 9.41703 18.2944C9.31663 18.1521 8.16175 16.3495 8.06127 15.6379C8.06127 15.6379 6.95655 13.8351 7.86047 11.9376C7.86047 11.9376 7.65959 9.1861 8.11151 8.37962C8.56343 7.57322 9.86903 5.96026 12.8818 6.10258C15.8947 6.2449 16.9492 7.62066 17.0998 8.00018C17.2505 8.37962 17.5015 8.90146 17.5015 10.1349C17.4513 11.3683 17.3006 11.8427 17.6019 12.0799C17.9033 12.2697 18.4054 15.0211 17.0496 15.7327C17.0496 15.7327 16.196 17.7251 15.5432 18.3419C15.5432 18.3419 15.1414 19.9548 16.0955 20.4767C17.0496 20.9985 20.2131 22.5639 20.2131 22.5639" stroke="#54514C" stroke-opacity="0.75" stroke-width="1.5" stroke-miterlimit="10"/>
<path d="M12.6 25C19.0065 25 24.2 19.6274 24.2 13C24.2 6.37256 19.0065 1 12.6 1C6.19352 1 1 6.37256 1 13C1 19.6274 6.19352 25 12.6 25Z" stroke="#54514C" stroke-opacity="0.75" stroke-width="1.5" stroke-miterlimit="10"/>
</svg>
