<svg width="31" height="31" viewBox="0 0 31 31" fill="none" xmlns="http://www.w3.org/2000/svg">
<ellipse cx="15.0923" cy="15.2227" rx="15.0923" ry="15" fill="#FF3E79"/>
<path d="M11.6726 11.0742H8.86902C8.37333 11.0742 7.89793 11.2711 7.54742 11.6216C7.19691 11.9722 7 12.4475 7 12.9432V21.3539C7 21.8495 7.19691 22.3249 7.54742 22.6755C7.89793 23.026 8.37333 23.2229 8.86902 23.2229H17.2796C17.7753 23.2229 18.2507 23.026 18.6012 22.6755C18.9517 22.3249 19.1487 21.8495 19.1487 21.3539V18.5503" stroke="white" stroke-width="1.5" stroke-linecap="round" stroke-linejoin="round"/>
<path d="M11.6725 18.5502H14.4761L22.4194 10.6068C22.7912 10.2351 23.0001 9.73082 23.0001 9.20506C23.0001 8.67929 22.7912 8.17506 22.4194 7.80329C22.0477 7.43152 21.5434 7.22266 21.0177 7.22266C20.4919 7.22266 19.9877 7.43152 19.6159 7.80329L11.6725 15.7466V18.5502Z" stroke="white" stroke-width="1.5" stroke-linecap="round" stroke-linejoin="round"/>
<path d="M18.2142 9.20508L21.0177 12.0086" stroke="white" stroke-width="1.5" stroke-linecap="round" stroke-linejoin="round"/>
</svg>
