<svg width="253" height="116" viewBox="0 0 253 116" fill="none" xmlns="http://www.w3.org/2000/svg">
<path d="M248.925 0.3125V6.03848" stroke="#F2F2F2" stroke-miterlimit="10"/>
<path d="M245 3.1709H252.861" stroke="#F2F2F2" stroke-miterlimit="10"/>
<g clip-path="url(#clip0_1_13610)">
<g opacity="0.9">
<path opacity="0.05" d="M203.798 37.537C203.8 38.338 203.644 39.1314 203.339 39.8718C203.034 40.6122 202.587 41.2851 202.022 41.8521C201.457 42.419 200.786 42.8687 200.048 43.1756C199.31 43.4825 198.518 43.6404 197.719 43.6404H156.355C155.523 43.6484 154.699 43.4916 153.928 43.179C153.157 42.8664 152.456 42.4043 151.864 41.8191C151.272 41.234 150.801 40.5374 150.479 39.7694C150.157 39.0014 149.99 38.1771 149.986 37.3441C150.028 35.7903 150.666 34.3125 151.768 33.2188C152.589 32.4004 153.624 31.8316 154.754 31.5784C155.188 31.4806 155.633 31.4321 156.078 31.4336H156.535C157.363 31.2196 158.095 30.7362 158.618 30.0593C159.141 29.3824 159.425 28.5505 159.425 27.6944V27.5497C159.43 26.8566 159.242 26.1757 158.883 25.5836C158.526 25.0195 158.028 24.5583 157.439 24.2453C156.851 23.9323 156.191 23.7782 155.524 23.7984H151.263C150.813 23.7993 150.365 23.7507 149.926 23.6536C148.379 23.3326 147.005 22.4463 146.074 21.1672C145.142 19.888 144.718 18.3074 144.885 16.7326C145.051 15.1578 145.796 13.7014 146.975 12.6465C148.154 11.5915 149.682 11.0135 151.263 11.0247H180.42C181.289 11.0167 182.15 11.1806 182.956 11.5068C183.762 11.833 184.495 12.3152 185.115 12.9258C185.734 13.5364 186.228 14.2634 186.566 15.0652C186.905 15.867 187.083 16.7278 187.089 17.5985C187.039 19.2582 186.346 20.8333 185.158 21.9905C183.969 23.1476 182.378 23.796 180.721 23.7984H171.439C170.465 23.8532 169.55 24.2793 168.88 24.9893C168.21 25.6992 167.837 26.6391 167.837 27.616C167.837 28.593 168.21 29.5328 168.88 30.2428C169.55 30.9527 170.465 31.3788 171.439 31.4336H197.719C198.518 31.4336 199.31 31.5916 200.048 31.8985C200.786 32.2053 201.457 32.6551 202.022 33.222C202.587 33.7889 203.034 34.4619 203.339 35.2023C203.644 35.9427 203.8 36.7361 203.798 37.537Z" fill="#21A621"/>
<path opacity="0.05" d="M223.637 61.8181C223.572 63.4704 222.871 65.0334 221.682 66.18C220.493 67.3266 218.907 67.9679 217.257 67.9697H179.011C178.184 67.9494 177.373 68.2032 176.705 68.6918C176.037 69.1803 175.548 69.8763 175.315 70.6716C175.232 70.9946 175.192 71.3271 175.195 71.6607V71.9502C175.192 72.2837 175.232 72.6162 175.315 72.9393C175.548 73.7345 176.037 74.4305 176.705 74.919C177.373 75.4076 178.184 75.6615 179.011 75.6412H204.942C205.554 75.641 206.163 75.7346 206.747 75.9186C208.143 76.3455 209.34 77.2613 210.117 78.4989C210.895 79.7364 211.202 81.213 210.983 82.6589C210.764 84.1048 210.033 85.4235 208.924 86.374C207.815 87.3245 206.401 87.8434 204.942 87.8359H133.999C132.552 87.8598 131.142 87.3798 130.009 86.4779C128.876 85.5759 128.091 84.308 127.787 82.8904C127.594 81.912 127.645 80.9008 127.937 79.9472C128.229 78.9936 128.753 78.1274 129.461 77.4263C130.152 76.7226 131.009 76.2042 131.953 75.9186C132.541 75.7334 133.154 75.6398 133.771 75.6412H135.576C136.403 75.6615 137.214 75.4076 137.882 74.919C138.55 74.4305 139.039 73.7345 139.272 72.9393C139.355 72.6162 139.395 72.2837 139.392 71.9502V71.6124C139.343 70.6248 138.912 69.6953 138.191 69.0201C137.47 68.3449 136.515 67.9769 135.528 67.9938H92.6232C91.7478 68.0018 90.8795 67.8352 90.069 67.5036C89.2584 67.172 88.5219 66.682 87.9023 66.0623C87.2826 65.4426 86.7923 64.7055 86.4599 63.894C86.1275 63.0825 85.9596 62.2128 85.966 61.3356C86.0374 59.6886 86.741 58.133 87.9299 56.9934C89.1188 55.8539 90.7011 55.2186 92.3463 55.2201H216.956C217.828 55.2106 218.693 55.374 219.502 55.701C220.31 56.028 221.046 56.5121 221.667 57.1254C222.289 57.7387 222.782 58.4691 223.12 59.2745C223.458 60.0799 223.634 60.9443 223.637 61.8181Z" fill="#21A621"/>
<path opacity="0.05" d="M0 84.6755C0.0482416 86.6492 0.69951 88.5605 1.86595 90.1517C3.06588 91.3469 4.6884 92.0189 6.38036 92.0213H44.6264C45.4545 92.0038 46.2652 92.2601 46.9333 92.7507C47.6014 93.2413 48.0895 93.9388 48.3222 94.7353C48.3992 95.0553 48.4396 95.3831 48.4426 95.7123V96.0018C48.4403 96.335 48.3999 96.6669 48.3222 96.9909C48.0891 97.7862 47.6005 98.4821 46.9322 98.9707C46.2639 99.4592 45.4534 99.713 44.6264 99.6928H18.6956C18.0831 99.6926 17.4742 99.7862 16.8899 99.9702C14.41 100.742 12.6162 104.252 12.6162 106.99C12.6147 107.791 12.7707 108.585 13.0755 109.325C13.3804 110.065 13.8279 110.738 14.3926 111.305C14.9573 111.872 15.628 112.322 16.3664 112.629C17.1048 112.936 17.8963 113.094 18.6956 113.094H137.78C139.228 113.118 140.64 112.639 141.775 111.737C142.91 110.835 143.697 109.567 144.003 108.148C144.188 106.981 144.135 105.788 143.848 104.642C143.56 103.495 143.044 102.419 142.33 101.478C141.639 100.774 140.782 100.256 139.838 99.9702C139.25 99.785 138.637 99.6914 138.02 99.6928H136.203C135.706 99.7194 135.21 99.6432 134.744 99.4687C134.278 99.2942 133.854 99.0254 133.497 98.6789C133.14 98.3324 132.858 97.9158 132.669 97.4552C132.48 96.9945 132.388 96.4997 132.398 96.0018V95.664C132.448 94.6764 132.879 93.7469 133.6 93.0717C134.321 92.3965 135.276 92.0285 136.263 92.0454H179.168C182.779 92.0454 185.969 87.8478 185.813 84.193C185.75 82.544 185.052 80.9836 183.864 79.8406C182.676 78.6976 181.091 78.0612 179.445 78.0655H6.65724C5.78673 78.0608 4.92383 78.228 4.11791 78.5578C3.312 78.8875 2.57889 79.3733 1.96055 79.9873C1.34221 80.6012 0.850769 81.3313 0.514355 82.1358C0.17794 82.9403 0.00315256 83.8033 0 84.6755Z" fill="#21A621"/>
</g>
<path opacity="0.5" d="M129.377 116.001C148.737 116.001 164.432 100.054 164.432 80.3819C164.432 60.7099 148.737 44.7627 129.377 44.7627C110.016 44.7627 94.3208 60.7099 94.3208 80.3819C94.3208 100.054 110.016 116.001 129.377 116.001Z" fill="#E0E0E0"/>
<path d="M95.4526 72.8068C95.6854 71.4126 96.0071 70.0347 96.4157 68.6816C98.2222 62.6469 101.645 57.2236 106.311 53.001" stroke="#21A621" stroke-width="2" stroke-miterlimit="10" stroke-linecap="round"/>
<path d="M114.437 47.6091C116.587 46.5646 118.843 45.7558 121.167 45.1967C128.12 43.4853 135.433 43.9895 142.088 46.6391C148.742 49.2887 154.406 53.9517 158.29 59.9786C162.174 66.0056 164.086 73.0964 163.759 80.2632C163.431 87.4301 160.881 94.3163 156.463 99.9625C152.046 105.609 145.981 109.734 139.113 111.763C132.245 113.793 124.916 113.626 118.148 111.285C111.379 108.944 105.508 104.547 101.351 98.7047C97.1948 92.8628 94.9603 85.8674 94.959 78.693" stroke="#21A621" stroke-width="2" stroke-miterlimit="10" stroke-linecap="round"/>
<path d="M112.884 77.3422L124.562 89.0423L144.894 68.6816" stroke="white" stroke-width="2" stroke-linecap="round" stroke-linejoin="round"/>
<path d="M112.884 77.9457L124.562 89.6459L144.894 69.2852" stroke="#21A621" stroke-width="2" stroke-linecap="round" stroke-linejoin="round"/>
<path d="M248.063 46.5479V54.4244" stroke="#54514C" stroke-opacity="0.75" stroke-miterlimit="10"/>
<path d="M244.139 50.4805H252" stroke="#54514C" stroke-opacity="0.75" stroke-miterlimit="10"/>
<path d="M99.8464 39.9376C103.091 39.9376 105.721 37.3022 105.721 34.0513C105.721 30.8004 103.091 28.165 99.8464 28.165C96.6019 28.165 93.9717 30.8004 93.9717 34.0513C93.9717 37.3022 96.6019 39.9376 99.8464 39.9376Z" stroke="#21A621" stroke-miterlimit="10"/>
</g>
<defs>
<clipPath id="clip0_1_13610">
<rect width="252" height="105" fill="white" transform="translate(0 11.001)"/>
</clipPath>
</defs>
</svg>
